<?xml version="1.0" encoding="UTF-8"?>
<svg id="Capa_2" data-name="Capa 2" xmlns="http://www.w3.org/2000/svg" viewBox="0 0 234.48 76.33">
  <defs>
    <style>
      .cls-1 {
        fill: #326295;
      }
    </style>
  </defs>
  <g id="Capa_2-2" data-name="Capa 2">
    <g>
      <path class="cls-1" d="M0,.08v76.25h23.74v-27.48h16.49l6.41-16.79h-22.9v-15.42h27.86L57.7.08s-57.7,0-57.7,0ZM64.96.08l-.08,76.25h23.51V.08h-23.43ZM180.44,51.45l9.08-31.75,9.39,31.75h-18.47ZM202.04.08h-24.35l-27.02,76.25h22.67l2.9-10.23h26.41l3.05,10.23h23.36L202.04.08h0ZM104.49.08v76.25h23.74v-27.48h16.49l6.49-16.72h-22.97v-15.49h27.86L162.27.08s-57.78,0-57.78,0Z"/>
      <path class="cls-1" d="M228.71,11.83c-3.42,0-5.83-2.55-5.83-5.92,0-3.55,2.68-5.91,5.83-5.91s5.77,2.36,5.77,5.91-2.69,5.92-5.77,5.92M228.71,1.03c-2.57,0-4.57,2.01-4.57,4.88,0,2.69,1.74,4.88,4.57,4.88,2.51,0,4.51-1.98,4.51-4.88s-2-4.88-4.51-4.88M227.53,9.3h-1.08V2.75h2.49c1.57,0,2.38.56,2.38,1.87,0,1.19-.72,1.68-1.7,1.78l1.82,2.89h-1.21l-1.7-2.79h-1.01v2.79ZM228.72,5.59c.81,0,1.51-.09,1.51-1.04,0-.77-.76-.88-1.42-.88h-1.29v1.92h1.19Z"/>
    </g>
  </g>
</svg>