<?xml version="1.0" encoding="UTF-8"?>
<svg id="Capa_2" data-name="Capa 2" xmlns="http://www.w3.org/2000/svg" xmlns:xlink="http://www.w3.org/1999/xlink" viewBox="0 0 210.57 154.47">
  <defs>
    <style>
      .cls-1 {
        fill: url(#Degradado_sin_nombre_2);
      }

      .cls-2 {
        fill: #1a3374;
      }
    </style>
    <linearGradient id="Degradado_sin_nombre_2" data-name="Degradado sin nombre 2" x1="79.41" y1="126.98" x2="25.22" y2="22.95" gradientUnits="userSpaceOnUse">
      <stop offset="0" stop-color="#d9e70c"/>
      <stop offset="1" stop-color="#40b93c"/>
    </linearGradient>
  </defs>
  <g id="Capa_2-2" data-name="Capa 2">
    <g>
      <g>
        <g id="g3744">
          <path id="path3750" class="cls-2" d="M59.52,0C14.26,11.3-6.44,78.75,22.03,118.03c27.11,37.41,90.42,38.02,112.21,9.33-25.7,33.85-86.87,39.86-118.85-4.27C-18.21,76.75,6.21,13.33,59.61,0h-.09Z"/>
        </g>
        <path class="cls-1" d="M62.31,3.69C20.04,14.24.71,77.23,27.3,113.91c25.32,34.94,84.44,35.51,104.78,8.72-24,31.61-81.12,37.22-110.99-3.99C-10.27,75.36,12.53,16.14,62.4,3.69h-.08Z"/>
      </g>
      <g>
        <path id="path3842" class="cls-2" d="M97.68,77.17c0,1.53-.55,2.83-1.64,3.92-1.09,1.09-2.4,1.64-3.92,1.64h-17.65c-1.53,0-2.84-.55-3.93-1.64-1.09-1.09-1.63-2.39-1.63-3.92v-9.4c0-.39.04-.78.11-1.14.1-.48.87-3.28,4.04-4.23.45-.11.91-.19,1.41-.19h17.65c1.53,0,2.83.54,3.92,1.63,1.09,1.09,1.64,2.4,1.64,3.92v9.4h0ZM104.93,56.43c-2.66-2.64-5.84-3.96-9.55-3.96h-24.18c-2.37,0-4.52.54-6.46,1.62-2.27,1.26-4.07,3.45-4.41,3.85-1.77,2.32-2.67,5-2.67,8.06v12.98c0,3.7,1.33,6.89,3.99,9.55,2.66,2.66,5.85,3.99,9.55,3.99h24.18c3.71,0,6.89-1.33,9.55-3.99,2.66-2.66,3.99-5.84,3.99-9.55v-12.98c0-3.75-1.33-6.94-3.99-9.58"/>
        <path id="path3844" class="cls-2" d="M210.57,82.73h-27.75c-1.52,0-2.83-.55-3.92-1.64-1.09-1.09-1.63-2.39-1.63-3.92v-9.4c0-1.53.54-2.83,1.63-3.92,1.09-1.09,2.4-1.63,3.92-1.63h27.75v-9.74h-31.01c-3.71,0-6.89,1.32-9.55,3.96-2.66,2.63-3.99,5.83-3.99,9.58v12.98c0,3.7,1.33,6.89,3.99,9.55,2.66,2.66,5.84,3.99,9.55,3.99h31.01v-9.79Z"/>
        <path id="path3846" class="cls-2" d="M127.38,63.85c1.09-1.09,2.4-1.63,3.92-1.63h26.14l6.96-9.74h-36.37c-3.7,0-6.88,1.32-9.54,3.96-2.66,2.63-3.99,5.82-3.99,9.58v26.52h11.24v-9.16c0-1.53.54-2.83,1.63-3.93,1.09-1.09,2.4-1.63,3.92-1.63h26.14v-9.74h-31.69v-.29c0-1.53.54-2.83,1.63-3.92"/>
      </g>
    </g>
  </g>
</svg>