<?xml version="1.0" encoding="UTF-8"?>
<svg id="Capa_2" data-name="Capa 2" xmlns="http://www.w3.org/2000/svg" xmlns:xlink="http://www.w3.org/1999/xlink" viewBox="0 0 207.57 193.33">
  <defs>
    <style>
      .cls-1 {
        fill: url(#radial-gradient-10);
      }

      .cls-2 {
        fill: url(#radial-gradient-9);
      }

      .cls-3 {
        fill: url(#radial-gradient-14);
      }

      .cls-4 {
        fill: url(#radial-gradient-16);
      }

      .cls-5 {
        fill: url(#radial-gradient-18);
      }

      .cls-6 {
        fill: url(#radial-gradient-5);
      }

      .cls-7 {
        fill: url(#radial-gradient);
      }

      .cls-8 {
        fill: url(#radial-gradient-3);
      }

      .cls-9 {
        fill: url(#radial-gradient-20);
      }

      .cls-10 {
        fill: url(#radial-gradient-11);
      }

      .cls-11 {
        fill: url(#radial-gradient-8);
      }

      .cls-12 {
        fill: url(#radial-gradient-2);
      }

      .cls-13 {
        fill: url(#radial-gradient-23);
      }

      .cls-14 {
        fill: url(#radial-gradient-21);
      }

      .cls-15 {
        fill: url(#radial-gradient-4);
      }

      .cls-16 {
        fill: url(#radial-gradient-22);
      }

      .cls-17 {
        fill: url(#radial-gradient-12);
      }

      .cls-18 {
        fill: url(#radial-gradient-19);
      }

      .cls-19 {
        fill: url(#radial-gradient-15);
      }

      .cls-20 {
        fill: url(#radial-gradient-6);
      }

      .cls-21 {
        fill: url(#radial-gradient-7);
      }

      .cls-22 {
        fill: url(#radial-gradient-17);
      }

      .cls-23 {
        fill: url(#radial-gradient-13);
      }
    </style>
    <radialGradient id="radial-gradient" cx="-62.49" cy="-12.78" fx="-62.49" fy="-12.78" r="314.62" gradientUnits="userSpaceOnUse">
      <stop offset="0" stop-color="#e3e26f"/>
      <stop offset=".05" stop-color="#c7d86a"/>
      <stop offset=".16" stop-color="#80c15e"/>
      <stop offset=".29" stop-color="#25a44f"/>
      <stop offset=".49" stop-color="#059342"/>
      <stop offset=".87" stop-color="#024b20"/>
      <stop offset=".94" stop-color="#137637"/>
      <stop offset="1" stop-color="#25a44f"/>
    </radialGradient>
    <radialGradient id="radial-gradient-2" cx="-62.49" cy="-12.78" fx="-62.49" fy="-12.78" r="314.62" xlink:href="#radial-gradient"/>
    <radialGradient id="radial-gradient-3" cx="-62.49" cy="-12.78" fx="-62.49" fy="-12.78" r="314.62" xlink:href="#radial-gradient"/>
    <radialGradient id="radial-gradient-4" cx="-62.49" cy="-12.78" fx="-62.49" fy="-12.78" r="314.62" xlink:href="#radial-gradient"/>
    <radialGradient id="radial-gradient-5" cx="-62.49" cy="-12.78" fx="-62.49" fy="-12.78" r="314.62" xlink:href="#radial-gradient"/>
    <radialGradient id="radial-gradient-6" cx="-62.49" cy="-12.78" fx="-62.49" fy="-12.78" r="314.62" xlink:href="#radial-gradient"/>
    <radialGradient id="radial-gradient-7" cx="-62.49" cy="-12.78" fx="-62.49" fy="-12.78" r="314.62" xlink:href="#radial-gradient"/>
    <radialGradient id="radial-gradient-8" cx="-62.49" cy="-12.78" fx="-62.49" fy="-12.78" r="314.62" xlink:href="#radial-gradient"/>
    <radialGradient id="radial-gradient-9" cx="-62.49" cy="-12.78" fx="-62.49" fy="-12.78" r="314.62" xlink:href="#radial-gradient"/>
    <radialGradient id="radial-gradient-10" cx="-62.49" cy="-12.78" fx="-62.49" fy="-12.78" r="314.62" xlink:href="#radial-gradient"/>
    <radialGradient id="radial-gradient-11" cx="-62.49" cy="-12.78" fx="-62.49" fy="-12.78" r="314.62" xlink:href="#radial-gradient"/>
    <radialGradient id="radial-gradient-12" cx="-62.49" fx="-62.49" r="314.62" xlink:href="#radial-gradient"/>
    <radialGradient id="radial-gradient-13" cx="-62.49" cy="-12.78" fx="-62.49" fy="-12.78" r="314.62" xlink:href="#radial-gradient"/>
    <radialGradient id="radial-gradient-14" cx="-62.49" cy="-12.78" fx="-62.49" fy="-12.78" r="314.62" xlink:href="#radial-gradient"/>
    <radialGradient id="radial-gradient-15" cx="-62.49" cy="-12.78" fx="-62.49" fy="-12.78" r="314.62" xlink:href="#radial-gradient"/>
    <radialGradient id="radial-gradient-16" cx="-62.49" cy="-12.78" fx="-62.49" fy="-12.78" r="314.62" xlink:href="#radial-gradient"/>
    <radialGradient id="radial-gradient-17" cx="-62.49" cy="-12.78" fx="-62.49" fy="-12.78" r="314.62" xlink:href="#radial-gradient"/>
    <radialGradient id="radial-gradient-18" cx="-62.49" cy="-12.78" fx="-62.49" fy="-12.78" r="314.62" xlink:href="#radial-gradient"/>
    <radialGradient id="radial-gradient-19" cx="-62.49" cy="-12.78" fx="-62.49" fy="-12.78" r="314.62" xlink:href="#radial-gradient"/>
    <radialGradient id="radial-gradient-20" cx="-62.49" cy="-12.78" fx="-62.49" fy="-12.78" r="314.62" xlink:href="#radial-gradient"/>
    <radialGradient id="radial-gradient-21" cx="-62.49" cy="-12.78" fx="-62.49" fy="-12.78" r="314.62" xlink:href="#radial-gradient"/>
    <radialGradient id="radial-gradient-22" cx="-62.49" cy="-12.78" fx="-62.49" fy="-12.78" r="314.62" xlink:href="#radial-gradient"/>
    <radialGradient id="radial-gradient-23" cx="-62.49" cy="-12.78" fx="-62.49" fy="-12.78" r="314.62" xlink:href="#radial-gradient"/>
  </defs>
  <g id="Capa_2-2" data-name="Capa 2">
    <g>
      <path class="cls-7" d="M35.84,43.96s0,0,0,0c-2.2,2.98-4.25,6.12-6.08,9.45-1.09,1.97-2.07,3.96-2.98,5.96l11.99-3.46-2.93-11.96h0Z"/>
      <path class="cls-12" d="M19.78,84.61h0s0,0,0,0c-.68,5.99-.71,11.99-.12,17.9l8.66-9-8.53-8.9Z"/>
      <path class="cls-8" d="M95.4,10.19l8.39,8.67,8.39-8.67c-2.78-.29-5.59-.42-8.39-.42s-5.6.14-8.39.42Z"/>
      <path class="cls-15" d="M66.62,28.6l3.44-11.83c-5.47,2.37-10.7,5.32-15.59,8.82l12.15,3.01Z"/>
      <path class="cls-6" d="M33.7,66.67l-11.31,4.97h0s7.15,9.89,7.15,9.89c.85-5.02,2.24-9.99,4.16-14.86Z"/>
      <path class="cls-20" d="M45.82,46.17c3.33-4.03,7.02-7.64,11-10.81l-12.24-1.34,1.24,12.14Z"/>
      <path class="cls-21" d="M35.04,143.44s0,0,0,0h0s3-12.14,3-12.14l-11.79-3.43c2.36,5.46,5.29,10.68,8.79,15.56Z"/>
      <path class="cls-11" d="M77.6,23.67c4.83-1.79,9.85-3.08,14.97-3.85l-9.97-7.29-5,11.13Z"/>
      <path class="cls-2" d="M29.3,105.35l-7.31,9.97,11.17,5.01c-1.8-4.85-3.09-9.86-3.86-14.98Z"/>
      <path class="cls-1" d="M187.79,84.61s0,0,0,0h0s-8.53,8.9-8.53,8.9l8.66,9c.59-5.91.56-11.91-.12-17.9Z"/>
      <path class="cls-10" d="M137.51,16.77l3.44,11.83,12.15-3.01c-4.9-3.51-10.12-6.45-15.59-8.82Z"/>
      <path class="cls-17" d="M177.81,53.42c-1.83-3.33-3.88-6.47-6.08-9.45,0,0,0,0,0,0h0s-2.93,11.96-2.93,11.96l11.99,3.46c-.91-2-1.88-3.99-2.98-5.96Z"/>
      <path class="cls-23" d="M178.03,81.53l7.15-9.88h0s-11.31-4.98-11.31-4.98c1.92,4.87,3.32,9.84,4.16,14.86Z"/>
      <path class="cls-3" d="M161.75,46.17l1.24-12.14-12.24,1.34c3.98,3.16,7.67,6.77,11,10.81Z"/>
      <path class="cls-19" d="M172.52,143.44h0s0,0,0,0c3.49-4.89,6.43-10.11,8.79-15.56l-11.79,3.43,3,12.14Z"/>
      <path class="cls-4" d="M115,19.83c5.12.76,10.14,2.06,14.97,3.85l-5-11.13-9.97,7.29Z"/>
      <path class="cls-22" d="M174.41,120.33l11.17-5.01-7.31-9.97c-.77,5.12-2.06,10.13-3.86,14.98Z"/>
      <path class="cls-5" d="M181,148.21c10.71-15.29,17.01-33.9,17.01-53.98C198.01,42.19,155.82,0,103.78,0S9.56,42.19,9.56,94.23c0,20.09,6.3,38.69,17.01,53.98-9.05,2.47-17.93,5.35-26.57,8.69,10.22-1.22,20.49-2.24,30.78-3.1,0,0,0,.01.01.02,14.46-1.2,28.98-2.04,43.49-2.53,1.2-.04,2.4-.08,3.6-.12,1.74-.05,3.47-.09,5.21-.14,1.18-.03,2.36-.06,3.54-.08,1.64-.03,3.28-.05,4.92-.08,1.29-.02,2.58-.04,3.86-.05,1.44-.01,2.88-.02,4.32-.02,1.35,0,2.7-.02,4.05-.02s2.7.01,4.06.02c1.44,0,2.87,0,4.31.02,1.29.01,2.57.04,3.86.05,1.64.02,3.29.04,4.93.08,1.17.02,2.35.05,3.52.08,1.75.04,3.5.08,5.25.14,1.17.03,2.34.07,3.51.11,14.53.49,29.06,1.33,43.55,2.53,0,0,0-.01.01-.02,10.29.86,20.56,1.88,30.78,3.1-8.64-3.33-17.52-6.22-26.56-8.69ZM132.78,124.43s1.57,4.16-6.66,14.35c-1.21,1.5-2.63,3.13-4.31,4.9l-14.22,1.33s-1.46-2.98-3.27-7.09c-2.21-4.98-4.94-11.6-6.22-16.57,0,0,.38-4.37,3.16-8.15,0,0-2.09-12.04-7.57-15.89,0,0,1.78-3.56.14-8,0,0-8.23-4.97-24.33-.03,0,0-11.96-6.34-14.78-19.23-2.81-12.88,21.5-26.28,21.5-26.28,0,0,10.54-2.38,18.63-2.38,1.09,0,2.15.05,3.1.14,0,0,.93,2.73.93,5.56,0,0,9.23,3.99,10.99,3.62,0,0,.11-1.85,1.59-3.04,0,0,12.51,2.49,17.36,2.14,0,0,2.36,15.5,15.39,28.97,0,0,8.98-.8,12.49-2.92,0,0,3.63,5.87-16.72,23.8,0,0-1.98,10.7.6,19.43,0,0-3.48,4.43-7.78,5.33ZM141.49,133.24s.47-3.37.03-5.37l2.08-2.18s-.43-2.25.23-4.44c0,0,3-2.41,6.37-4.16,0,0,1.12-1.34,1.53-2.84,0,0,2.64,2.96-.59,9.26,0,0-4.45,6.79-4.64,10.1,0,0-3.3,2.11-5.01-.38ZM149.3,141.44c12.39-11.93,20.08-28.67,20.08-47.21,0-36.23-29.37-65.59-65.6-65.6-36.23.01-65.6,29.37-65.6,65.6,0,18.55,7.7,35.29,20.08,47.21-9.29,1.44-18.47,3.34-27.5,5.66-11.08-15.31-17.14-33.88-17.14-52.87C13.62,44.51,54.07,4.07,103.78,4.07s90.16,40.45,90.16,90.16c0,18.99-6.06,37.57-17.14,52.87-9.03-2.31-18.21-4.22-27.5-5.66Z"/>
      <path class="cls-18" d="M47.59,186.2c-.83-.4-1.18-.83-1.18-1.47v-13.96c0-.55.15-1,.77-1.41.62-.39,1.31-.64,2.22-.64h19.86l-.07-6.57h-22.01c-3.89,0-7.71.28-10.07,1.68-2.64,1.59-3,3.18-3,5.5v16.53c0,2.55.63,4.67,4.31,6.06,4.23,1.66,7.43,1.4,12.29,1.4h18.82v-6.78h-18.34c-1.39,0-2.57.2-3.61-.33Z"/>
      <path class="cls-9" d="M103.51,161.43c-4.52,0-7.78,1.8-9.09,4.26l-14.88,27.62h12.37l3.61-6.75h16.25l3.26,6.75h12.57l-15.21-28.01c-1.25-2.36-4.57-3.88-8.89-3.88ZM98.72,179.71l4.79-9.98,4.87,9.98h-9.66Z"/>
      <path class="cls-14" d="M141.5,163.62c-2.65,1.6-3.06,3.39-3.06,5.7v23.99h11.95v-12.53h23v-6.79h-22.86v-3.23c0-.55.21-1,.84-1.4.63-.39,1.25-.68,2.22-.68h19.87v-6.58l-22.08.04c-3.96,0-7.58.08-9.87,1.47Z"/>
      <path class="cls-16" d="M185.55,160.72c-2.46,0-4.55,1.84-4.55,4.61s1.88,4.61,4.55,4.61c2.4,0,4.5-1.84,4.5-4.61s-2.1-4.61-4.5-4.61ZM185.55,169.13c-2.21,0-3.57-1.71-3.57-3.8,0-2.24,1.56-3.81,3.57-3.81s3.52,1.56,3.52,3.81-1.56,3.8-3.52,3.8Z"/>
      <path class="cls-13" d="M187.58,164.32c0-1.02-.63-1.46-1.86-1.46h-1.94v5.11h.84v-2.18h.78l1.33,2.18h.94l-1.42-2.26c.76-.08,1.33-.46,1.33-1.39ZM184.63,165.07v-1.5h1c.51,0,1.11.09,1.11.69,0,.74-.55.81-1.18.81h-.93Z"/>
    </g>
  </g>
</svg>