<?xml version="1.0" encoding="UTF-8"?>
<svg id="Capa_2" data-name="Capa 2" xmlns="http://www.w3.org/2000/svg" viewBox="0 0 196.57 196.57">
  <defs>
    <style>
      .cls-1 {
        fill: #002e7a;
      }
    </style>
  </defs>
  <g id="Capa_2-2" data-name="Capa 2">
    <g>
      <path class="cls-1" d="M98.28,45.72c7.09,0,13.98,1.39,20.46,4.13,3.12,1.32,6.12,2.95,8.93,4.85,2.78,1.88,5.4,4.04,7.78,6.42,2.38,2.38,4.54,4.99,6.42,7.78,1.9,2.81,3.53,5.82,4.85,8.93,2.74,6.48,4.13,13.37,4.13,20.47s-1.39,13.98-4.13,20.46c-1.32,3.12-2.95,6.12-4.85,8.93-1.88,2.78-4.04,5.4-6.42,7.78-2.38,2.38-4.99,4.54-7.78,6.42-2.81,1.9-5.81,3.53-8.93,4.85-6.48,2.74-13.37,4.13-20.46,4.13s-13.98-1.39-20.46-4.13c-3.12-1.32-6.12-2.95-8.93-4.85-2.78-1.88-5.4-4.04-7.78-6.42-2.38-2.38-4.54-4.99-6.42-7.78-1.9-2.81-3.53-5.81-4.85-8.93-2.74-6.48-4.13-13.37-4.13-20.46s1.39-13.98,4.13-20.47c1.32-3.11,2.95-6.12,4.85-8.93,1.88-2.78,4.04-5.4,6.42-7.78,2.38-2.38,4.99-4.54,7.78-6.42,2.81-1.9,5.82-3.53,8.93-4.85,6.48-2.74,13.37-4.13,20.46-4.13M98.28,42.98c-7.46,0-14.7,1.46-21.53,4.35-3.28,1.39-6.44,3.1-9.4,5.1-2.93,1.98-5.68,4.25-8.18,6.75-2.51,2.51-4.78,5.26-6.75,8.18-2,2.96-3.71,6.12-5.1,9.39-2.89,6.82-4.35,14.07-4.35,21.53s1.46,14.71,4.35,21.53c1.38,3.28,3.1,6.44,5.1,9.4,1.98,2.93,4.25,5.68,6.75,8.18,2.5,2.5,5.25,4.77,8.18,6.75,2.95,2,6.12,3.71,9.4,5.1,6.83,2.89,14.07,4.35,21.53,4.35s14.71-1.46,21.53-4.35c3.28-1.39,6.44-3.11,9.4-5.1,2.92-1.97,5.68-4.25,8.18-6.75,2.5-2.5,4.77-5.25,6.75-8.18,2-2.96,3.71-6.12,5.1-9.4,2.89-6.82,4.35-14.06,4.35-21.53s-1.46-14.71-4.35-21.53c-1.39-3.28-3.1-6.44-5.1-9.4-1.97-2.92-4.24-5.68-6.75-8.18-2.5-2.5-5.25-4.77-8.18-6.75-2.96-2-6.12-3.71-9.4-5.1-6.82-2.89-14.07-4.35-21.53-4.35h0Z"/>
      <path class="cls-1" d="M140.41,106.43c0-.74.6-1.33,1.33-1.33h4.39c.09-.64.17-1.28.23-1.93h-11.51c-.74,0-1.33-.6-1.33-1.33s.6-1.33,1.33-1.33h11.7c.03-.64.05-1.28.05-1.93h-69.86c-.74,0-1.33-.6-1.33-1.33s.6-1.33,1.33-1.33h69.8c-.03-.65-.08-1.29-.13-1.93h-73.24c-.74,0-1.33-.6-1.33-1.33s.6-1.33,1.33-1.33h72.92c-.09-.65-.2-1.29-.32-1.93h-58.86c-.74,0-1.33-.6-1.33-1.33s.6-1.33,1.33-1.33h58.28c-.16-.65-.33-1.29-.52-1.93h-54.41c-.74,0-1.33-.6-1.33-1.33s.6-1.33,1.33-1.33h53.55c-.23-.65-.47-1.29-.73-1.93h-28.64c-.74,0-1.33-.6-1.33-1.33s.6-1.33,1.33-1.33h27.46c-.31-.65-.63-1.3-.97-1.93h-26.49c-.74,0-1.33-.6-1.33-1.33s.6-1.33,1.33-1.33h24.96c-.4-.65-.82-1.3-1.25-1.93h-16.97c-.74,0-1.33-.6-1.33-1.33s.6-1.33,1.33-1.33h15.01c-.52-.66-1.06-1.3-1.61-1.93h-23.76c-.74,0-1.33-.6-1.33-1.33s.6-1.33,1.33-1.33h21.23c-.68-.66-1.37-1.31-2.09-1.93h-15.52c-.74,0-1.33-.6-1.33-1.33s.6-1.33,1.33-1.33h12.17c-.93-.68-1.89-1.32-2.87-1.93h-9.3c-.74,0-1.33-.6-1.33-1.33s.6-1.33,1.33-1.33h4.4c-1.53-.72-3.11-1.37-4.73-1.93h-9.17c-.74,0-1.33-.6-1.33-1.33,0-.39.17-.74.44-.99-1.9-.23-3.84-.35-5.8-.35-10.59,0-20.39,3.41-28.36,9.19h1.44c.74,0,1.33.6,1.33,1.33s-.6,1.33-1.33,1.33h-4.8c-10.18,8.86-16.62,21.91-16.62,36.47,0,26.69,21.64,48.33,48.33,48.33,14.2,0,26.97-6.12,35.81-15.87-.7-.04-1.26-.62-1.26-1.33s.6-1.33,1.33-1.33h2.18c1.61-2.05,3.05-4.23,4.31-6.52h-12.48c-.74,0-1.33-.6-1.33-1.33s.6-1.33,1.33-1.33h13.84c.3-.63.58-1.27.86-1.92h-18.04c-.74,0-1.33-.6-1.33-1.33s.6-1.33,1.33-1.33h19.06c.23-.64.44-1.29.63-1.94h-37.07c-.74,0-1.33-.6-1.33-1.33s.6-1.33,1.33-1.33h37.79c.15-.64.3-1.28.42-1.93h-3.94c-.74,0-1.33-.6-1.33-1.33ZM104.19,80.19h-3.32c-.74,0-1.33-.6-1.33-1.33s.6-1.33,1.33-1.33h3.32c.74,0,1.33.6,1.33,1.33s-.6,1.33-1.33,1.33ZM104.31,75.6h-3.53c-.74,0-1.33-.6-1.33-1.33s.6-1.33,1.33-1.33h3.53c.74,0,1.33.6,1.33,1.33s-.6,1.33-1.33,1.33ZM100.63,54.55h7.06c.74,0,1.33.6,1.33,1.33s-.6,1.33-1.33,1.33h-7.06c-.74,0-1.33-.6-1.33-1.33s.6-1.33,1.33-1.33ZM100.63,59.15h7.06c.74,0,1.33.6,1.33,1.33s-.6,1.33-1.33,1.33h-7.06c-.74,0-1.33-.6-1.33-1.33s.6-1.33,1.33-1.33ZM94.07,63.74h10.03c.74,0,1.33.6,1.33,1.33s-.6,1.33-1.33,1.33h-10.03c-.74,0-1.33-.6-1.33-1.33s.6-1.33,1.33-1.33ZM94.07,68.34h13.7c.74,0,1.33.6,1.33,1.33s-.6,1.33-1.33,1.33h-13.7c-.74,0-1.33-.6-1.33-1.33s.6-1.33,1.33-1.33ZM93.49,77.53h.67c.74,0,1.33.6,1.33,1.33s-.6,1.33-1.33,1.33h-.67c-.74,0-1.33-.6-1.33-1.33s.6-1.33,1.33-1.33ZM131.7,123.51h.93c.72,0,1.3.58,1.3,1.3s-.58,1.3-1.3,1.3h-.93c-.72,0-1.3-.58-1.3-1.3s.58-1.3,1.3-1.3ZM121.44,124.81c0,.72-.58,1.3-1.3,1.3h-.76c-.72,0-1.31-.58-1.31-1.3s.58-1.3,1.31-1.3h.76c.72,0,1.3.58,1.3,1.3ZM118.27,121.55h-4.05c-.74,0-1.33-.6-1.33-1.33s.6-1.33,1.33-1.33h4.05c.74,0,1.33.6,1.33,1.33s-.6,1.33-1.33,1.33ZM110.98,114.3h7.18c.74,0,1.33.6,1.33,1.33s-.6,1.33-1.33,1.33h-7.18c-.74,0-1.33-.6-1.33-1.33s.6-1.33,1.33-1.33ZM81.84,84.79h-11.67c-.74,0-1.33-.6-1.33-1.33s.6-1.33,1.33-1.33h11.67c.74,0,1.33.6,1.33,1.33s-.6,1.33-1.33,1.33ZM78.51,63.74h1.55c.74,0,1.33.6,1.33,1.33s-.6,1.33-1.33,1.33h-1.55c-.74,0-1.33-.6-1.33-1.33s.6-1.33,1.33-1.33ZM77.3,68.34h4.93c.74,0,1.33.6,1.33,1.33s-.6,1.33-1.33,1.33h-4.93c-.74,0-1.33-.6-1.33-1.33s.6-1.33,1.33-1.33ZM81.52,74.27c0,.74-.6,1.33-1.33,1.33h-2.47c-.74,0-1.33-.6-1.33-1.33s.6-1.33,1.33-1.33h2.47c.74,0,1.33.6,1.33,1.33ZM74.52,77.53h8.69c.74,0,1.35.6,1.35,1.33s-.6,1.33-1.35,1.33h-8.69c-.74,0-1.35-.6-1.35-1.33s.6-1.33,1.35-1.33ZM71.25,72.93h.69c.74,0,1.33.6,1.33,1.33s-.6,1.33-1.33,1.33h-.69c-.74,0-1.33-.6-1.33-1.33s.6-1.33,1.33-1.33ZM67.19,77.53h1.94c.74,0,1.33.6,1.33,1.33s-.6,1.33-1.33,1.33h-1.94c-.74,0-1.33-.6-1.33-1.33s.6-1.33,1.33-1.33ZM62.67,100.5h3.85c.74,0,1.33.6,1.33,1.33s-.6,1.33-1.33,1.33h-3.85c-.74,0-1.33-.6-1.33-1.33s.6-1.33,1.33-1.33ZM63.68,126.12h-.5c-.72,0-1.3-.58-1.3-1.3s.58-1.3,1.3-1.3h.5c.72,0,1.3.58,1.3,1.3s-.58,1.3-1.3,1.3ZM73.66,121.55h-10.45c-.74,0-1.33-.6-1.33-1.33s.6-1.33,1.33-1.33h10.45c.74,0,1.33.6,1.33,1.33s-.6,1.33-1.33,1.33ZM73.76,116.95h-14.33c-.74,0-1.33-.6-1.33-1.33s.6-1.33,1.33-1.33h14.33c.74,0,1.33.6,1.33,1.33s-.6,1.33-1.33,1.33ZM80.31,112.36h-20.94c-.74,0-1.33-.6-1.33-1.33s.6-1.33,1.33-1.33h20.94c.74,0,1.33.6,1.33,1.33s-.6,1.33-1.33,1.33ZM90.38,121.55h-.43c-.74,0-1.33-.6-1.33-1.33s.6-1.33,1.33-1.33h.43c.74,0,1.33.6,1.33,1.33s-.6,1.33-1.33,1.33ZM90.38,116.96h-.5c-.74,0-1.33-.6-1.33-1.33s.6-1.33,1.33-1.33h.5c.74,0,1.33.6,1.33,1.33s-.6,1.33-1.33,1.33ZM92.3,111.03c0-.74.6-1.33,1.33-1.33h3.68c.74,0,1.33.6,1.33,1.33s-.6,1.33-1.33,1.33h-3.68c-.74,0-1.33-.6-1.33-1.33ZM95.99,115.63c0-.74.6-1.33,1.33-1.33h3.61c.74,0,1.33.6,1.33,1.33s-.6,1.33-1.33,1.33h-3.61c-.74,0-1.33-.6-1.33-1.33ZM100.89,135.38h-.54c-.76,0-1.38-.62-1.38-1.38s.62-1.38,1.38-1.38h.54c.76,0,1.38.62,1.38,1.38s-.62,1.38-1.38,1.38ZM100.96,130.74h-1.63c-.72,0-1.3-.58-1.3-1.3s.58-1.31,1.3-1.31h1.63c.72,0,1.31.58,1.31,1.31s-.58,1.3-1.31,1.3ZM104.23,126.12h-1.63c-.72,0-1.3-.58-1.3-1.3s.58-1.3,1.3-1.3h1.63c.72,0,1.3.58,1.3,1.3s-.58,1.3-1.3,1.3ZM107.02,120.22c0,.74-.6,1.33-1.33,1.33h-3.8c-.74,0-1.33-.6-1.33-1.33s.6-1.33,1.33-1.33h3.8c.74,0,1.33.6,1.33,1.33ZM121.36,107.76h-62.09c-.74,0-1.33-.6-1.33-1.33s.6-1.33,1.33-1.33h62.09c.74,0,1.33.6,1.33,1.33s-.6,1.33-1.33,1.33ZM128.54,103.17h-51.79c-.74,0-1.33-.6-1.33-1.33s.6-1.33,1.33-1.33h51.79c.74,0,1.33.6,1.33,1.33s-.6,1.33-1.33,1.33ZM131.68,107.76h-.47c-.74,0-1.33-.6-1.33-1.33s.6-1.33,1.33-1.33h.47c.74,0,1.33.6,1.33,1.33s-.6,1.33-1.33,1.33Z"/>
      <g>
        <path class="cls-1" d="M141.91,56.76l6.44-22.42c.25-.81.33-1.62-.69-2.43l-.89-.66c-1.05-.78-1.81-.49-2.53-.02l-19.51,12.7,4.12,2.3,14.08-9.14-2.2,7.71-1.85-1.43-3.72,2.42,4.3,3.3-1.24,4.33,3.68,3.34Z"/>
        <path class="cls-1" d="M61.22,46.77c-1.19.95-2.64,1.47-3.95,1.31-1.59-.18-2.59-.83-4.13-2.7l-7.76-9.54-3.45,2.78,8.5,10.44c1.8,2.2,3.82,3.36,6.16,3.57,2.69.25,5.07-.55,7.43-2.45,2.34-1.93,3.59-4.1,3.91-6.74.25-2.38-.46-4.59-2.23-6.78l-8.51-10.45-3.46,2.81,7.79,9.55c1.53,1.86,1.97,3,1.81,4.59-.11,1.31-.89,2.62-2.11,3.61Z"/>
        <path class="cls-1" d="M117.3,22.14l8,2.1,1.05-4.04-8.26-2.17c-3.82-.99-7.37-.07-8.62,4.67l-3.66,13.96c-.26.98.27,1.77,1.21,2.03l2.71.69,2.34-9.03,9.95,2.62,1.05-3.99-9.95-2.61.54-2.08c.59-2.33,1.54-2.66,3.63-2.15Z"/>
        <path class="cls-1" d="M89.93,15.65l-13.72,2.79c-.96.2-1.53.93-1.32,1.97l2.9,14.13c.96,4.83,4.48,5.92,8.35,5.12l8.35-1.71-.83-4.09-8.12,1.64c-2.06.42-3.03.03-3.48-2.32l-.45-2.1,10.08-2.07-.8-4.02-10.09,2.03-1.04-5,11.04-2.26-.86-4.09Z"/>
      </g>
      <path class="cls-1" d="M98.28,8.49c49.59,0,89.8,40.2,89.8,89.8s-40.2,89.8-89.8,89.8S8.49,147.88,8.49,98.28,48.69,8.49,98.28,8.49M98.28,0c-6.66,0-13.32.67-19.8,2-6.31,1.29-12.53,3.22-18.46,5.73-5.83,2.46-11.44,5.51-16.7,9.06-5.2,3.51-10.09,7.55-14.54,12-4.45,4.44-8.48,9.34-12,14.54-3.55,5.25-6.6,10.87-9.06,16.7-2.51,5.94-4.44,12.15-5.73,18.46-1.33,6.47-2,13.14-2,19.8s.67,13.33,2,19.8c1.29,6.31,3.22,12.53,5.73,18.46,2.46,5.83,5.51,11.44,9.06,16.7,3.52,5.2,7.55,10.09,12,14.54,4.45,4.45,9.34,8.48,14.54,12,5.26,3.55,10.87,6.6,16.7,9.06,5.94,2.51,12.15,4.44,18.46,5.73,6.47,1.33,13.14,2,19.8,2s13.32-.67,19.8-2c6.32-1.29,12.53-3.22,18.46-5.73,5.82-2.46,11.44-5.51,16.7-9.06,5.2-3.51,10.09-7.55,14.54-12,4.45-4.44,8.48-9.34,12-14.54,3.55-5.25,6.6-10.87,9.06-16.7,2.51-5.93,4.44-12.15,5.73-18.46,1.32-6.47,2-13.14,2-19.8s-.67-13.32-2-19.8c-1.29-6.31-3.22-12.53-5.73-18.46-2.46-5.83-5.51-11.44-9.06-16.7-3.51-5.2-7.55-10.1-12-14.54-4.45-4.45-9.34-8.48-14.54-12-5.25-3.55-10.87-6.6-16.7-9.06-5.94-2.51-12.15-4.44-18.46-5.73-6.47-1.33-13.14-2-19.8-2h0Z"/>
    </g>
  </g>
</svg>