<?xml version="1.0" encoding="UTF-8"?>
<svg id="Capa_2" data-name="Capa 2" xmlns="http://www.w3.org/2000/svg" viewBox="0 0 203.68 181.4">
  <defs>
    <style>
      .cls-1 {
        fill: #004c90;
      }
    </style>
  </defs>
  <g id="Capa_2-2" data-name="Capa 2">
    <g>
      <g>
        <g>
          <path class="cls-1" d="M23.7,181.4c-1.01,0-2.04-.15-3.08-.43-1.06-.29-2.03-.8-2.88-1.52-.85-.71-1.56-1.66-2.1-2.83-.55-1.17-.82-2.65-.82-4.41v-17.33c0-1.26.21-2.46.64-3.55.42-1.09,1.03-2.05,1.81-2.85.77-.8,1.71-1.44,2.79-1.89,2.09-.89,4.83-.94,7,0,1.06.45,1.98,1.1,2.76,1.92.78.82,1.39,1.81,1.83,2.96.44,1.14.66,2.39.66,3.73v2.01c0,.27-.21.48-.47.48h-4.99c-.26,0-.47-.22-.47-.48v-1.69c0-.97-.25-1.77-.78-2.47-.5-.67-1.16-.99-2.02-.99-1.13,0-1.86.33-2.21,1.02-.39.76-.59,1.74-.59,2.92v15.86c0,1,.21,1.84.62,2.5.38.62,1.08.92,2.13.92.29,0,.62-.06.97-.17.34-.11.65-.28.93-.52.27-.24.5-.58.68-1,.18-.44.27-1,.27-1.67v-1.74c0-.27.21-.49.47-.49h4.99c.26,0,.47.22.47.49v2.21c0,1.2-.22,2.36-.66,3.45-.44,1.09-1.06,2.05-1.83,2.87-.77.82-1.69,1.48-2.72,1.97-1.04.49-2.18.74-3.38.74"/>
          <path class="cls-1" d="M44.92,181.4c-1.09,0-2.18-.2-3.24-.6-1.07-.4-2.05-1-2.91-1.78-.86-.78-1.57-1.78-2.09-2.95-.53-1.18-.79-2.58-.79-4.17v-16.49c0-1.55.27-2.95.8-4.14.52-1.2,1.23-2.2,2.1-2.99.86-.78,1.84-1.38,2.91-1.77,2.13-.8,4.35-.8,6.49,0,1.07.4,2.05,1,2.91,1.77.86.79,1.57,1.79,2.1,2.98.52,1.2.79,2.59.79,4.14v16.49c0,1.58-.27,2.99-.8,4.17-.53,1.18-1.23,2.17-2.09,2.95-.86.78-1.84,1.38-2.91,1.78-1.07.39-2.16.6-3.25.6M44.92,152.05c-.86,0-1.58.27-2.2.82-.61.53-.9,1.36-.9,2.54v16.49c0,1.16.3,2.02.9,2.54.62.55,1.35.82,2.2.82s1.58-.27,2.2-.82c.6-.53.91-1.38.91-2.54v-16.49c0-1.16-.3-2.02-.9-2.54-.62-.55-1.35-.82-2.2-.82"/>
          <path class="cls-1" d="M75.93,181.08h-4.72c-.2,0-.38-.13-.44-.32l-6.62-17.17c-.12-.34-.61-.25-.61.11v16.9c0,.27-.21.49-.47.48h-5c-.26,0-.47-.22-.47-.48v-33.89c0-.27.21-.49.47-.49h4.82c.2,0,.37.13.44.32l6.52,17.17c.12.34.61.25.61-.11v-16.89c0-.27.21-.49.47-.49h4.99c.26,0,.47.22.47.49v33.88c0,.27-.21.49-.47.49"/>
          <path class="cls-1" d="M104.5,181.09h-4.99c-.26,0-.47-.22-.47-.49v-16.78c0-.37-.5-.45-.61-.1l-3.87,12.09c-.04.13-.16.22-.3.22h-2.69c-.14,0-.26-.09-.3-.23l-3.81-12.05c-.11-.35-.61-.27-.61.1v16.75c0,.27-.21.49-.47.49h-5c-.26,0-.47-.22-.47-.49v-33.88c0-.27.21-.49.47-.49h4.82c.2,0,.37.13.44.32l6,16.25c.1.29.5.29.59,0l5.95-16.25c.07-.2.24-.33.45-.33h4.87c.26,0,.47.22.47.49v33.88c0,.27-.21.49-.47.49"/>
          <path class="cls-1" d="M125.17,181.09h-15.22c-.26,0-.47-.22-.47-.49v-33.88c0-.27.21-.49.47-.49h15.22c.26,0,.47.22.47.49v4.85c0,.27-.21.49-.47.49h-9.44c-.17,0-.32.14-.32.32v7.89c0,.18.14.32.32.32h8.12c.26,0,.47.22.47.49v4.85c0,.26-.21.48-.47.48h-8.12c-.17,0-.32.15-.32.32v7.9c0,.18.14.32.32.32h9.44c.26,0,.47.22.47.49v5.16c0,.27-.21.49-.47.49"/>
          <path class="cls-1" d="M136.37,181.09h-6.95c-.26,0-.47-.21-.47-.48v-33.91c0-.26.21-.47.47-.47h7.46c1.7,0,3.17.28,4.38.81,1.21.55,2.22,1.28,2.99,2.2,1.39,1.62,2.07,3.74,2.24,5.86.26,3.19-.42,6.39-3.13,8.32-.03.02-.06.04-.09.06.99.62,1.74,1.45,2.26,2.49,1.04,2.11,1.05,4.54.76,6.83-.26,2.01-.92,4.01-2.27,5.54-1.6,1.82-4.18,2.75-7.65,2.75M134.88,174.63c0,.18.14.32.31.32h1.53c.98,0,1.74-.14,2.28-.43,2.42-1.29,2.51-5.62.67-7.4-.12-.11-.24-.21-.37-.31-1.17-.84-2.74-.6-4.1-.6-.17,0-.31.15-.31.32v8.1ZM134.88,160.39c0,.18.14.32.31.32h1.63c1.58,0,2.64-.39,3.15-1.16,1.15-1.73,1.23-4.72-.08-6.39-.58-.74-1.68-1.11-3.27-1.11h-1.43c-.17,0-.31.14-.31.32v8.01Z"/>
          <path class="cls-1" d="M158.87,181.4c-1.09,0-2.18-.2-3.25-.6-1.07-.4-2.05-1-2.91-1.78-.86-.78-1.57-1.78-2.09-2.95-.53-1.18-.8-2.58-.79-4.17v-16.49c0-1.55.27-2.95.79-4.14.53-1.2,1.23-2.2,2.1-2.99.86-.78,1.84-1.38,2.91-1.77,2.13-.8,4.35-.8,6.49,0,1.07.4,2.05,1,2.91,1.77.86.78,1.57,1.79,2.09,2.98.53,1.2.8,2.59.79,4.14v16.49c0,1.59-.27,2.99-.8,4.17-.53,1.18-1.23,2.17-2.09,2.95-.86.78-1.84,1.38-2.91,1.78-1.07.4-2.16.6-3.24.6M158.87,152.05c-.86,0-1.58.27-2.2.82-.61.53-.91,1.36-.91,2.54v16.49c0,1.16.3,2.02.9,2.55.62.55,1.35.82,2.2.82s1.58-.27,2.2-.82c.6-.53.91-1.38.91-2.55v-16.49c0-1.16-.31-2.02-.9-2.54-.62-.55-1.35-.82-2.2-.82"/>
          <path class="cls-1" d="M188.1,181.09h-15.22c-.26,0-.47-.22-.47-.49v-33.88c0-.27.21-.49.47-.49h5c.26,0,.47.22.47.49v27.91c0,.18.14.32.31.32h9.44c.26,0,.47.22.47.49v5.16c0,.27-.21.49-.47.49"/>
        </g>
        <path class="cls-1" d="M203.68,165.68v-4.04c0-.58-.47-1.05-1.05-1.05h-9.21c-.58,0-1.05.47-1.05,1.05v4.04c0,.58.47,1.05,1.05,1.05h9.21c.58,0,1.05-.47,1.05-1.05"/>
        <path class="cls-1" d="M11.3,165.68v-4.04c0-.58-.47-1.05-1.05-1.05H1.05c-.58,0-1.05.47-1.05,1.05v4.04c0,.58.47,1.05,1.05,1.05h9.21c.58,0,1.05-.47,1.05-1.05"/>
      </g>
      <g>
        <path class="cls-1" d="M99.79,121.22l-11.31,8.54c4.11.86,8.38,1.33,12.75,1.37h1.23c4.37-.04,8.63-.51,12.76-1.37l-11.33-8.54c-.61-.45-1.33-.68-2.05-.68s-1.44.23-2.05.68M50.84,106.75c6.05,7.49,13.73,13.64,22.5,17.88l15.1-11.46c-9.46-7.16-17.45-16.2-23.45-26.62-1.22-2.11-2.32-4.28-3.35-6.48l-10.8,26.68ZM138.7,86.54c-6,10.42-14,19.46-23.45,26.62l15.1,11.46c8.77-4.23,16.44-10.38,22.51-17.88l-10.8-26.69c-1.05,2.2-2.14,4.37-3.35,6.48M36.28,65.35c-.04,10.53,2.42,20.47,6.8,29.3l.19.1,8.49-19.14c.44-.98.03-2.14-.92-2.64l-14.56-7.63h0ZM152.85,72.98c-.95.5-1.36,1.66-.92,2.64l3.78,8.52,4.71,10.62.19-.1c4.38-8.82,6.84-18.77,6.8-29.3h0s-14.56,7.63-14.56,7.63ZM37.91,51.05l18.09,13.68c-2.01-7.56-3.05-15.4-3.05-23.3,0-2,.08-4.1.22-6.25.06-.94.2-1.93.29-2.9l-7.91-.37c-3.51,5.85-6.11,12.29-7.66,19.13M150.2,32.29c.1.97.24,1.94.3,2.9.15,2.14.22,4.25.22,6.25,0,7.9-1.04,15.74-3.05,23.31l18.09-13.68c-1.55-6.85-4.15-13.28-7.65-19.13l-7.92.37ZM54.03,20.71l11.88-1.43c3.2-1.3,6.5-2.42,9.89-3.36l2.45-11.54c-9.28,3.58-17.54,9.2-24.23,16.33M127.87,15.92c3.4.94,6.69,2.06,9.89,3.36l11.89,1.43c-6.69-7.12-14.95-12.75-24.23-16.33l2.45,11.54ZM91.44.82l-4.95,12.81c10.11-1.56,20.6-1.56,30.7,0l-4.94-12.81c-3.39-.53-6.87-.82-10.41-.82s-7.02.29-10.4.82"/>
        <g>
          <path class="cls-1" d="M128.76,78.7c-.32,0-.53.08-.74.23,0,.05,0,.11,0,.16,0,.58.32.88.74.88.4,0,.69-.2.69-.65s-.31-.62-.68-.62Z"/>
          <path class="cls-1" d="M143.44,37.05c-.13-1.85-.32-3.74-.57-5.59h0c-.13-.97-.7-1.81-1.54-2.25-5.8-3.09-12.12-5.46-18.8-7.06-6.68-1.59-13.64-2.41-20.68-2.41s-14,.81-20.68,2.41c-6.67,1.6-12.99,3.97-18.78,7.05-.85.45-1.44,1.3-1.56,2.26-.25,1.9-.45,3.78-.57,5.59-.13,1.93-.2,3.81-.2,5.62,0,14.26,3.74,28.28,10.81,40.56,7.11,12.34,17.34,22.56,29.58,29.55.89.5,1.95.5,2.83,0,12.23-6.99,22.46-17.21,29.57-29.55,7.08-12.28,10.81-26.3,10.81-40.56,0-1.8-.07-3.68-.2-5.62ZM117.34,37.6l1.38-.94c.13-.09.3-.12.46-.08,2.64.62,5.19,1.53,7.6,2.69.15.08.27.22.31.38l.38,1.53c.04.12-.01.24-.11.32-.07.04-.13.07-.2.07h0s-.1,0-.15-.04c-2.98-1.57-6.2-2.7-9.55-3.37h0c-.12-.03-.22-.12-.25-.25-.03-.12.03-.24.13-.32ZM89.52,27.53l1.69.61c.13.04.21.15.21.29s-.08.24-.2.3c-4.25,1.73-8.19,4.02-11.74,6.82-.06.05-.13.08-.21.08-.08,0-.16-.03-.22-.08l-.99-.78c-.08-.07-.13-.16-.13-.27s.04-.2.13-.27c3.35-2.67,7.06-4.92,11.02-6.67.14-.06.29-.07.44-.02ZM76.89,31.1c1.21-.92,2.49-1.81,3.8-2.64.15-.09.33-.12.5-.05l1.48.49c.13.04.2.14.22.26.01.12-.04.24-.16.3-1.85,1.12-3.64,2.34-5.31,3.66-.06.05-.12.07-.19.07h0s-.07,0-.11-.02c-.11-.04-.18-.12-.21-.24l-.24-1.27c-.04-.22.04-.43.22-.57ZM76.59,39.79c5.29-5.24,11.94-9.2,19.25-11.43.2-.07.45,0,.61.16l.83.94c.07.08.1.19.07.29-.03.11-.11.18-.21.21-7.67,2.21-14.56,6.34-19.93,11.94-.05.06-.14.1-.26.1h-.06s0-.01,0-.01c-.12-.03-.2-.13-.22-.25l-.24-1.45c-.04-.19.03-.37.16-.51ZM76.51,47.51h0s-.06,0-.08,0c-.13-.03-.22-.13-.24-.26l-.26-1.62c-.03-.16.02-.33.12-.45,2.94-3.63,6.51-6.74,10.59-9.25,4.28-2.64,8.97-4.5,13.94-5.58.18-.04.37.01.51.14l1.1.98c.09.08.13.2.09.32-.04.12-.12.2-.24.22-5.15.98-9.99,2.84-14.38,5.54-4.29,2.64-7.96,5.95-10.91,9.84-.06.08-.15.13-.25.13ZM79.19,49.27h0s-.09,0-.14-.03l-1.16-.44c-.09-.04-.17-.12-.21-.23-.03-.1,0-.21.05-.3,3.46-4.64,8.09-8.54,13.39-11.27,2.73-1.41,5.65-2.51,8.66-3.28,2.71-.69,5.53-1.11,8.36-1.25.21-.02.42.09.52.27l.68,1.08c.07.11.07.24.02.35-.06.11-.17.18-.3.18-2.98.08-5.94.5-8.8,1.23-2.86.73-5.64,1.78-8.25,3.12-4.92,2.54-9.24,6.13-12.5,10.41-.08.11-.19.16-.32.16ZM81.34,51.86h-.04c-.13,0-.23-.08-.29-.19l-.55-1.14c-.08-.19-.07-.42.06-.59,3.19-4.24,7.44-7.79,12.3-10.27,4.86-2.48,10.36-3.89,15.91-4.1h.02c.23,0,.44.13.53.34l.47,1.07c.05.11.04.22-.02.32-.06.09-.17.16-.29.16-11.23.23-21.64,5.55-27.85,14.25-.06.09-.16.14-.27.14ZM88.58,58.37h-1.31c-.13,0-.24-.07-.3-.18-.06-.1-.06-.23,0-.34,2.13-3.76,5.3-6.95,9.16-9.23,4.06-2.39,8.77-3.69,13.6-3.76.12,0,.24,0,.36,0,5.62,0,11.17,1.71,15.65,4.85.16.1.25.28.25.46l.04,1.49c0,.12-.07.24-.18.29-.11.05-.24.04-.33-.03-4.33-3.33-9.79-5.14-15.41-5.14h-.34c-4.49.05-8.86,1.27-12.63,3.49-3.32,1.95-6.11,4.66-8.05,7.82-.1.16-.29.27-.49.28ZM91.58,59.9h0c-.06,0-.12-.01-.17-.04l-1.06-.63c-.08-.04-.14-.12-.16-.21-.03-.09-.01-.18.04-.26,1.91-3.15,4.68-5.8,7.99-7.68,3.47-1.97,7.46-3.04,11.53-3.1h.33c5.89,0,11.46,2.08,15.71,5.88.12.1.19.25.19.41l.04,1.72c0,.12-.08.24-.2.29-.12.04-.26.02-.35-.07-3.95-4.03-9.55-6.32-15.41-6.32h-.29c-3.75.05-7.43,1.03-10.6,2.84-3.03,1.72-5.56,4.14-7.29,7.01-.07.09-.17.16-.3.16ZM94.74,79.98l.34-1.53c.03-.12.12-.21.24-.24.12-.02.25.02.33.13,2.86,3.85,6.66,7.2,10.98,9.7.16.09.22.31.13.47l-.62,1.06c-.05.08-.12.14-.21.16-.02,0-.06.01-.08.01-.07,0-.13-.01-.18-.05-4.16-2.4-7.89-5.59-10.81-9.23-.11-.14-.15-.32-.11-.48ZM96.17,86.37l-.07-1.75c0-.13.08-.25.2-.3.13-.05.26-.02.35.07,3.2,3.22,6.95,5.88,11.15,7.91.12.06.2.18.2.31v1.4c0,.11-.05.21-.15.27-.05.03-.11.05-.16.05h0s-.1,0-.14-.03c-4.16-1.93-7.93-4.47-11.19-7.52-.12-.11-.18-.25-.18-.41ZM106.64,95.53l-.04,1.35c0,.11-.06.22-.16.28-.05.03-.12.05-.18.05-.05,0-.1,0-.15-.03-2.45-1.15-4.8-2.5-6.99-4.04-.16-.11-.25-.32-.21-.51l.22-1.24c.02-.11.1-.2.21-.25.11-.05.23-.03.33.04,2.11,1.52,4.39,2.89,6.77,4.04.13.05.2.18.2.32ZM99.24,97.07c-.16-.1-.25-.27-.26-.46l-.08-1.45c0-.12.06-.24.16-.29.11-.06.23-.06.33,0,2.86,1.89,5.93,3.5,9.16,4.76.08.03.13.08.17.15l1.01,1.74c.06.11.05.25-.03.36-.06.07-.15.11-.24.11h-.04s-.04,0-.07-.02c-3.55-1.26-6.95-2.92-10.11-4.91ZM102.29,74.3c-1.13-1.46-1.75-3.19-1.77-5.01-.03-2.33.91-4.54,2.67-6.22,1.75-1.68,4.08-2.62,6.58-2.65.04,0,.09,0,.13,0,1.55,0,3.1.37,4.46,1.06.66.33,1.28.76,1.85,1.3l2.51,2.32c.12.1.17.25.17.4l-.06,1.6c0,.13-.08.23-.2.28-.12.05-.25.03-.34-.06l-3.41-3.14c-.44-.41-.91-.74-1.41-1-1.1-.55-2.33-.84-3.58-.84h-.11c-1.98.03-3.84.77-5.23,2.08-1.38,1.31-2.14,3.03-2.11,4.86.02,1.39.49,2.73,1.36,3.86,1.82,2.31,4.05,4.31,6.65,5.94.09.06.15.17.14.29,0,.12-.08.22-.18.27l-1.38.62s-.09.03-.14.03h0c-.06,0-.13-.02-.19-.05-2.47-1.66-4.63-3.65-6.41-5.92ZM107.48,81.24l-.35,1.25c-.03.11-.12.2-.22.24-.03,0-.07.02-.12.02h0c-.07,0-.14-.02-.19-.06-2.72-1.86-5.07-4.08-7.02-6.61-1.51-1.97-2.33-4.31-2.37-6.75-.04-3.18,1.25-6.18,3.64-8.45,2.37-2.26,5.54-3.52,8.92-3.57h.18c3.49,0,6.86,1.35,9.25,3.72.13.13.16.33.06.49l-.64,1.05c-.06.09-.15.15-.26.16-.1,0-.21-.03-.28-.11-2.05-2.17-5-3.41-8.12-3.41h-.16c-2.87.04-5.57,1.11-7.58,3.02-2.01,1.91-3.1,4.41-3.06,7.06.03,2.03.71,3.96,1.97,5.61,1.74,2.25,3.83,4.25,6.23,5.95.12.08.17.24.13.37ZM111.36,104.6l-1.6.75c-.08.04-.17.06-.26.07h-.01c-.07,0-.13-.01-.2-.04-2.47-.83-4.88-1.84-7.18-3-.15-.07-.26-.2-.32-.37l-.56-1.64c-.04-.12,0-.26.1-.34.09-.09.24-.1.35-.04,3.04,1.64,6.29,2.99,9.63,4.02.13.04.22.15.23.28,0,.12-.06.25-.18.3ZM114.97,70.54l-.42,1.27c-.04.11-.13.19-.24.22-.12.03-.24,0-.32-.07l-3.69-3.21c-.12-.08-.29-.14-.45-.14h-.01c-.38,0-.69.27-.68.59,0,.1.11.3.21.41.02.03,2.58,2.46,4.23,3.8.08.07.13.18.12.29,0,.11-.07.21-.16.27l-1.14.67c-.06.03-.11.04-.17.04-.09,0-.16-.02-.23-.08-1.57-1.32-3.6-3.25-4-3.62-.37-.37-.8-1.04-.8-1.76-.02-1.38,1.15-2.51,2.59-2.53h.04c.6,0,1.19.2,1.65.56l.04.04,3.32,2.89c.1.09.14.24.1.37ZM117.37,68.64l-.99.77c-.13.1-.32.09-.45-.02l-3.15-2.8c-.8-.72-1.81-1.12-2.84-1.13h-.13c-1.1.01-2.12.42-2.88,1.14-.77.72-1.18,1.66-1.17,2.65,0,.78.28,1.53.79,2.16,1.61,1.98,3.58,3.7,5.84,5.09.08.04.13.12.15.2l.47,1.74c.04.13,0,.25-.11.33-.06.04-.12.07-.19.07-.06,0-.12-.02-.16-.04-2.96-1.61-5.48-3.7-7.51-6.19-.78-.97-1.2-2.12-1.22-3.33-.02-1.51.59-2.94,1.71-4.02,1.13-1.09,2.63-1.69,4.24-1.71h.18c1.5.02,2.95.6,4.1,1.62l3.32,2.95c.08.07.12.17.12.26,0,.11-.06.2-.14.27ZM119.72,80.71c-.16.02-.33.04-.5.04s-.33-.02-.5-.04v-3.29l-.83.34c-.17-.18-.35-.51-.36-.86l1.38-.62c.13-.03.26-.04.41-.04.13,0,.28.01.4.04v4.43ZM120.04,60.01c-2.65-2.48-6.3-3.89-10.07-3.89-.07,0-.13,0-.2,0-3.78.05-7.32,1.46-9.96,3.97-2.62,2.49-4.04,5.78-3.99,9.25.03,2.66.93,5.2,2.6,7.37,2.59,3.41,5.85,6.27,9.71,8.5.1.05.16.15.17.25.01.11-.02.21-.09.29l-.91.9c-.07.06-.16.09-.25.09-.07,0-.13-.01-.18-.04-3.96-2.33-7.31-5.3-9.99-8.82-1.92-2.49-2.95-5.43-2.99-8.51-.06-4,1.57-7.79,4.58-10.66,2.99-2.85,7-4.45,11.27-4.5.07,0,.15,0,.22,0,4.4,0,8.63,1.7,11.66,4.68.08.07.11.18.1.29-.01.1-.08.2-.17.25l-1.11.64c-.12.08-.3.06-.41-.05ZM121,80.84c-.1-.16-.14-.37-.14-.57,0-.11,0-.2.03-.3,1.04-.02,1.68-.09,1.85-1.01-.23.2-.47.29-.84.29-.9,0-1.5-.51-1.5-1.47s.7-1.58,1.64-1.58c1.17,0,1.73.87,1.73,2.17,0,1.79-.98,2.48-2.77,2.47ZM123.66,59.07c-1.6-1.85-3.66-3.37-5.95-4.41-2.4-1.1-4.99-1.65-7.68-1.65h-.27c-3.75.05-7.32,1.18-10.3,3.28-2.77,1.93-4.83,4.55-5.97,7.55-.05.12-.16.2-.29.2h-.03c-.14,0-.25-.11-.28-.24l-.45-1.98c-.04-.16-.01-.33.05-.47.49-.93,1.06-1.83,1.7-2.67,1.15-1.51,2.55-2.85,4.15-3.96,3.31-2.32,7.25-3.57,11.41-3.63h.28c2.97,0,5.83.61,8.48,1.82,2.45,1.11,4.66,2.74,6.42,4.7.11.12.12.31.02.44l-.75,1.01c-.06.08-.16.13-.27.13s-.21-.04-.27-.12ZM126.27,80.71c-.16.02-.33.04-.5.04s-.33-.02-.5-.04v-3.29l-.83.34c-.17-.18-.35-.51-.36-.86l1.38-.62c.13-.03.26-.04.41-.04.13,0,.28.01.4.04v4.43ZM126.73,47.05l-.96.85c-.11.1-.28.11-.41.04-4.51-2.79-9.76-4.26-15.21-4.26h-.39c-5.04.07-9.96,1.4-14.21,3.87-4.04,2.34-7.37,5.62-9.64,9.5-.06.1-.16.17-.28.17h0c-.13,0-.23-.05-.29-.14l-.74-.96c-.13-.16-.14-.4-.03-.58,2.42-3.92,5.89-7.26,10.01-9.64,4.54-2.63,9.78-4.06,15.15-4.12.14,0,.28,0,.42,0,5.94,0,11.66,1.63,16.55,4.74.09.06.15.15.16.26.01.11-.03.21-.12.29ZM110.19,40.56c-.15,0-.3,0-.45,0-5.41.07-10.72,1.46-15.34,4-4.4,2.43-8.12,5.86-10.76,9.93-.06.09-.16.15-.26.16h-.03c-.1,0-.19-.04-.26-.12l-.76-.87c-.15-.17-.16-.44-.04-.63,2.79-4.15,6.65-7.66,11.17-10.15,4.9-2.7,10.52-4.16,16.25-4.24.16,0,.32,0,.47,0,6.18,0,12.19,1.6,17.4,4.65.14.08.2.24.17.4l-.36,1.23c-.03.1-.1.19-.2.23-.09.04-.2.02-.31-.03-4.98-2.98-10.75-4.56-16.7-4.56ZM128.73,80.83c-1.13,0-1.7-.71-1.7-1.79,0-1.72,1.28-2.72,2.66-2.94.18.16.27.55.28.91-.72.11-1.47.35-1.79,1.14.23-.16.48-.26.85-.26.82,0,1.37.49,1.37,1.37,0,.99-.71,1.57-1.66,1.57Z"/>
          <path class="cls-1" d="M122.03,77.1c-.37,0-.66.24-.66.64,0,.44.29.65.66.65.28,0,.52-.06.75-.19-.04-.69-.3-1.1-.75-1.1Z"/>
        </g>
      </g>
    </g>
  </g>
</svg>