<?xml version="1.0" encoding="UTF-8"?>
<svg id="Capa_2" data-name="Capa 2" xmlns="http://www.w3.org/2000/svg" viewBox="0 0 197.6 168.01">
  <defs>
    <style>
      .cls-1 {
        fill: #d5ba81;
      }

      .cls-2 {
        fill: #0c000b;
      }
    </style>
  </defs>
  <g id="Capa_2-2" data-name="Capa 2">
    <g>
      <g>
        <polygon class="cls-1" points="98.56 23.78 95.81 11.89 98.56 0 101.3 11.89 98.56 23.78"/>
        <polygon class="cls-1" points="92.64 24.24 88.06 12.93 88.9 .76 93.48 12.07 92.64 24.24"/>
        <polygon class="cls-1" points="87.03 25.59 80.75 15.13 79.7 2.97 85.98 13.43 87.03 25.59"/>
        <polygon class="cls-1" points="81.79 27.74 73.99 18.36 71.09 6.51 78.89 15.89 81.79 27.74"/>
        <polygon class="cls-1" points="76.98 30.64 67.86 22.54 63.21 11.26 72.34 19.36 76.98 30.64"/>
        <polygon class="cls-1" points="72.67 34.22 62.45 27.56 56.17 17.09 66.4 23.75 72.67 34.22"/>
        <polygon class="cls-1" points="68.94 38.39 57.84 33.32 50.08 23.91 61.18 28.97 68.94 38.39"/>
        <polygon class="cls-1" points="65.87 43.08 54.13 39.74 45.05 31.59 56.79 34.93 65.87 43.08"/>
        <polygon class="cls-1" points="63.52 48.22 51.41 46.7 41.2 40.02 53.31 41.54 63.52 48.22"/>
        <polygon class="cls-1" points="61.96 53.74 49.77 54.1 38.65 49.09 50.84 48.72 61.96 53.74"/>
        <polygon class="cls-1" points="61.27 59.59 49.28 61.86 37.51 58.65 49.5 56.37 61.27 59.59"/>
        <polygon class="cls-1" points="61.51 65.57 50.03 69.7 37.9 68.38 49.38 64.24 61.51 65.57"/>
        <polygon class="cls-1" points="62.64 71.25 51.94 77.12 39.75 77.71 50.45 71.84 62.64 71.25"/>
        <polygon class="cls-1" points="64.6 76.59 54.93 84.03 42.97 86.47 52.64 79.03 64.6 76.59"/>
        <polygon class="cls-1" points="67.32 81.51 58.88 90.32 47.43 94.54 55.87 85.73 67.32 81.51"/>
        <polygon class="cls-1" points="70.73 85.96 63.7 95.93 53 101.8 60.04 91.83 70.73 85.96"/>
        <polygon class="cls-1" points="74.76 89.84 69.28 100.74 59.58 108.14 65.06 97.24 74.76 89.84"/>
        <polygon class="cls-1" points="79.33 93.08 75.54 104.68 67.06 113.45 70.84 101.85 79.33 93.08"/>
        <polygon class="cls-1" points="84.36 95.62 82.38 107.66 75.31 117.61 77.3 105.57 84.36 95.62"/>
        <polygon class="cls-1" points="89.79 97.38 89.68 109.58 84.23 120.5 84.34 108.3 89.79 97.38"/>
        <polygon class="cls-1" points="95.56 98.29 97.36 110.36 93.68 122 91.88 109.93 95.56 98.29"/>
        <polygon class="cls-1" points="101.56 98.29 105.23 109.93 103.44 122 99.76 110.36 101.56 98.29"/>
        <polygon class="cls-1" points="107.33 97.38 112.78 108.3 112.89 120.5 107.44 109.58 107.33 97.38"/>
        <polygon class="cls-1" points="112.75 95.62 119.82 105.57 121.81 117.61 114.74 107.66 112.75 95.62"/>
        <polygon class="cls-1" points="117.79 93.08 126.28 101.85 130.06 113.45 121.57 104.68 117.79 93.08"/>
        <polygon class="cls-1" points="122.36 89.84 132.06 97.24 137.54 108.14 127.83 100.74 122.36 89.84"/>
        <polygon class="cls-1" points="126.39 85.96 137.08 91.83 144.12 101.8 133.42 95.93 126.39 85.96"/>
        <polygon class="cls-1" points="129.8 81.51 141.25 85.73 149.69 94.54 138.24 90.32 129.8 81.51"/>
        <polygon class="cls-1" points="132.52 76.59 144.48 79.03 154.15 86.47 142.19 84.03 132.52 76.59"/>
        <polygon class="cls-1" points="134.48 71.25 146.67 71.84 157.36 77.71 145.18 77.12 134.48 71.25"/>
        <polygon class="cls-1" points="135.61 65.57 147.74 64.24 159.22 68.38 147.09 69.7 135.61 65.57"/>
        <polygon class="cls-1" points="135.85 59.59 147.62 56.37 159.61 58.65 147.83 61.86 135.85 59.59"/>
        <polygon class="cls-1" points="135.15 53.74 146.28 48.72 158.47 49.09 147.35 54.1 135.15 53.74"/>
        <polygon class="cls-1" points="133.6 48.22 143.81 41.54 155.92 40.02 145.71 46.7 133.6 48.22"/>
        <polygon class="cls-1" points="131.25 43.08 140.33 34.93 152.07 31.59 142.99 39.74 131.25 43.08"/>
        <polygon class="cls-1" points="128.18 38.39 135.93 28.97 147.03 23.91 139.28 33.32 128.18 38.39"/>
        <polygon class="cls-1" points="124.45 34.22 130.72 23.75 140.94 17.09 134.67 27.56 124.45 34.22"/>
        <polygon class="cls-1" points="120.14 30.64 124.78 19.36 133.9 11.26 129.26 22.54 120.14 30.64"/>
        <polygon class="cls-1" points="115.32 27.74 118.22 15.89 126.03 6.51 123.13 18.36 115.32 27.74"/>
        <polygon class="cls-1" points="110.09 25.59 111.14 13.43 117.42 2.97 116.37 15.13 110.09 25.59"/>
        <polygon class="cls-1" points="104.48 24.24 103.64 12.07 108.22 .76 109.06 12.93 104.48 24.24"/>
      </g>
      <g>
        <path class="cls-1" d="M143.86,105.92h2.79v.37h-1.2v3.33h-.39v-3.33h-1.2v-.37Z"/>
        <path class="cls-1" d="M147.08,105.92h.49l1.27,3.16h.01l1.27-3.16h.49v3.7h-.39v-2.94h-.01l-1.18,2.94h-.35l-1.18-2.94h-.01v2.94h-.39v-3.7Z"/>
      </g>
      <g>
        <path class="cls-2" d="M25.86,158.29c-2.43,2.93-5.38,4.35-9.01,4.35-3.26,0-5.89-1.05-8.05-3.2-2.15-2.15-3.2-4.78-3.2-8.05s1.07-5.82,3.28-8.04c2.21-2.22,4.76-3.3,7.81-3.3,3.75,0,6.75,1.49,9.15,4.57l.8,1.03,4.19-3.32-.69-1c-1.49-2.16-3.44-3.85-5.8-5-2.33-1.15-4.92-1.73-7.69-1.73-3.06,0-5.91.73-8.45,2.17-2.56,1.45-4.59,3.47-6.03,6.03-1.44,2.54-2.17,5.35-2.17,8.34,0,4.83,1.58,8.88,4.68,12.06,3.11,3.19,7.15,4.8,12.01,4.8,2.76,0,5.33-.54,7.63-1.61,2.33-1.08,4.28-2.68,5.8-4.76l.74-1.01-4.19-3.32-.81.98Z"/>
        <path class="cls-2" d="M44.83,144.57c-3.22,0-5.98,1.17-8.21,3.47-2.22,2.29-3.35,5.09-3.35,8.31s1.12,5.94,3.33,8.22c2.22,2.29,4.99,3.45,8.23,3.45s6-1.16,8.21-3.45c2.19-2.28,3.31-5.04,3.31-8.21s-1.13-6.02-3.35-8.31c-2.23-2.3-4.98-3.47-8.17-3.47ZM44.83,163.01c-1.85,0-3.33-.62-4.54-1.89-1.23-1.29-1.83-2.84-1.83-4.74s.62-3.4,1.9-4.76c1.26-1.33,2.72-1.98,4.47-1.98s3.18.65,4.45,1.99c1.29,1.35,1.92,2.91,1.92,4.75s-.61,3.41-1.88,4.71c-1.25,1.29-2.72,1.92-4.5,1.92Z"/>
        <path class="cls-2" d="M76.44,145.96c-1.5-.93-3.2-1.4-5.06-1.4-2.52,0-4.79.76-6.77,2.27v-1.76h-5.39v22.26h5.39v-8.52c0-3.2.17-4.5.32-5.03.19-.7.58-1.41,1.16-2.1.58-.69,1.29-1.24,2.11-1.62.83-.39,1.69-.58,2.61-.58.8,0,1.5.12,2.07.35.53.22.96.52,1.3.92.35.43.62.96.8,1.6.14.48.3,1.62.3,4.32v10.67h5.35v-11.41c0-2.72-.3-4.75-.91-6.22-.64-1.55-1.75-2.81-3.27-3.75Z"/>
        <path class="cls-2" d="M100.78,160.15c-1.52,1.98-3.4,2.94-5.76,2.94-1.95,0-3.52-.65-4.78-2-1.29-1.37-1.91-2.97-1.91-4.89s.63-3.45,1.91-4.73c1.29-1.28,2.85-1.9,4.78-1.9,2.45,0,4.33.95,5.73,2.9l.73,1.01,3.97-2.62-.61-1.06c-.95-1.64-2.31-2.94-4.07-3.87-1.72-.91-3.62-1.37-5.64-1.37-3.44,0-6.31,1.18-8.52,3.49-2.2,2.3-3.31,5.11-3.31,8.36s1.1,5.96,3.28,8.2c2.19,2.25,4.94,3.39,8.19,3.39,2.02,0,3.94-.43,5.7-1.28,1.8-.86,3.25-2.13,4.32-3.75l.69-1.05-3.96-2.76-.75.98Z"/>
        <path class="cls-2" d="M151.06,160.15c-1.52,1.98-3.4,2.94-5.76,2.94-1.95,0-3.52-.65-4.78-2-1.29-1.37-1.91-2.97-1.91-4.89s.63-3.45,1.91-4.73c1.29-1.28,2.85-1.9,4.78-1.9,2.45,0,4.33.95,5.73,2.9l.73,1.01,3.97-2.62-.61-1.06c-.95-1.64-2.31-2.94-4.07-3.87-1.72-.91-3.62-1.37-5.64-1.37-3.44,0-6.31,1.18-8.52,3.49-2.2,2.3-3.31,5.11-3.31,8.36s1.1,5.96,3.28,8.2c2.19,2.25,4.94,3.39,8.19,3.39,2.02,0,3.94-.43,5.7-1.28,1.8-.86,3.25-2.13,4.32-3.75l.69-1.05-3.96-2.76-.75.98Z"/>
        <path class="cls-2" d="M125.26,146.75c-1.85-1.45-4.03-2.18-6.52-2.18-3.14,0-5.87,1.16-8.11,3.44-2.24,2.28-3.37,5.05-3.37,8.22s1.13,5.99,3.34,8.29c2.23,2.32,4.94,3.49,8.06,3.49,2.42,0,4.62-.76,6.59-2.28v1.61h5.07v-22.26h-5.07v1.67ZM118.92,163.08c-1.8,0-3.3-.65-4.58-1.99-1.3-1.35-1.93-2.92-1.93-4.79s.62-3.37,1.9-4.72c1.26-1.33,2.77-1.98,4.61-1.98s3.33.63,4.59,1.92c1.27,1.3,1.89,2.87,1.89,4.78s-.63,3.57-1.92,4.86c-1.29,1.29-2.78,1.92-4.57,1.92Z"/>
        <path class="cls-2" d="M176.12,146.75c-1.85-1.45-4.03-2.18-6.52-2.18-3.14,0-5.87,1.16-8.11,3.44-2.24,2.28-3.37,5.05-3.37,8.22s1.13,5.99,3.34,8.29c2.23,2.32,4.94,3.49,8.06,3.49,2.42,0,4.62-.76,6.59-2.28v1.61h5.07v-22.26h-5.07v1.67ZM169.78,163.08c-1.8,0-3.3-.65-4.58-1.99-1.3-1.35-1.93-2.92-1.93-4.79s.62-3.37,1.9-4.72c1.26-1.33,2.77-1.98,4.61-1.98s3.33.63,4.59,1.92c1.27,1.3,1.89,2.87,1.89,4.78s-.63,3.57-1.92,4.86c-1.29,1.29-2.78,1.92-4.57,1.92Z"/>
        <path class="cls-2" d="M193.96,140.13c.37-.27,1.76-.27,2.35-.27h1.3v-5.07h-1.3c-1.95,0-3.83.42-5.03,1.12-1.48.86-2.29,2.22-2.83,3.3-.52,1.03-.75,2.46-.75,4.62v1.26h-4.02v4.74h4.02v17.52h5.15v-17.52h4.11v-4.74h-4.11v-1.34c0-.73-.01-1.72.12-2.1.16-.47.47-1.12,1-1.51Z"/>
      </g>
    </g>
  </g>
</svg>