<?xml version="1.0" encoding="UTF-8"?>
<svg id="Capa_2" data-name="Capa 2" xmlns="http://www.w3.org/2000/svg" viewBox="0 0 292.25 106.43">
  <defs>
    <style>
      .cls-1 {
        fill: #392d7a;
      }

      .cls-2 {
        fill: #f2c304;
      }
    </style>
  </defs>
  <g id="Capa_2-2" data-name="Capa 2">
    <g>
      <path class="cls-2" d="M246.35,66.88c-.88.87-1.71,1.73-2.59,2.59.19,1.1.38,2.08.54,3.13,1.03.2,1.95.38,2.92.54.86-.82,1.67-1.65,2.49-2.49-.12-1.03-.15-2.03-.33-3.13-.94-.22-2-.41-3.03-.65h0ZM243,65.69c-.8.14-1.57.27-2.38.43-.2.81-.32,1.61-.54,2.38.71.35,1.25.63,1.94.97.62-.59,1.22-1.15,1.84-1.73-.28-.69-.58-1.35-.86-2.05h0ZM210.04,60.83c-.48.9-.87,1.73-1.3,2.59.7.78,1.34,1.5,2.05,2.27.89-.35,1.78-.7,2.7-1.08-.15-1.04-.28-2.1-.43-3.13-1.01-.26-2.05-.38-3.03-.65h0ZM240.62,59.1c-.72.4-1.42.79-2.16,1.19.07.86.14,1.64.21,2.48.81.45,1.5.88,2.27,1.3.71-.41,1.48-.78,2.16-1.19-.03-.82-.07-1.65-.11-2.49-.77-.45-1.58-.85-2.38-1.3h0ZM261.91,58.02c-.55.25-1.09.49-1.73.76-.22.84-.52,1.64-.76,2.48.37.57.81,1.17,1.19,1.73.6-.29,1.07-.59,1.62-.86.25-.81.54-1.56.76-2.38-.33-.55-.69-1.14-1.08-1.73h0ZM255.21,55.97c-1.47,1.32-2.93,2.71-4.54,4.11.49,2.08.93,4.02,1.3,5.94,1.84-.19,3.49-.42,5.08-.65.7-1.96,1.24-3.95,1.84-5.94-1.18-1.11-2.34-2.24-3.67-3.46h0ZM182.27,53.05c.4,9.33,4.12,18.8,9.4,25.07l2.59-1.73.11-13.72c-4.71-3.44-7.76-5.5-12.1-9.61h0ZM257.91,51.43c-.6.34-1.18.71-1.84,1.08-.09.88-.21,1.71-.33,2.59.57.51,1.11,1.02,1.62,1.51.61-.36,1.14-.71,1.73-1.08.1-.85.14-1.74.21-2.59-.49-.52-.85-.99-1.4-1.51h0ZM262.34,45.81c-.54.52-1.04,1.07-1.62,1.62.25,1.04.44,2,.65,3.03.73.06,1.37.06,2.05.11.2-.96.38-1.87.54-2.81-.51-.65-1.05-1.26-1.62-1.94h0ZM185.73,44.41c-1.19.74-2.14,1.42-3.24,2.16-.16,1.78-.33,3.4-.32,5.19,1.15.92,1.95,1.49,2.92,2.16,1.24-.66,2.01-1.1,3.13-1.73.1-1.7.1-3.2.21-4.97-.99-1.04-1.78-1.96-2.7-2.81h0ZM210.15,43.54c-3.01,1.3-5.62,2.55-8.32,3.78.05,3.24.19,6.37.43,9.61,2.73.95,5.52,1.83,8.64,2.81,1.67-2.76,3.43-5.48,5.29-8.43-2.13-2.73-4.15-5.26-6.05-7.78h0ZM258.77,40.84c-.24,1.03-.57,2.04-.86,3.13.75.86,1.47,1.76,2.16,2.59.71-.59,1.29-1.09,1.95-1.62-.27-1.14-.45-2.33-.76-3.46-.8-.22-1.58-.44-2.49-.65h0ZM257.69,37.71c-.37.06-.8.14-1.19.22-.07.48-.07.92-.11,1.4.3.41.54.79.86,1.19.38-.08.72-.15,1.08-.22.06-.48.15-.92.22-1.4-.29-.4-.55-.78-.86-1.19h0,0ZM213.61,36.63c-1.16.48-2.31.93-3.46,1.4-.23,1.22-.42,2.33-.65,3.56.88.73,1.65,1.5,2.59,2.27,1.15-.49,2.37-1.03,3.57-1.51.22-1.26.41-2.35.65-3.56-.94-.72-1.8-1.46-2.7-2.16h0ZM191.78,33.82c-1.56.77-2.54,1.41-4.22,2.38-.55,1.94-1,4.12-1.3,6.48,1.17,1.19,2.13,2.05,3.35,3.24,1.53-.79,3.04-1.5,4.65-2.27.45-2.23.74-4.08,1.19-6.16-1.21-1.25-2.51-2.47-3.67-3.67h0ZM242.03,31.87c-4.18,1.27-8.65,2.74-13.51,4.43.37,4.89.76,10.07,1.08,15.56,5.23,1.39,10.04,2.67,14.59,3.89,2.58-4.4,4.91-8.52,6.92-12.43-2.84-3.9-5.85-7.74-9.08-11.45h0ZM204.42,30.58c-2.33,1.12-4.51,2.18-6.59,3.35-.65,2.41-1.18,4.78-1.73,7.35,1.51,1.46,3.07,2.98,4.86,4.64,2.25-1.08,4.61-2.12,7.13-3.24.54-2.81,1.03-5.38,1.62-8-1.92-1.47-3.62-2.82-5.29-4.1h0ZM253.91,30.25c.03.47.08.91.11,1.4.42.3.89.55,1.3.86.25-.32.41-.57.65-.86-.26-.48-.48-.95-.76-1.4-.42,0-.85-.01-1.3,0h0ZM189.95,25.93c-3.88,5.67-6.56,12.23-7.45,19.34.94-.71,1.53-1.06,2.38-1.73.95-6.1,2.4-11.2,5.08-17.61h0ZM254.45,20.09c.23,1.49.51,2.89.76,4.43,1.41.98,2.25,1.59,3.78,2.7.5-.83.81-1.63,1.19-2.38-.87-1.44-1.36-2.25-2.38-3.67-.91-.32-2.13-.69-3.35-1.08h0ZM245.38,17.61c-2.29.26-4.73.65-7.46,1.19-.11,1.93-.25,3.96-.43,6.27,2.45,2.32,4.82,4.66,7.24,7.24,3.04-.82,5.66-1.39,8.11-1.94-.09-2.74-.28-5.15-.54-7.35-2.28-1.94-4.47-3.69-6.91-5.4h0ZM252.83,16.75c.04.28.06.55.11.86.41.39.89.69,1.3,1.08.37.09.72.24,1.08.33-.06-.31-.14-.58-.21-.86-.42-.36-.77-.71-1.19-1.08-.34-.09-.7-.21-1.08-.32h0ZM249.7,16.42c-.49.13-.96.36-1.51.54.45.69.85,1.35,1.3,2.05.83.22,1.6.41,2.38.65.02-.57,0-1.13,0-1.62-.74-.57-1.39-1.1-2.16-1.62h0ZM200.86,15.02c-3.65,2.61-6.6,5.36-8.86,8.21-.96,2.21-1.49,3.57-2.27,6.16,1.24,1.31,2.8,2.9,4.86,4.86,3.11-1.9,6.55-3.7,10.37-5.51,1.1-3.83,2.2-7.08,3.35-10.05-2.46-1.5-5.57-2.98-7.45-3.67h0ZM250.56,14.8c.02.13.08.27.11.43.25.2.51.44.76.65.22.06.44.04.65.11-.02-.17-.06-.2-.11-.32-.25-.21-.5-.44-.76-.65-.21-.06-.42-.18-.65-.22h0ZM224.09,12.64c-4.6,1.12-8.98,2.43-13.61,4.32-1.34,3.67-2.72,7.82-4.21,12.75,3.52,2.6,7.36,5.48,11.88,8.97,5.64-2.23,11.13-4.16,16.42-5.83.65-5.21,1.14-9.6,1.51-13.4-4.26-2.77-8.25-5.02-12-6.81h0ZM223.98,7.02c-8.57.6-15.28,2.75-22.15,7.24,1.54.42,3.72,1.28,6.05,2.38,4.21-1.81,9.3-3.59,13.61-4.75,1.04-2.22,1.5-3.13,2.49-4.86h0ZM225.17,6.92c-.47.91-.9,2.23-1.51,4,3.86,1.62,7.96,3.87,12.43,6.7,4.81-.92,8.85-1.37,12.32-1.4-.23-1.5-.48-2.33-.97-3.57-6.66-3.6-13.52-5.74-22.26-5.73h0ZM237.06,5.94c20.19,4.94,35.12,23.23,35.12,44.95,0,13.06-5.44,24.77-14.16,33.17,17.94-15.55,18.47-35.97,16.21-46.14-.17-.78.12-.88.87-.43,2.54,1.52,6.9,4.67,8.75,6.05.48.35.78-.07.43-.43-2.43-2.57-5.1-5.35-6.81-7.78-.6-.85-.42-1.09.43-1.3,3.63-.89,11.49-1.73,13.83-1.94.73-.06.67-.61,0-.65-2.6-.14-12.69-1.01-15.56-1.51-.52-.09-.72-.36-.32-.97,1.93-2.91,7.1-8.84,8.43-10.16.64-.63.21-.99-.43-.54-2.13,1.51-7.98,5.46-10.48,6.7-.74.37-.99.35-1.19-.43-.6-2.36-1.45-9.43-1.62-12.32-.05-.71-.73-.69-.76-.11-.13,2.61-.72,9.81-1.3,12-.24.91-.64.84-1.08.21-3.07-4.38-12.99-15.38-30.36-18.37h0Z"/>
      <path class="cls-1" d="M263.86,85.79c-.11-.02-.23-.02-.33,0-.22.03-.37.14-.54.33-.21.22-.34.47-.33.76,0,.29.1.54.33.76.25.23.58.33.86.33.28,0,.54-.09.76-.33.19-.21.22-.4.22-.65,0-.16,0-.35-.11-.54l-.43.32c.1.15.11.21.11.33s-.04.24-.11.32c-.12.12-.26.15-.43.11-.12-.03-.25-.15-.43-.33-.18-.16-.3-.29-.33-.43-.02-.15.01-.23.11-.33.08-.08.22-.2.32-.21.11-.01.2.03.33.11l.32-.43c-.09-.06-.2-.09-.31-.11h0ZM263.74,85.36c.44-.01.76.13,1.08.43.32.3.52.65.54,1.08.01.44-.14.76-.43,1.08-.3.32-.75.53-1.19.54-.44.01-.76-.14-1.08-.43-.32-.3-.53-.64-.54-1.08-.01-.44.14-.87.43-1.19.3-.32.75-.42,1.19-.43h0ZM263.69,84.91c-.16.02-.31.07-.48.12-.34.1-.62.28-.86.54-.24.25-.46.52-.54.87-.08.34,0,.64.11.97.1.34.18.73.43.97.26.24.63.35.97.43.35.08.64.1.97,0,.34-.1.63-.28.87-.54.24-.25.46-.63.54-.97.08-.35,0-.64-.11-.97-.1-.34-.28-.62-.54-.86-.26-.24-.52-.46-.86-.54-.17-.04-.33-.04-.49-.01h0ZM265.58,83.31l1.4.54-.65.76-.76-1.3h0ZM265.15,82.44l-.54.65,1.94,3.56.54-.65-.43-.76.97-1.19.86.32.54-.65-3.89-1.3h0ZM267.96,79.09l-1.62,1.95,2.92,2.37.54-.54-1.3-1.08.97-1.19-.43-.43-.97,1.3-.76-.65,1.19-1.4-.54-.33h0ZM270.58,76.6c-.12-.02-.24-.02-.36,0-.39.07-.8.28-1.08.65-.32.43-.41.94-.33,1.4.09.47.36.81.86,1.19.48.36,1.04.6,1.51.54.47-.06.78-.35,1.08-.76.25-.33.43-.64.43-.97,0-.34-.17-.63-.43-.97l-.65.43c.19.22.31.46.32.65.02.2-.1.37-.22.54-.17.22-.38.31-.65.32-.27.02-.58-.15-.97-.43-.36-.27-.49-.49-.54-.76-.06-.26-.07-.53.11-.76.12-.16.25-.27.43-.33.17-.04.36.03.54.11l.32-.76c-.15-.06-.28-.09-.4-.11h0ZM273,73.01c-.12-.02-.25,0-.39.03h0c-.29.07-.55.22-.76.54-.19.29-.23.58-.21.86.02.28.13.61.43.86l.43-.65c-.16-.13-.19-.2-.22-.33-.03-.13-.08-.31,0-.43.09-.13.21-.19.32-.22.13-.03.3.01.43.11.12.08.25.16.32.32.05.13.04.42.11.86.09.54.21.95.33,1.19.12.24.23.48.43.65l1.4-2.16-.54-.33-.76,1.19c-.03-.07-.08-.13-.11-.21-.03-.09-.06-.34-.11-.65-.05-.31-.07-.52-.11-.65-.06-.2-.12-.41-.21-.54-.09-.14-.29-.23-.43-.32-.12-.08-.24-.13-.36-.14h0ZM274.25,71.39c.05,0,.11,0,.19.03.16.05.48.2.87.43.38.23.63.4.76.54.1.11.09.23.11.33.01.09.05.14,0,.21-.04.08-.13.19-.21.22-.08.03-.16-.06-.33-.11-.17-.05-.48-.19-.86-.43-.38-.23-.62-.4-.76-.54-.1-.11-.21-.24-.21-.33-.02-.09.06-.15.11-.22.05-.08.13-.08.22-.11h0s.08-.03.13-.03h0ZM274.12,70.66c-.33.04-.57.23-.76.54-.2.31-.21.66-.11.97.14.38.47.71,1.08,1.08.62.38,1.14.58,1.51.54.35-.04.67-.22.86-.54.19-.31.23-.66.11-.97-.13-.38-.58-.71-1.19-1.08-.61-.38-1.12-.59-1.51-.54h0ZM275.52,68.93h0c.08-.03.27-.04.43,0,.17.05.37.21.76.43.39.22.73.41.87.54.1.1.09.24.11.33.01.09.04.14,0,.21-.05.07-.14.08-.21.11-.09.03-.16.04-.33,0-.16-.05-.48-.21-.86-.43-.39-.22-.61-.4-.76-.54-.1-.1-.2-.13-.21-.21-.02-.09-.04-.25,0-.33.04-.07.13-.08.21-.11h0ZM275.63,68.28c-.33.05-.57.22-.76.54-.19.32-.23.55-.11.86.15.38.46.83,1.08,1.19.63.36,1.15.48,1.51.43.36-.05.68-.22.86-.54.19-.32.12-.67,0-.97-.15-.37-.46-.72-1.08-1.08-.62-.36-1.12-.49-1.51-.43h0ZM276.49,65.8l-.33.43c.16.18.28.48.33.76.04.28.14.45.11.65l.54.33c.06-.37.1-.73,0-1.08l2.38,1.3.32-.65-3.35-1.73h0ZM97.46,1.4v3.13c8.7,1.38,10.19,6.71,10.27,10.59v90.22h17.29v-48.62h26.47c-.07-1.15-.11-2.29-.11-3.46,0-1.7.07-3.41.22-5.08h-26.58V9.62h45.27c3.29-3.12,6.87-5.85,10.81-8.21h-83.63ZM57.05,1.4v3.24c5.67.86,9.11,5.1,5.83,10.48L0,105.35h7.78L74.12,16.42v31.55h-17.5l-4.65,8.54h22.15v48.84h17.29V1.4h-34.36ZM214.58,0c-29.39,0-53.16,23.78-53.16,53.16s23.77,53.27,53.16,53.27c12.59,0,24.28-4.45,33.39-11.78l-.54-2.81c-6.4,3.35-13.67,5.29-21.39,5.29-25.53,0-46.24-20.71-46.24-46.24S200.5,4.65,226.03,4.65c1.73,0,3.39.14,5.08.32l-.43-2.48c-5.06-1.6-10.51-2.49-16.1-2.49h0Z"/>
    </g>
  </g>
</svg>