<?xml version="1.0" encoding="UTF-8"?>
<svg id="Capa_2" data-name="Capa 2" xmlns="http://www.w3.org/2000/svg" viewBox="0 0 232.73 37.75">
  <defs>
    <style>
      .cls-1 {
        fill: #002e7a;
      }
    </style>
  </defs>
  <g id="Capa_2-2" data-name="Capa 2">
    <g id="Symbols">
      <g id="Logo_UEFA.com" data-name="Logo/UEFA.com">
        <path id="Combined-Shape" class="cls-1" d="M130.82,36.78v-4.66h3.69v4.66h-3.69ZM9.54,27.51c1.47,1.51,3.8,2.37,6.32,2.37s4.81-.85,6.32-2.37c1.82-1.86,2.41-3.69,2.37-7.6V0h7.18v21.76c0,4.54-1.36,8.07-4.07,10.75-3.1,3.03-6.91,4.46-11.79,4.46s-8.69-1.44-11.79-4.46C1.32,29.83,0,26.3,0,21.76V0h7.18v19.9c-.04,3.88.54,5.74,2.37,7.6ZM63.2,6.79h-18.16v8.26h16.6v6.67h-16.6v3.49c0,3.84,1.36,4.81,4.81,4.81h13.38v6.75h-13.77c-6.4,0-11.56-2.87-11.56-10.78V2.72c0-1.71,1.13-2.68,2.72-2.68h22.66v6.75h-.08ZM75.34,21.73v15.05h-4.5c-1.55,0-2.68-.97-2.68-2.72V10.78c0-7.91,5.16-10.78,11.56-10.78h13.77v6.75h-13.38c-3.45,0-4.81.93-4.81,4.81v3.49h16.64v6.67h-16.6ZM108.59,0c2.09,0,2.79,1.13,3.26,2.41l13.46,34.37h-7.68l-2.64-6.75h-8.77l2.41-6.75h3.72l-4.73-12.03-9.04,25.57h-7.18L103.58,2.44c.47-1.28,1.16-2.41,3.26-2.41h1.75v-.04ZM158.21,18.16c-.89-4.07-3.38-6.56-7.76-6.56-6.4,0-9.58,5.82-9.58,11.68s3.18,11.68,9.58,11.68c4.15,0,7.53-3.22,7.95-7.8h3.34c-.89,6.56-5.2,10.59-11.29,10.59-8.38,0-12.92-6.63-12.92-14.47s4.58-14.47,12.92-14.47c5.82,0,10.36,3.14,11.1,9.39h-3.34v-.04ZM190.95,23.24c0,7.84-4.58,14.47-12.92,14.47s-12.96-6.63-12.96-14.47,4.58-14.47,12.96-14.47,12.92,6.6,12.92,14.47ZM168.41,23.24c0,5.82,3.18,11.68,9.58,11.68s9.58-5.82,9.58-11.68-3.18-11.68-9.58-11.68c-6.4,0-9.58,5.82-9.58,11.68ZM194.94,9.54h3.06v4.62h.16c1.75-3.3,4.62-5.39,8.96-5.39,3.61,0,6.83,1.75,7.84,5.35,1.63-3.61,5.08-5.35,8.69-5.35,5.97,0,9.08,3.14,9.08,9.58v18.54h-3.34v-18.39c0-4.5-1.71-6.94-6.48-6.94-5.78,0-7.41,4.77-7.41,9.85v15.48h-3.34v-18.54c.04-3.72-1.47-6.79-5.74-6.79-5.78,0-8.11,4.35-8.15,10.09v15.29h-3.34V9.54h0Z"/>
      </g>
    </g>
  </g>
</svg>