<?xml version="1.0" encoding="UTF-8"?>
<svg id="Capa_2" data-name="Capa 2" xmlns="http://www.w3.org/2000/svg" viewBox="0 0 260.26 135.98">
  <defs>
    <style>
      .cls-1 {
        fill-rule: evenodd;
      }
    </style>
  </defs>
  <g id="Capa_2-2" data-name="Capa 2">
    <g>
      <g>
        <path class="cls-1" d="M33.34,46.46C10.04,73.83-11.96,110.26,7.46,127.03c18.82,16.26,42.35,6.63,58.38.21,16.04-6.42,193.32-83.41,193.32-83.41,1.72-.86,1.39-1.93-.75-1.39-.86.21-192.99,52.29-192.99,52.29-24.38,6.85-52.18-8.06-32.08-48.27h0Z"/>
        <g>
          <path class="cls-1" d="M43.62,83.23c-2.07,0-3.69,1.45-3.69,3.56s1.63,3.55,3.69,3.55,3.69-1.45,3.69-3.55c.01-2.11-1.62-3.56-3.69-3.56ZM43.62,89.34c-1.48,0-2.57-1.08-2.57-2.53s1.08-2.54,2.57-2.54,2.57,1.1,2.57,2.54-1.12,2.53-2.57,2.53Z"/>
          <path class="cls-1" d="M44.25,87.05c.51-.02.92-.29.92-1.01,0-.92-.6-1.16-1.61-1.16h-1.45v3.83h.97v-1.63h.16l.88,1.63h1.12l-.99-1.66ZM43.63,86.43h-.55v-.89h.46c.29,0,.61.03.61.41,0,.4-.18.48-.53.48Z"/>
        </g>
      </g>
      <g>
        <g>
          <path class="cls-1" d="M211.3,0c-2.07,0-3.69,1.45-3.69,3.56s1.63,3.55,3.69,3.55,3.69-1.45,3.69-3.55-1.62-3.56-3.69-3.56ZM211.3,6.1c-1.48,0-2.57-1.08-2.57-2.53s1.08-2.54,2.57-2.54,2.57,1.1,2.57,2.54c-.01,1.43-1.13,2.53-2.57,2.53Z"/>
          <path class="cls-1" d="M211.92,3.82c.51-.02.92-.29.92-1.01,0-.92-.6-1.16-1.61-1.16h-1.45v3.83h.97v-1.63h.16l.88,1.63h1.12l-.99-1.66ZM211.3,3.2h-.55v-.89h.46c.28,0,.61.03.61.41,0,.4-.18.48-.53.48Z"/>
        </g>
        <g>
          <polygon class="cls-1" points="79.53 70.78 61.57 70.78 63.61 39.57 51.94 70.78 35.27 70.78 61.73 .21 79.48 .21 77.43 31.87 89.31 .21 106 .21 79.53 70.78"/>
          <polygon class="cls-1" points="81.7 70.78 108.17 .21 124.84 .21 98.37 70.78 81.7 70.78"/>
          <path d="M153.89.21l-17.48,21.17L144.47.21h-16.89l-26.25,70.57h16.69l11.21-29.51.77,29.51,51.18-.11,4.87-13.58h-19.46l6.39-17.1h16.04l4.93-13.15h-16.04l5.5-14.86h16.89L204.78.23h-50.89ZM146.54,66.08h0l-1.07-36.78L170.69,1.61l-24.15,64.47Z"/>
        </g>
      </g>
    </g>
  </g>
</svg>