<?xml version="1.0" encoding="UTF-8"?>
<svg id="Capa_2" data-name="Capa 2" xmlns="http://www.w3.org/2000/svg" viewBox="0 0 218.97 146.5">
  <g id="Capa_2-2" data-name="Capa 2">
    <g>
      <path d="M106.56,13.06L24.36,47.58c-1.19.4-1.19,1.22,0,1.66l82.2,34.42c1.62.59,4.26.59,5.92,0l82.13-34.42c1.21-.44,1.21-1.26,0-1.66L112.49,13.06c-1.66-.57-4.3-.57-5.92,0M215.76,43.5c2,.78,3.21,2.69,3.21,4.82,0,2.23-1.28,4.12-3.21,4.92l-102.28,42.73c-2.18.86-5.7.86-7.9,0L3.24,53.24c-1.87-.8-3.24-2.69-3.24-4.92s1.37-4.04,3.24-4.82L105.58.71c2.2-.95,5.72-.95,7.9,0l102.28,42.79ZM160.39,45.98c.86.38,1.49,1.26,1.49,2.34,0,.99-.63,1.91-1.49,2.38l-48.95,20.49c-1.1.38-2.77.38-3.79,0l-48.93-20.49c-.95-.46-1.49-1.39-1.49-2.38,0-1.07.55-1.96,1.49-2.34l48.93-20.49c1.02-.46,2.68-.46,3.79,0l48.95,20.49ZM108.67,58.67c.49.19,1.18.19,1.66,0l24.22-10.06c.38-.15.38-.4,0-.63l-24.22-9.99c-.48-.19-1.17-.19-1.66,0l-24.14,9.99c-.41.23-.41.48,0,.63l24.14,10.06Z"/>
      <g>
        <path d="M143.62,124.39h-.07v-4.78h-8.26v26.28h9.09v-11.11c0-5.15,2.38-8.16,6.61-8.16,1.04,0,2.03,0,3.02.25v-7.57c-.75-.15-1.67-.34-2.58-.34-3.93,0-6.18,2.23-7.8,5.43"/>
        <path d="M121.97,118.96c-3.64,0-6.71,1.05-9.03,3.98h-.09v-12.66h-9.16v35.7h8.37v-4.8h.11c1.18,2.9,4.86,5.32,9,5.32,7.82,0,11.99-6.46,11.99-14.22,0-6.42-3.99-13.32-11.19-13.32M118.38,139.89c-3.21,0-5.81-3.03-5.81-6.96,0-4.14,2.35-7.22,5.81-7.22,3.67,0,5.7,3.07,5.7,6.8,0,4.35-2.1,7.38-5.7,7.38"/>
        <path d="M91.24,118.96c-3.7,0-7.2,1.56-9.3,5.09-1.37-3.43-4.53-5.09-8.2-5.09-4.12,0-7.8,1.77-9.57,5.43h-.16v-4.78h-8.22v26.28h9v-11.11c0-5.68,1.96-8.16,5.19-8.16,2.62,0,3.61,2.17,3.61,5.15v14.12h9.1v-11.11c0-5.68,1.96-8.16,5.13-8.16,2.57,0,3.69,2.17,3.69,5.15v14.12h9.07v-15.57c0-7.05-1.75-11.36-9.34-11.36"/>
        <path d="M169.83,118.96c-8.69,0-15.34,5.09-15.34,13.82s6.65,13.72,15.34,13.72,15.29-4.99,15.29-13.72-6.61-13.82-15.29-13.82M163.44,132.89c0-4.63,2.47-7.95,6.31-7.95s6.33,3.49,6.33,7.45c0,4.92-2.46,8.2-6.33,8.2-3.45,0-6.31-3.28-6.31-7.7"/>
        <path d="M25.2,119.61v14.92c0,8.33,5.92,11.97,13.62,11.97s13.56-3.64,13.56-11.97v-14.92h-9.04v14.05c0,3.22-.82,6.23-4.52,6.23s-4.46-3.01-4.46-6.23v-14.05h-9.16Z"/>
      </g>
    </g>
  </g>
</svg>