<?xml version="1.0" encoding="UTF-8"?>
<svg id="Capa_2" data-name="Capa 2" xmlns="http://www.w3.org/2000/svg" viewBox="0 0 273.67 171.4">
  <g id="Capa_2-2" data-name="Capa 2">
    <path d="M194.95,171.4h78.72c-.22-.44-.43-.87-.43-1.31-18.53-42.3-48.19-74.8-88.98-97.7,34.89-4.36,65.21-13.08,88.98-28.35,0-.22.21-.22.43-.44-.22-.22-.43-.22-.43-.44-21.16-14.39-42.3-28.79-63.46-43.18-18.74,13.08-46.66,26.17-72.39,26.6C96.39,27.04,54.95,13.52,19.19,0,13.51,2.4,5.67,6.98,0,9.6c116.67,37.29,166.38,96.17,194.95,161.8Z"/>
  </g>
</svg>