<?xml version="1.0" encoding="UTF-8"?>
<svg id="Capa_2" data-name="Capa 2" xmlns="http://www.w3.org/2000/svg" viewBox="0 0 243.03 128.15">
  <defs>
    <style>
      .cls-1 {
        fill: #0061ad;
        fill-rule: evenodd;
      }
    </style>
  </defs>
  <g id="Capa_2-2" data-name="Capa 2">
    <g>
      <g>
        <g>
          <path class="cls-1" d="M136.08,84.82c-.1-.72-.62-.93-.72-1.03.21,0,.93-.41.93-1.03,0-.72-.62-1.44-1.44-1.44h-2.06v4.84h.82v-1.96h1.03c.21,0,.72.41.72.82,0,.31,0,1.13.1,1.13h.93c-.21-.1-.21-.82-.31-1.34ZM134.64,83.48h-1.03v-1.34h1.03c.41,0,.72.31.72.62s-.21.72-.72.72Z"/>
          <path class="cls-1" d="M134.54,79.78c-2.26,0-4.01,1.75-4.01,4.01s1.75,4.01,4.01,4.01,4.01-1.85,4.01-4.01-1.85-4.01-4.01-4.01ZM134.54,87.39c-2.06,0-3.6-1.65-3.6-3.6,0-2.06,1.54-3.6,3.6-3.6s3.6,1.54,3.6,3.6-1.65,3.6-3.6,3.6Z"/>
        </g>
        <path class="cls-1" d="M136.08,29.03c-54.66,10.91-81.73,4.73-41.38-21.93L0,34.17c87.6,1.34,101.08,45.5,101.7,54.04h25.94c3.6-53.73,27.18-50.64,103.04-72.98l12.35-15.23c-6.28,1.96-70.51,21.72-106.95,29.03ZM112.41,66.6c-2.57-4.74-11.73-14.2-18.63-18.22,10.19,0,24.91-1.96,33.35-3.91-5.35,4.53-11.53,13.48-14.72,22.13Z"/>
      </g>
      <g>
        <path class="cls-1" d="M57.13,128.15l25.12-30.37v22.95c0,4.12-3.29,7.41-7.41,7.41h-17.7Z"/>
        <path class="cls-1" d="M127.64,107.67c.93-1.03,1.44-2.47,1.44-3.91v-5.35h-27.28v5.97h15.03l-13.18,14.62c-.93,1.03-1.44,2.26-1.44,3.71v5.46h27.28v-5.87h-15.03l13.18-14.62h0Z"/>
        <path class="cls-1" d="M217.5,98.41h-21.2c-3.29,0-6.07,2.68-6.07,5.97v17.81c0,3.29,2.78,5.97,6.07,5.97h21.2c3.29,0,5.97-2.68,5.97-5.97v-17.81c0-3.29-2.68-5.97-5.97-5.97ZM212.05,119.3c0,1.65-1.34,2.99-2.98,2.99h-4.43c-1.65,0-2.99-1.34-2.99-2.99v-11.94c0-1.65,1.34-2.99,2.99-2.99h4.43c1.65,0,2.98,1.34,2.98,2.99v11.94Z"/>
        <path class="cls-1" d="M86.88,98.41h11.32v23.78c0,3.29-2.57,5.97-5.87,5.97h-5.46v-29.75h0Z"/>
        <path class="cls-1" d="M138.96,128.15c-3.29,0-5.97-2.68-5.97-5.97v-23.78h11.43v20.79c0,1.65,1.34,3.09,2.99,3.09h3.6c1.65,0,2.99-1.34,2.99-2.99v-20.9h26.45c3.29,0,5.87,2.68,5.87,5.97v23.78h-11.32v-20.79c0-1.65-1.34-2.99-2.98-2.99h-6.69v17.81c0,3.29-2.57,5.97-5.87,5.97h-20.48Z"/>
        <path class="cls-1" d="M59.6,93.16l-29.03,35h16.47l21.93-26.56c1.65-1.96,4.22-3.19,7-3.19h6.28v-10.19h-12.15c-4.22,0-8.03,1.96-10.5,4.94h0Z"/>
        <path class="cls-1" d="M32.84,93.16L3.81,128.15h16.47l22.03-26.56c1.65-1.96,4.12-3.19,6.9-3.19h5.97v-10.19h-11.73c-4.22,0-8.03,1.96-10.6,4.94h0Z"/>
        <g>
          <path class="cls-1" d="M230.78,125.17c-.1-.72-.62-.93-.72-.93.21,0,.93-.41.93-1.13s-.62-1.34-1.44-1.34h-2.06v4.84h.82v-1.96h1.03c.21,0,.62.31.72.72,0,.31-.1,1.13.1,1.13h.93c-.21,0-.31-.72-.31-1.34ZM229.34,123.93h-1.03v-1.44h1.03c.41,0,.72.41.72.72s-.21.72-.72.72Z"/>
          <path class="cls-1" d="M229.14,120.13c-2.16,0-4.01,1.85-4.01,4.01s1.85,4.01,4.01,4.01,4.01-1.75,4.01-4.01-1.75-4.01-4.01-4.01ZM229.14,127.74c-1.96,0-3.6-1.54-3.6-3.6s1.65-3.6,3.6-3.6c2.06,0,3.6,1.65,3.6,3.6,0,2.06-1.54,3.6-3.6,3.6Z"/>
        </g>
      </g>
    </g>
  </g>
</svg>