<?xml version="1.0" encoding="UTF-8"?>
<svg id="Capa_2" data-name="Capa 2" xmlns="http://www.w3.org/2000/svg" viewBox="0 0 235.22 122.14">
  <defs>
    <style>
      .cls-1 {
        fill-rule: evenodd;
      }
    </style>
  </defs>
  <g id="Capa_2-2" data-name="Capa 2">
    <g>
      <path class="cls-1" d="M232.54,0c-67.66.99-101.98,3.96-148.86,17L54.96,0h-23.93l34.49,23.44-11.23,5.12L20.3,0H2.15l34.98,38.12C19.47,50.5,9.41,61.31,1.66,75.5h38.62c2.43-3.47,9.54-12.39,15.34-17.24l15.85,17.24h38.29c5.12-6.27,7.1-8.01,12.54-12.96l19.14,12.96h39.28l-43.74-25.99c34.81-28.41,95.56-37.63,95.56-37.63V0h0ZM88.63,57.6l-15.18-12.71,12.87-7.26,13.86,9.58c-2.75,2.33-9.76,8.74-11.55,10.39h0ZM169,14.69c-26.57,7.92-36.97,13.04-52.65,21.95l-11.86-6.71c22.28-8.74,40.59-12.6,65.17-15.4l-.66.16ZM52.15,89.1v-7.25h-7.92v7.25h7.92ZM128.02,121.46h9.91v-39.61h-9.91v39.61ZM157.49,106.28h7.1v4.95c-1.98.49-3.3.66-4.13.66-5.45,0-9.74-4.79-9.74-10.06,0-6.27,5.12-10.4,10.57-10.4,2.47,0,5.94.82,7.59,1.98l.49.33,4.13-9.25c-5.61-2.64-7.92-3.3-12.21-3.3-11.55,0-21.12,8.25-21.12,20.63,0,11.23,9.25,20.3,21.62,20.3,3.8,0,8.58-1.15,11.88-2.8l.49-.16v-21.95h-13.2l-3.46,9.07h0ZM98.33,81.85l-1.36,10.07h9.83v29.54h9.96v-29.54h9.74l-1.37-10.07h-26.8ZM202.62,91.92l-2.47-10.07h-22.77v39.61h22.61l2.47-9.9h-15.18v-5.78h10.07v-9.9h-10.07v-3.96h15.34Z"/>
      <path class="cls-1" d="M80.54,94.23c0-3.13,3.47-4.95,8.41-4.95v-7.92c-7.1.16-13.2,1.15-15.67,6.93v-6.93c-16.45.8-20.14,15.62-20.55,17.6-.15.65-.57.47-.57-.08v-7.71h-7.92v15.9c0,.41-.25.62-.32.2-.22-.87-.71-3.45-4.29-6.78-5.12-4.62-4.95-4.62-4.95-6.44,0-3.13,2.97-4.95,7.5-4.95v-7.75c-8.83.16-15.1,2.97-15.93,10.4-3.47-7.92-7.59-10.57-16.84-10.57h-.82v8.08c5.45,0,9.07.16,9.07,7.59-2.64-.82-4.13-.99-5.28-.99-6.77,0-12.38,6.03-12.38,12.87s5.94,12.71,13.2,12.71l3.88.03v-8.05h-3.74c-2.56,0-4.63-2.07-4.63-4.63s2.07-4.63,4.63-4.63,4.63,2.07,4.63,4.63v2.55c-.04,3.32,2.93,10.05,11.57,10.6v-8.08c-2.14-.33-2.64-1.81-2.64-4.79v-10.07c1.65,3.8,8.08,7.1,8.08,10.9,0,2.14-1.48,3.64-3.47,3.96v8.08c10.28-.6,12.03-8.81,12.35-10.54.11-.57.35-.23.36.09v9.96h7.92v-16.24c0-.59.44-.63.51-.24.38,1.96,5.01,17.15,19.95,17.15.81-.04,2.15-.04,2.46-.16v-8.08c-.81.16-1.14.16-1.64.16-6.44,0-12.38-5.61-12.38-11.72,0-6.6,6.11-12.38,11.55-12.38-.33,1.65-.49,2.64-.49,3.64,0,8.25,8.91,11.23,8.91,15.84,0,2.97-1.98,4.29-3.96,4.46v8.08c6.93-.66,12.54-4.46,12.54-12.87,0-9.42-9.06-9.59-9.06-14.87h0ZM226.47,104.96c4.46-2.31,7.43-5.12,7.43-10.9,0-8.25-6.27-12.21-15.34-12.21h-13.53v39.61h9.91v-15.84l9.4,15.84h10.9l-8.75-16.5h0ZM218.71,100.17h-3.8v-9.4h3.96c2.31,0,4.13,2.31,4.13,4.62,0,2.97-2.15,4.78-4.29,4.78Z"/>
    </g>
  </g>
</svg>