<?xml version="1.0" encoding="UTF-8"?>
<svg id="Capa_2" data-name="Capa 2" xmlns="http://www.w3.org/2000/svg" viewBox="0 0 110.34 195.23">
  <defs>
    <style>
      .cls-1 {
        fill: #1d1d1b;
        fill-rule: evenodd;
      }
    </style>
  </defs>
  <g id="Capa_2-2" data-name="Capa 2">
    <g>
      <path class="cls-1" d="M105.32,2.68c2.6,0,4.73,1.91,5.01,4.4v1.14c-.29,2.49-2.42,4.4-5.03,4.4-2.81,0-5.06-2.21-5.06-4.98s2.25-4.97,5.06-4.97h.02ZM105.29,3.13c-2.51,0-4.55,2.02-4.55,4.51s2.03,4.52,4.56,4.52,4.56-2.02,4.56-4.52-2.03-4.51-4.56-4.51h-.02ZM103.44,4.55h1.48c1.05,0,1.68.18,2.08.48.41.29.59.71.59,1.21,0,1.21-1.06,1.58-1.62,1.68l2.18,2.74h-.71l-2.12-2.68h-1.25v2.68h-.63v-6.11h0ZM104.07,7.55h1.26c1.04,0,1.62-.52,1.62-1.27,0-1.04-.89-1.28-2.03-1.28h-.85v2.55h0Z"/>
      <polygon class="cls-1" points="96.41 48.94 48.13 97.7 0 48.94 0 0 .03 0 48.13 48.2 96.38 0 96.41 0 96.41 48.94 96.41 48.94"/>
      <polygon class="cls-1" points="96.41 146.46 48.13 195.23 0 146.46 0 97.5 48.13 145.72 96.41 97.5 96.41 146.46 96.41 146.46"/>
    </g>
  </g>
</svg>