<?xml version="1.0" encoding="UTF-8"?>
<svg id="Capa_2" data-name="Capa 2" xmlns="http://www.w3.org/2000/svg" viewBox="0 0 283.3 60.84">
  <defs>
    <style>
      .cls-1 {
        fill: #312782;
        fill-rule: evenodd;
      }

      .cls-2 {
        fill: #1d1d1b;
      }

      .cls-3 {
        fill: none;
        stroke: #1d1d1b;
        stroke-miterlimit: 22.93;
        stroke-width: .5px;
      }
    </style>
  </defs>
  <g id="Capa_2-2" data-name="Capa 2">
    <g>
      <path class="cls-1" d="M14.61,49.11H0V2.44h33.03c18.7,1.47,25.15,21.41,9.21,32.57,3.8,1.68,7.59,8.63,7.95,11.59v14.23h-14.46v-15.07c0-2.77-3.31-6.76-6.47-6.91h-11.1v-9.85h12.8c7.18.03,9.97-14.61,0-14.85H14.6v34.95h0Z"/>
      <path class="cls-1" d="M96.46,49.75h-24.82c-20.29-.99-23.37-31.64-2.03-35.39h27.66v9.09l-7.29,12.63h-13.73l6.72-11.64h-8.75c-8.63.66-7.77,13.67-1.08,13.79h23.33v11.53h0Z"/>
      <path class="cls-1" d="M141.97,49.75h-24.82c-20.29-.99-23.37-31.64-2.03-35.39h27.66v9.09l-7.29,12.63h-13.73l6.72-11.64h-8.75c-8.63.66-7.77,13.67-1.08,13.79h23.33v11.53h0Z"/>
      <path class="cls-1" d="M147.42,49.75h25.06c27.09-1.47,21.01-35.75,3.83-35.93h-11.26v10.17h7.46c8,.36,7.42,13.94-.27,13.7h-9.76V2.29h-15.05v47.46h0Z"/>
      <path class="cls-1" d="M240.72,49.75V3.91h15.73v20.2h2.17c4.44-.05,8.55-3.86,9.49-9.22h15.19v1.77c.1,6.35-5.91,9.88-10.17,12.61,6.81.17,8.18,6.31,8.14,10.58v9.9h-14.37v-8.95c-.11-3.06-2.43-6.06-6.17-6.17h-4.83v15.12h-15.18Z"/>
      <path class="cls-3" d="M230.91,13.22c-3.58,0-6.48-2.9-6.48-6.48s2.9-6.48,6.48-6.48,6.48,2.9,6.48,6.48-2.9,6.48-6.48,6.48h0Z"/>
      <path class="cls-2" d="M228.21,10.58V2.34h3c.63,0,1.09.08,1.39.23.3.15.54.41.73.77.19.36.29.77.29,1.25,0,.62-.16,1.13-.49,1.51-.32.39-.8.63-1.42.74.25.15.44.3.57.46.27.31.5.67.7,1.05l1.18,2.24h-1.13l-.9-1.72c-.35-.67-.61-1.12-.79-1.36-.18-.23-.35-.39-.52-.47-.17-.08-.4-.12-.7-.12h-1.03v3.66h-.89ZM229.1,5.98h1.92c.42,0,.74-.05.96-.15.22-.1.39-.26.52-.48.13-.22.19-.47.19-.76,0-.42-.12-.74-.37-.98-.24-.24-.61-.36-1.08-.36h-2.14v2.73h0Z"/>
      <path class="cls-1" d="M216.85,13.76c-12.06,0-21.83,8.14-21.83,18.17s9.78,18.17,21.83,18.17,21.83-8.14,21.83-18.17-9.78-18.17-21.83-18.17ZM216.85,38.98c-4.49,0-8.14-3.16-8.14-7.05s3.64-7.05,8.14-7.05,8.14,3.16,8.14,7.05-3.64,7.05-8.14,7.05Z"/>
    </g>
  </g>
</svg>