<?xml version="1.0" encoding="UTF-8"?>
<svg id="Capa_2" data-name="Capa 2" xmlns="http://www.w3.org/2000/svg" viewBox="0 0 205.2 157.32">
  <defs>
    <style>
      .cls-1, .cls-2 {
        fill: #fff;
      }

      .cls-2, .cls-3 {
        fill-rule: evenodd;
      }

      .cls-3 {
        fill: #e50d2e;
      }

      .cls-4 {
        fill: #e73137;
      }
    </style>
  </defs>
  <g id="Capa_2-2" data-name="Capa 2">
    <g>
      <g>
        <path class="cls-3" d="M85.35,119.26c-2.2,0-3.83,2.05-3.83,3.76v1.82s-.69-1.27-2.13-2.53c-1.72-1.51-4.53-2.35-5.89-2.7-1.85-.48-4.9-.8-7.17-.91-2.26-.11-5.59.02-5.94.02s-3.28.19-3.97.28c-.69.09-4.12.6-5.96,1.3-1.84.69-3.02,1.26-4.32,2.31-1.3,1.05-2.52,2.46-3.17,4.36-.65,1.9-.69,2.93-.58,3.56.11.63.24,1.49,1.25,2.44,0,0-1.92,1.73-2.52,4.36l-7.84-9.56,6.54-5.31,4.42-3.65s1.37-1.1,1.3-2.96c-.06-1.68-1.49-3.78-3.84-3.78h-14.81s-1.56.11-2.46,1.1l-4.34,3.82s0-.95,0-1.29c.02-.93-.97-3.65-3.87-3.61H3.63s.09.02-.24.02C1.83,112.12.02,113.96,0,115.62c0,.02,0,14.03,0,14.03v16.38s0,.06,0,.22c-.04,2.26,2.03,3.52,3.69,3.52h11.86s.28,0,.67,0c2.34-.02,3.83-1.99,3.87-3.48l.02-2.31v-2.46l1.98,2.59,3.11,4.11s.69.82,1.44,1.16c.71.33,1.38.39,1.59.37h14.85s.31-.01.43-.03c.12-.01,1.38-.01,2.69-1.47,0,0,1.71.83,3.23,1.3,1.82.55,4.29.8,5.96.89,1.91.1,4.61-.16,5.33-.24,1.92-.21,3.92-.79,4.54-1.04,0,0,.76.63,2.02.73h13.31s.74-.09.92-.16v3.52s0,.27.01.51c.15,1.92,2.12,3.55,3.7,3.55.02,0,13.15.03,13.39,0,1.94-.27,3.4-2.44,3.38-3.66,0-.01.01-.37.01-.61v-3.22s1.78.46,3.59.58c1.8.12,4.03.03,5.82-.27,2.8-.46,4.75-1.29,5.82-1.85,1.4-.73,3.07-2.05,3.75-2.78.69-.73,1.15-1.29,1.54-1.89,0,0,.01,5.82.01,5.82v3.92s0,.23.02.37c.25,2.22,2.2,3.48,3.42,3.48.02,0,.22.03.34.03h12.87s.17,0,.25-.02c2.43-.23,3.5-2.32,3.6-3.51l.02-.23v-3.66s1.66.43,3.05.54c1.39.11,3.23.09,4.01.05.78-.05,2.8-.33,3.51-.48.89-.18,2.64-.74,3.43-1.06,1.38-.57,2.64-1.43,3.08-1.69.6-.35,2.25-1.98,2.45-2.22.09-.11.4-.49.4-.49,0,0,.47.88,1.38,1.82.91.94,2.12,1.68,2.25,1.75.35.2,1.86,1,3.06,1.35,2.29.68,3.2.76,3.92.85,2.35.28,4.21.28,5.41.2,1.2-.08,3.65-.34,5.06-.68,1.41-.34,2-.6,2-.6,0,0,.71.6,1.85.71.17.02.62.03.62.03h12.9s2-.14,3.11-1.8c.91-1.37.63-2.69.55-3.02-.08-.32-.29-1.17-1.14-2.04-.32-.33-.31-2.02-.31-2.09v-10.34s-.06-1.84-.28-2.92c-.16-.78-.68-3.05-2.59-4.85-2.01-1.89-4.09-2.53-4.33-2.61-.32-.11-2.49-.91-5.61-1.17-2.41-.2-3.06-.35-4.29-.34-1.23.02-4.75-.08-5.84.03-1.09.11-2.86.12-4.81.46-1.95.34-3.7.71-5.14,1.29-1.44.58-2.23.96-3.69,2.03-1.46,1.07-2.29,2.41-2.6,2.92-.31.51-.55,1.14-.55,1.14,0,0-1.18-1.66-1.77-2.32-.83-.94-2.51-2.42-4.14-3.27-1.83-.95-4.17-1.91-7.23-2.2-1.77-.17-4.7-.1-5.95.08-1.31.18-3.01.49-4.12.97,0,0-.87-.58-1.94-.58h-12.28c-.06,0-.09,0-.15,0-.86,0-1.77.46-2.31.87-.59.45-1.03,1.14-1.21,1.65-.19.5-.26.89-.28,1.3v3.04s-.44-.61-.52-.73c-.14-.22-.77-.94-.85-1.04-.08-.1-.66-.72-.98-1-.1-.09-.79-.71-1.16-.99-.17-.13-1.17-.88-1.9-1.27-.4-.22-1.07-.58-1.85-.91-.77-.31-2.56-.99-4.93-1.3-.38-.05-2.35-.26-3.84-.19-1.45.07-2.44.13-3.79.34-1.35.21-2.7.65-3.02.8,0,0-.74-.52-1.87-.59h-12.51Z"/>
        <path class="cls-4" d="M201.32,94.85c-.15.79-.53,1.76-1.02,2.66-.53.98-1.18,1.84-1.8,2.28-.34.24-1.13.96-1.51,1.21-3.04,2-6.99,2.96-10.18,3.23-.41.03-1.23.22-1.38.22h-6.55l-4.77-.64h-1.06c-.15,0-.55-.06-.79-.12l-2.92-.06c-1.09-.15-2.39-.1-3.46-.4-1.05-.27-2.17-.3-3.22-.8-1.16-.55-2.58-1.23-3.62-2.5-.6-.72-1.1-1.55-1.5-2.42h0c-.71-1.52-1.12-3.15-1.22-4.5-.01-.17-.1-.37-.1-.52v-1.87c-1.61-1.61-3.42-2.67-5.11-3.99-1.01-.79-2.02-1.68-3.01-2.43-2.07,3.01-3.94,6.3-6.52,9.36-1.04,1.23-2.24,2.62-3.51,3.96-.52.55-1.04,1.09-1.57,1.61-.65.63-1.54,1.19-2.26,1.77-1.45,1.15-3.16,1.94-4.54,2.47-.87.33-1.89.56-2.8.76-.31.06-.59.21-.9.26-.89.12-2.57.31-2.72.31l-3.78-.12h-8.21c-.15,0-.37-.07-.55-.08-.77-.05-1.65-.12-2.39-.35-2.61-.83-5.78-2.68-7.6-5.49-.25-.38-.5-.76-.74-1.13h0c-.26-.41-.52-.81-.76-1.19-.35.4-.7.8-1.03,1.2h0c-.2.24-.4.48-.59.72-.79.96-1.22,2.09-2.47,2.91-.57.38-1.23.89-1.84,1.23-.81.46-1.65.87-2.51,1.11-.74.22-1.63.24-2.39.39-1.59.31-2.16.24-5.01.45l-4.65-.06-3.99-.35c-.72-.17-1.44-.33-2.15-.51-.82-.22-1.69-.41-2.51-.74-.18-.07-.41-.24-.59-.31-1.99-.73-4.15-2.85-5.86-4.84h0c-.56-.66-1.08-1.3-1.52-1.87-.85-1.1-1.63-2.38-2.36-3.55-2.05-3.29-4.05-6.8-5.91-10.11-.51.52-1.13.91-1.65,1.35-.3.25-4.52,4-4.52,4.5,0,.15.13.5.16.73.08.52.14,1.55.14,1.7s0,1.12-.12,2.17c-.06.57-.31,1.39-.47,2-.26.96-.62,2.03-1.18,3.08-.61,1.15-1.45,2.28-2.66,3.24-.42.33-.97.55-1.44.8-2,1.08-3.96,1.53-5.85,1.69l-3.99-.06-2.86-.23c-.54-.06-1.13-.06-2.26,0l-5,.82-4.47.06c-.66-.06-1.37-.23-2.09-.28-2.14-.15-5.52-1.08-7.24-1.94-1.43-.71-3.29-2.28-4.84-4.08-1.23-1.42-2.28-3.01-2.76-4.46-1.09-3.26-.13-6.36-.13-6.36.06-.3.19-.65.28-1,.09-.35.29-.76.41-1.11.98-2.76,4.86-4.97,7.08-5.54,1.48-.38,2.85-1.16,4.28-1.77,2.08-.9,4.39-2,6.55-3.31.38-.23.69-.56,1.08-.79,1.16-.65,2.64-1.61,3.86-2.84,4.16-4.18,6.78-8.75,9.54-13.09.09-.15.28-.43.51-.79h0c.75-1.16,1.97-3.05,1.97-3.29-.31-.87-.41-1.58-.44-2.28,0-.3-.16-.7-.16-.85l.18-4.19c.06-.53.11-1.14.31-1.7,1.06-3.01,4.22-7.58,7.69-8.82.29-.1.88-.38,1.03-.38h2.19c.15,0,.51.29.66.29s.65-.26,1.01-.34c.7-.15,1.49-.31,2.26-.42l1.97-.06c1.09,0,.91-.06,2.43.35.42-.81,1.77-4.36,1.77-4.71,0-.15-.77-.84-1.05-1.33-.25-.44-.42-.99-.54-1.53-.11-.51-.2-1.53-.2-1.68s.04-.62.12-1.38c.03-.29-.03-.64.14-.89.91-1.4,2.96-3.93,2.96-4.08s-.33-.37-.4-.64c-.22-.86-.31-2.58-.31-2.73s-.03-.44.06-1.32c.03-.29.19-.63.22-.93.13-1.22.82-2.72,1.67-3.94.15-.22.2-.58.4-.82,1.15-1.4,2.43-2.69,3.92-3.77.29-.2,3.11-2.08,3.64-2.34.73-.37,2.64-1.46,3.84-1.89,1.02-.36,3.25-.6,3.92-.67,1.42-.16,2.54-.06,2.69-.06,0,0,4.99.08,6.25.31,1.27.23,2.08.59,2.92.87,1.43.48,2.58,1.21,3.94,1.88.06.05,1.44,1.13,1.51,1.22.76.97,2.83,3.5,2.97,3.68,1.91,2.44,2.38,5.06,2.77,7.42.56-1.21,1.18-2.47,1.77-3.67.35-.72,1.79-3.11,3.15-4.28.4-.34.98-.74,1.51-1.05.73-.42,2.21-.63,2.3-.69.5-.3,2.69-1,3.54-1.33s2.78-.83,3.33-.96c.81-.21,3.51-.36,3.65-.36.48,0,1.7.06,1.85.06s2.25.15,3.25.3c.42.07,1.07.34,1.22.34s1.82.52,2.43.86c.74.41,2.95,1.88,3.28,2.11,1.4.98,2.48,2.63,3.06,3.78.19.37.55.72.74,1.17.16.38.05.86.22,1.23.13.29,1.59,2.23,1.61,2.28,1.44.92,3.19,1.89,4.13,3.46.15.26.17.66.28,1,.3.94.29.8.29,1.47,0,.6-.16,1.37-.32,2.05-.1.42-.58,1.08-.58,1.22s.06,1.24.2,1.87c.03.19.41.34.49.64.27.87.5,1.98.5,2.87,0,.15-.12.88-.12,1.02s.76,1.41,1.14,2.07c1.78,3.01,3.59,5.93,5.1,8.88.46-.06.97,0,1.4-.2.65-.28,1.23-.87,1.85-1.08.38-.13.84-.23,1.26-.29.88-.13,1.79-.31,2.68-.31,1.73,0,4.28.78,6.04,2.39.94.86,2.46,2.18,3.14,3.18.93,1.38,1.52,3.07,1.65,4.46.03.34.15.76.16,1.12l.06,1.46c0,.15,0,.66-.12,1.76-.05.52-.23,1.4-.23,1.55,0,.09.12.32.31.62.45.73,1.22,1.8,1.33,1.97,2.47,3.69,4.93,7.55,7.57,11.36,1.5,2.16,3.41,4.58,5.79,6.58,1.13.95,2.63,1.5,3.87,2.26,1.48.91,2.87,1.97,4.29,2.99,2.76,1.97,5.78,2.86,8.39,4.27,2.09,1.13,3.34,2.15,4.06,3.17,1.7,2.41,1.5,4.64,1.27,5.84Z"/>
      </g>
      <g>
        <path class="cls-2" d="M3.87,145.91h12.39v-9.48l2.94-2.45,9.08,11.93h14.86l-15.28-18.66,13.81-11.26h-14.54l-10.87,9.68v-9.68H3.87v29.92ZM97.62,134.61c0-2.71,1.01-5.63,5.51-5.63s5.51,2.93,5.51,5.63-1.01,5.59-5.51,5.59-5.51-2.93-5.51-5.59ZM138.68,134.58c0-2.71,1.01-5.63,5.51-5.63s5.51,2.93,5.51,5.63-1.01,5.59-5.51,5.59-5.51-2.93-5.51-5.59ZM66.74,137.83c-.19,2.36-2.41,3.54-5.26,3.54-2.28,0-3.93-1.05-3.93-2.1,0-1.53,1.46-2.01,4.25-2.45,1.71-.26,3.42-.57,4.94-1.09v2.1ZM78.78,131.54c0-4.37.13-8.87-15.58-8.87-7.79,0-16.53,1.05-16.91,7.43h11.66c.06-.96.82-2.31,4.69-2.31,2.03,0,4.12.57,4.12,2.1,0,1.44-1.71,1.79-3.42,2.01-6.4.83-18.56.57-18.56,7.73,0,4.76,5.26,6.86,11.59,6.86,4.05,0,7.92-.61,10.58-2.71.06.61.25,1.53.57,2.14h12.8c-1.39-1.44-1.52-3.36-1.52-5.07v-9.3ZM187.64,137.84c-.19,2.36-2.41,3.54-5.26,3.54-2.28,0-3.93-1.05-3.93-2.1,0-1.53,1.46-2.01,4.24-2.45,1.71-.26,3.42-.57,4.94-1.09v2.1ZM199.68,131.55c0-4.37.13-8.87-15.58-8.87-7.79,0-16.53,1.05-16.91,7.43h11.66c.06-.96.82-2.32,4.69-2.32,2.03,0,4.12.57,4.12,2.1,0,1.44-1.71,1.79-3.42,2.01-6.4.83-18.56.57-18.56,7.73,0,4.76,5.26,6.86,11.59,6.86,4.05,0,7.92-.61,10.58-2.71.06.61.25,1.53.57,2.14h12.8c-1.39-1.44-1.52-3.36-1.52-5.07v-9.3ZM126.63,123.12v30.05h12.54v-9.83c.08,0,.97.91,2.38,1.62,1.45.73,3.48,1.37,6.33,1.46,2.85.1,5.04-.47,5.42-.55,2.07-.44,4.89-1.53,6.85-4.11,1.47-1.94,2.02-4.14,2.15-7.1.08-1.97-.8-4.64-1.64-5.89-.85-1.26-2.24-3.18-4.34-4.26-2.55-1.3-4.72-1.89-7.44-1.89-3.97,0-3.81.2-4.28.27-.36.05-2.22.32-3.8,1.27-1.58.95-1.94,1.51-1.94,1.51l-.13-2.57h-12.09ZM85.5,123.16v30.05h12.54v-9.83c.08,0,.97.91,2.38,1.62,1.45.73,3.48,1.37,6.33,1.46,2.85.1,5.04-.47,5.42-.55,2.07-.44,4.89-1.53,6.85-4.11,1.47-1.94,2.02-4.14,2.15-7.1.08-1.97-.8-4.64-1.64-5.89-.85-1.26-2.24-3.18-4.34-4.25-2.54-1.3-4.72-1.89-7.44-1.89-3.97,0-3.81.2-4.28.27-.36.05-2.22.32-3.8,1.27-1.58.95-1.94,1.51-1.94,1.51l-.13-2.57h-12.09Z"/>
        <path class="cls-1" d="M190.33,93.05c-.13-.24-.58-.49-.73-.49h-.81c-.15,0-.61-.05-.83-.13-1.04-.39-2.15-.92-3.1-1.52-2.1-1.35-4-3.04-6.09-4.42-.05-.03-.1-.07-.16-.11-1-.64-2.22-.87-3.16-1.44-1.27-.77-2.4-1.42-3.55-2.84-1.27-1.57-2.54-3.15-3.75-4.68-3.52-4.43-6.17-8.84-9.35-13.34-.89-1.27-2.62-3.54-3.65-4.96-.49-.67-.83-1.16-.83-1.23,0-.15.27-.64.34-.93.49-1.98.86-3.1.86-4.92l-.02-.76c-.01-.47-1.09-1.45-1.8-1.84l-1.08.24c-.25,1.32-.87,1.33-1.72,1.33-.15,0-.6-.06-1.55-.06-.48,0-1.04.26-1.5.37-.24.06-.48.21-.72.29-.24.09-.55.26-.77.35-.26.1-1.33.86-1.8.86-.95,0-3.96-1.17-4.34-1.63-.2-.24-.31-.62-.35-.93-.11-.73-.24-1.35-.57-2.05-.45-.95-.95-1.9-1.47-2.85-1.52-2.75-3.26-5.5-4.75-8.16-.68-1.22-1.51-2.49-2.21-3.75-.08-.16-.01-.35-.3-.76-.07-.4-.31-1.01-.31-1.16,0-.88.77-.13.77-1.31,0-.37-.06-.59-.41-1.27-.17-.37-.03-.86-.22-1.23-.12-.24-.46-.36-.69-.52.06-.4.18-1.1.18-1.25s-.54-1.35-.54-1.5.72-1.2.72-1.34-.18-.41-.31-.48c-.45-.21-.93-.35-1.43-.7-.33-.23-.79-.41-.99-.65-.28-.34-.24-.87-.27-1.16-.1-.86-1.32-1.83-1.69-2.58-.49-.99-.33-2.16-1.12-3.17-.2-.26-2.29-1.83-3.36-1.83-.15,0-1.28.29-1.43.29s-1.04-.23-1.59-.41h-.99c-.23,0-.97.94-1.21,1.04-.4.15-.84.08-1.19.15-.13.02-.73.34-1.04.34-.15,0-.96-.24-1.11-.24h-.94c-.15,0-.4.08-.5.14-.57.41-1.16.93-1.54,1.41-.22.28-.29.71-.45.98-.24.42-.63.8-.86,1.23-.18.32-.3.72-.45,1.05-.13.3-.38.62-.44.94-.3,1.62-.61,4.81-.61,4.95,0,.37.13.21.4.74.1.21.03.48.09.7.05.19.34.24.38.47.22,1.01.51,2.16.95,3.11.19.41.32.93.58,1.29.41.58.63,1.01.63,1.59,0,1.09-.16.74-1.46,1.54-.15.09-.2.34-.33.47.22.36.95,1.4.95,1.82,0,.37-1.37,1.14-1.37,1.37,0,.51.48,1.16.48,1.93,0,.15.04.45-.08.66-.11.2-.38.26-.49.42-1.06,1.59-4.17,6.43-4.59,7.24-.73,1.41-1.33,2.98-1.71,4.43-.48,0-.76-1.29-.89-1.62-.11-.29-.32-.64-.44-.94-.11-.28-.19-.6-.33-.88-.6-1.15-2.3-4.39-2.57-4.86-.78-1.41-1.59-2.84-2.38-4.21-.29-.5-.87-.9-1.09-1.46-.37-.94-2.37-2.44-3.41-3.5.35-.51.78-1.37.78-1.52,0-.76-.9-.42-.9-.97,0-.34.16-.33.59-.91-.29-.57-.86-.36-1.13-.48v-.51c0-.15.24-.64.36-.97l-1.22-1.85c.03-.22.03-.47,0-.61h.41c.11.11.24.29.52.22.03-4.17-.06-4.22-.05-4.28.05-.24.1-.51.1-.65s-.3-1.58-.3-1.73-.03-.32.02-.49c.06-.18.22-.36.22-.51s-.41-1.41-.41-1.56v-2.03c0-.15-.02-.5-.09-.72-.11-.42-.26-.93-.48-1.3-.26-.45-.69-.85-.98-1.23-.07-.09-.07-.25-.16-.35-.31-.35-.65-.77-1.06-1.05-.2-.14-.53,0-.71-.15-.93-.8-1.68-.86-2.51-.94-.46-.53-1.63-.92-2.25-.92-.15,0-.85.04-1.18.19-.7.32-.83.51-1.45.51-.73,0-1.07-.41-1.55-.41-.15,0-.54.35-.69.35h-2.48c-.15,0-.61.24-.84.26-.26.4-.58.85-.91,1.13-.14.13-.44.22-.59.33-.26.18-.51.54-.77.72-.16.11-.4.15-.47.22-.7.73-2.16,1.9-2.16,2.7,0,.7-.06.85-.06.99s0,.38.08.54c.22.38.65.65.94.93l-.95,2.64c.16.13.35.88.34,1.38-.94.95-1.86,1.87-2.71,2.81-.17.2-.32.58-.32.72,0,.74,1.73,1.13,1.73,1.69v1.48c.34.3.35.38.35.58,0,.15-.17,1.53-.32,2.22-.47,2.17-1.53,4.32-2.4,6.49-.52,1.32-.61,2.85-1.34,3.97-.95,1.48-6.17,3.03-8.14,3.03-.58,0-1.26-.11-1.87-.26-.9-.22-.7-.51-1.32-.51-1.41,0-2.78,1.2-3.6,1.38h-.01c-.06.01-.12.02-.17.02-.05,0-.1,0-.13-.02-.26-.09-.16-.45-1.03-.43-.13.16-.33.26-.46.43-.01.01-.02.02-.02.03-.77,1.31-1.15,1.86-1.15,2.97,0,1.3.42,2.46.91,3.79.17.47.58,1.33.58,1.48s-.1.56-.26.77c-1,1.48-2,3.15-2.85,4.69-.19.34-.37.67-.55.99-.31.58-.76,1.19-1.09,1.81-1.05,1.98-2.54,4.12-3.75,6.09l-1.25,2.05c-3.3,5.34-12.74,13.05-20.74,16.45-.26.1-.51.21-.76.31-.87.34-1.79.62-2.62.88-.47.15-1.05.19-1.49.39-.55.25-1.15.46-1.15,1.06,0,.79,1,1.15,1.57,1.35.29.1,1.04,0,1.17.34-.6.42-1.13.79-1.13,1.3,0,.15.37.66.63.94,1.29.31,2.79.77,4.11.86.18.01.4.16.55.16h.94c.15,0,.35.06.54.12l3.11-.06c2.34-.17,4.62-1.05,6.99-1.05l5.45.59h2.2c.15,0,1.24-.32,1.75-.62.45-.26.77-.95.79-1.29.04-.76,0-1.14,0-1.29l-.35-4-.06-.71c0-.15.19-.43.27-.66,1.29-3.53,6.2-7.02,9.37-10.06,1.83-1.76,4.08-3.63,5.4-5.45.8-1.09,1.39-2.28,2.18-3.33.16-.22.5-.34.65-.34s.52.1.63.39c1.13,2.76,2.31,5.67,3.79,8.43,1.68,3.13,3.42,6.3,5.56,9.43.52.77,1.04,1.54,1.54,2.31,1.29,1.95,2.57,3.92,4.15,5.94,1.07,1.38,2.83,2.08,4.11,2.3l10.01.06c1.11-.25,2.35-.13,3.35-.85.32-.23.55-.62.79-.86,2.26-2.23,3.74-4.41,5.11-6.6.67-1.08,1.31-2.15,2.01-3.24.49-.78.88-1.67,1.41-2.46.89-1.35,1.41-2.74,1.93-3.98.36-.86.78-1.74,1.01-2.58.16-.55.16-1.21.64-1.68.9,1.31.93,2.7,1.31,3.96.5,1.63,1.02,3.35,1.55,4.97.37,1.12.94,2.18,1.22,3.33.12.51.21,1.08.29,1.68.49,3.56.77,8.35,5.89,8.87l9.54.06c1.45-.27,3.05-.45,4.42-.96.61-.22,1.25-.51,1.79-.88,2.02-1.39,4.44-4.11,6.76-7.1,1.89-2.46,3.71-5.09,5.2-7.34.34-.51.58-1.08.87-1.52,2.16-3.24,3.89-6.44,6.04-9.65h.34c1.44,2.94,3.62,6.05,6.54,8.87,1.3,1.25,2.62,2.12,3.93,3.11.26.19.64.27.83.44,1.44,1.3,2.85,2.25,4.13,3.65.45.49,1.47,1.5,2.21,2.44.49.63.87,1.24.87,1.65,0,.15-.18.57-.22.81-.13.63-.2,1.76-.2,1.91s-.02.2.06,1.08c.04.48.16,1.01.56,1.4.56.56,1.36.9,1.91.97l6.73.06,3.87.59h.83c.15,0,.72.12,1.01.17l6.08.06c.48-.06,1.03-.11,1.5-.2.28-.05,2.53-.55,2.53-1.23,0-.15-.03-.51-.15-.72ZM71.61,33.76c.11-.12.31-.25.46-.25.92,0,1.62.27,2.39,1.36.16.22.65.8.65,1.07s0,.46-.61.82c-.51.29-1.15.49-1.73.74-.07.03-1.68.81-1.98.81-.24,0-.45-.06-.45-.38,0-.15.84-2.76,1.27-4.17ZM80.23,63.33l-.12,5.73c-.04.23-.3,2.78-1.11,2.78-.64,0-1.76-2.19-2.01-2.59-.62-.99-4.06-6.46-6.35-10.16-1.2-1.94-2.09-3.4-2.09-3.49,0-.49.63-.59.91-.71.84-.36,1.72-.8,2.62-1.29.4-.22.9-.45,1.31-.65,1.41-.67,3.11-1.74,4.54-2.24.13.12.26.3.3.49.2.8.38,2.39.38,2.53v.86c0,.5.93,4.05,1.02,4.33.02.06.04.12.07.17.29.72.93,1.74.93,2.47,0,.59-.2,1.18-.42,1.76ZM123.78,36.81c.12-.31.3-.64.54-.87.48-.48.83-.67,1.38-.67.15,0,.42-.03.55.08.74.6,1.11,1.43,1.51,2.1.69,1.14,1.2,2.19,1.69,3.33.61,1.44,1.93,4.35,1.93,4.49,0,.03-.01.07-.03.1-.05.12-.12.26.02.41h-.73c-.14,0-.5-.26-.74-.42h0s-.03-.02-.05-.03c-1.3-.79-2.71-1.63-3.99-2.5-.44-.29-.89-.7-1.31-1.02-.14-.1-2.04-1.21-2.04-1.79,0-.15.86-2.2,1.27-3.23ZM136.01,59.1c-.34.67-1.55,1.7-1.95,2.08-3.45,3.39-6.88,6.94-10.42,10.22-.56.52-.9.67-1.42.67-.99,0-.9-1.65-.9-2.19l.06-1.7c.22-1.14.16-2.72,1.5-3.69.09-.07.26.02.35-.04.6-.37,3.92-1.45,3.92-3.05,0-.63-.41-1.5-.76-2.29-.16-.35-.31-.69-.41-.98-.36-1.04-.91-3.11-.91-3.28v-.33c3.61,1.29,7.27,2.59,10.82,3.93.14.05.2.22.2.37,0,.08-.03.18-.09.28Z"/>
      </g>
    </g>
  </g>
</svg>