<?xml version="1.0" encoding="UTF-8"?>
<svg id="Capa_2" data-name="Capa 2" xmlns="http://www.w3.org/2000/svg" viewBox="0 0 258.79 73.84">
  <defs>
    <style>
      .cls-1 {
        fill: #1d1d1b;
      }
    </style>
  </defs>
  <g id="Capa_2-2" data-name="Capa 2">
    <g>
      <path class="cls-1" d="M118.2,42.28c0,8-.8,11.42-3.42,14.26-2.76,3.12-6.54,4.43-12.72,4.43-4.08,0-5.97-.22-9.9-1.16v-11.56c2.18.58,4,.87,5.82.87,4.36,0,5.89-1.75,5.89-6.83V11.74h14.32v30.54Z"/>
      <path class="cls-1" d="M151.17,11.74h-15.7l-14.98,48.5h12.07l2.91-9.53h13.02l2.69,9.53h15.2l-15.2-48.5ZM138.01,40.17l3.93-14.11,3.93,14.11h-7.85Z"/>
      <polygon class="cls-1" points="197.49 60.24 189.13 41.92 184.12 49.04 184.12 60.24 170.08 60.24 170.08 11.74 184.11 11.74 184.11 31.73 197.49 11.74 210.87 11.74 198.66 29.48 213.85 60.24 197.49 60.24"/>
      <path class="cls-1" d="M258.79,35.52c0-14.98-9.02-24.5-23.2-24.5s-22.9,10.03-22.9,25.09,9.31,24.87,23.34,24.87,22.76-10.33,22.76-25.45h0ZM235.74,49.99c-4.8,0-7.05-4.43-7.05-13.74h0c0-9.16,2.54-14.26,7.2-14.26s6.9,4.08,6.9,12.66c0,11.12-1.96,15.34-7.05,15.34Z"/>
      <path class="cls-1" d="M13.7,56.84c25.42-7.12,43.52-.53,43.52-.53,0-.01,6.41-21.13,6.41-21.13,0,0-26.82.36-53.28,16.93,1.26,2.12,1.97,3.03,3.35,4.73"/>
      <path class="cls-1" d="M3.09,36.92C3.09,18.26,18.27,3.09,36.92,3.09s33.83,15.18,33.83,33.83-15.18,33.83-33.83,33.83S3.09,55.57,3.09,36.92M0,36.92c0,20.36,16.57,36.92,36.92,36.92,20.36,0,36.92-16.56,36.92-36.92S57.28,0,36.92,0C16.57,0,0,16.56,0,36.92"/>
      <path class="cls-1" d="M9.04,49.57c17.67-12.16,38.31-17.06,38.31-17.06V8.17S30.68,15.87,7.18,44.14c.6,2.28,1.01,3.48,1.87,5.43"/>
    </g>
  </g>
</svg>