<?xml version="1.0" encoding="UTF-8"?>
<svg id="Capa_2" data-name="Capa 2" xmlns="http://www.w3.org/2000/svg" viewBox="0 0 239.82 139.98">
  <g id="Capa_2-2" data-name="Capa 2">
    <g>
      <path d="M175.98,52.34c19.47-8.56,32.18-21.42,32.87-35.69,0,0-5.14-3.96-21.73-10.06-14.57-5.36-25.69-6.59-25.69-6.59l.05,31.79c0,4.75-1.91,9.6-5.51,13.89-11.01-2.66-23.19-4.15-35.95-4.16h0c-12.77,0-24.96,1.5-35.99,4.16-3.6-4.29-5.51-9.14-5.51-13.9l.05-31.79s-11.11,1.23-25.69,6.59c-16.59,6.11-21.72,10.06-21.72,10.06.69,14.27,13.4,27.14,32.89,35.7-19.47,8.56-32.18,21.42-32.87,35.69,0,0,5.13,3.96,21.73,10.06,14.57,5.36,25.69,6.59,25.69,6.59l-.05-31.79c0-4.75,1.91-9.6,5.51-13.89,11.01,2.66,23.18,4.15,35.95,4.15h0c12.78,0,24.97-1.49,35.99-4.16,3.6,4.29,5.51,9.15,5.51,13.9l-.04,31.79s11.11-1.23,25.69-6.59c16.59-6.1,21.73-10.06,21.73-10.06-.69-14.27-13.41-27.14-32.89-35.69M120.01,59.5h-.38c-11.53,0-20.92-2.83-27.82-7.14,6.89-4.32,16.29-7.15,27.84-7.15h.35s.02,0,.02,0h.36c11.53,0,20.92,2.83,27.82,7.14-6.89,4.32-16.29,7.15-27.84,7.15"/>
      <path d="M5.68,139.91C.1,139.91,0,135.65,0,134.01v-7.75c0-.47-.04-1.09.96-1.09h2.89c.94,0,.88.67.88,1.09v7.75c0,.55.1,2.03,2.13,2.03h4.84c1.99,0,2.11-1.48,2.11-2.03v-7.75c0-.43-.06-1.09.88-1.09h2.91c1.06,0,.96.67.96,1.09v7.75c0,1.64-.1,5.9-5.7,5.9"/>
      <path d="M32.42,138.97c-1.97-2.65-4.78-6-7.65-9.53v9.43c0,.41.1,1.03-.88,1.03h-2.69c-.97,0-.86-.62-.86-1.03v-12.61c0-.43-.04-1.09.86-1.09h5.25c1.48,0,3.6,2.99,4.98,4.96,1.07,1.5,3.04,3.77,4.37,5.46v-9.33c0-.43-.06-1.09.92-1.09h2.92c.94,0,.88.67.88,1.09v13.65h-5.39c-1.15,0-1.66.08-2.71-.94"/>
      <path d="M54.62,136.03c2.36,0,2.19-2.27,2.19-3.3,0-3.48-.98-3.61-2.54-3.61h-7.42v6.91h7.77ZM42.3,139.91v-14.72h13.01c.8,0,6.12-.09,6.12,5.5s.62,9.22-6.01,9.22h-7.01l-1.52-3.08v3.08"/>
      <path d="M66.52,125.29h11.98c1.02,0,.88.66.88,1.89,0,1.15.15,1.79-.88,1.79h-9.47c-.25,0-1.11-.14-1.11.76s-.18,1.25.78,1.25h8.38s1.21,2.3,1.35,2.69c.2.35.18.68-.56.68h-8.67l-1.35-2.62v3.86c0,.9.8.72,1.03.72h9.84c.98,0,.9.68.9,1.79,0,1.2.08,1.86-.9,1.86h-12.45c-1.03,0-3.06-.31-3.06-3.55v-8.12c0-.84.45-3.02,3.32-3.02"/>
      <path d="M93.06,129.08h-5.84c-.97,0-.94.33-.94.63v2.63h6.01c2.91,0,2.91-.73,2.91-1.49,0-1.52-.12-1.77-2.15-1.77M82.62,125.19h13.12c1.76,0,4.31-.02,4.31,4.72,0,3.1-.66,3.26-2.06,4.22,2.36.41,2.05,3.43,2.05,5,0,.8-.29.78-.53.78h-3.84c-.8,0-.61-1.27-.61-1.93,0-1.82-1.01-1.74-1.41-1.74h-5.66c-.54-.94-1.6-3.05-1.6-3.05v6.11c0,.53-.53.61-.72.61h-3.86c.21,0-.4.04-.4-.49v-12.96c0-.92.65-1.27,1.21-1.27"/>
      <path d="M121.07,129.36l-2.42,4.41.21.21h4.51l.24-.21c-.16-.33-2.11-4.04-2.3-4.43l-.24.02M122.64,125.29c.96,0,1.89.43,2.91,2.4.69,1.4,5.45,10.01,6.44,11.81v.49h-4.96l-1.43-2.58h-6.03s-1.01-2.32-1.3-2.96c-.37.6-2.36,4.39-3.05,5.54h-4.97v-.31c1.01-1.91,7.94-14.38,7.94-14.38"/>
      <path d="M144.99,129.08h-5.84c-.97,0-.94.33-.94.63v2.63h6.01c2.91,0,2.91-.73,2.91-1.49,0-1.52-.12-1.77-2.15-1.77M134.55,125.19h13.12c1.76,0,4.31-.02,4.31,4.72,0,3.1-.66,3.26-2.07,4.22,2.36.41,2.05,3.43,2.05,5,0,.8-.29.78-.53.78h-3.84c-.8,0-.61-1.27-.61-1.93,0-1.82-1.01-1.74-1.41-1.74h-5.66c-.55-.94-1.6-3.05-1.6-3.05v6.11c0,.53-.52.61-.72.61h-3.86c.21,0-.39.04-.39-.49v-12.96c0-.92.65-1.27,1.21-1.27"/>
      <path d="M163.44,139.91c-.98-1.83-3.69-6.89-5.53-10.21v9.17c0,.41.06,1.03-.87,1.03h-2.66c-1,0-.92-.62-.92-1.03v-12.61c0-.43-.06-1.07.92-1.07h4.59c.68,0,1.65-.16,2.75,2.03.82,1.75,2.56,5.39,3.75,7.32,1.23-1.93,3.01-5.57,3.83-7.32,1.07-2.19,2.03-2.03,2.79-2.03h4.57c.94,0,.84.65.84,1.07v12.61c0,.41.13,1.03-.84,1.03h-2.67c-.97,0-.9-.62-.9-1.03v-9.17c-1.85,3.31-4.55,8.37-5.57,10.21"/>
      <path d="M192.13,136.16c2.21,0,2.13-2.28,2.13-3.81,0-1.37.31-3.51-2.56-3.51h-4.87c-2.85,0-2.51,2.15-2.51,3.51,0,1.53-.14,3.81,2.07,3.81h5.74ZM183.39,139.95c-4.35,0-4.16-4.67-4.16-7.69,0-2.77-.31-7.11,5.13-7.15h9.67c5.46,0,5.11,4.39,5.11,7.15,0,3.02.22,7.69-4.2,7.69"/>
      <path d="M206.42,139.91c-5.59,0-5.68-4.26-5.68-5.9v-7.75c0-.47-.04-1.09.96-1.09h2.89c.93,0,.88.67.88,1.09v7.75c0,.55.1,2.03,2.13,2.03h4.84c1.99,0,2.11-1.48,2.11-2.03v-7.75c0-.43-.06-1.09.88-1.09h2.91c1.06,0,.96.67.96,1.09v7.75c0,1.64-.1,5.9-5.7,5.9"/>
      <path d="M232.82,129.08h-5.84c-.97,0-.94.33-.94.63v2.63h6.01c2.91,0,2.91-.73,2.91-1.49,0-1.52-.12-1.77-2.15-1.77M222.38,125.19h13.12c1.76,0,4.32-.02,4.32,4.72,0,3.1-.67,3.26-2.07,4.22,2.36.41,2.05,3.43,2.05,5,0,.8-.29.78-.53.78h-3.84c-.8,0-.61-1.27-.61-1.93,0-1.82-1.01-1.74-1.4-1.74h-5.66c-.54-.94-1.6-3.05-1.6-3.05v6.11c0,.53-.53.61-.72.61h-3.86c.21,0-.39.04-.39-.49v-12.96c0-.92.65-1.27,1.21-1.27"/>
    </g>
  </g>
</svg>