<?xml version="1.0" encoding="UTF-8"?>
<svg id="Capa_2" data-name="Capa 2" xmlns="http://www.w3.org/2000/svg" viewBox="0 0 221.7 45.59">
  <defs>
    <style>
      .cls-1 {
        fill: #070707;
        fill-rule: evenodd;
      }
    </style>
  </defs>
  <g id="Capa_2-2" data-name="Capa 2">
    <g>
      <path class="cls-1" d="M2.23,17.18c0,.35.03.48.08.93,0,.46-.88.86-1.7,1.95-.7,1.64.87,2.12,1.98,2.84.26-.97.79-1.28,1.46-1.9.6-.24,4.11-.98,5.76.83,2.2,2.21-1.51,4.07-4.57,7.13-2.59-1.9-3.64-3.88-5.25-.09-.01.88.25,1.68.84,2.08l1.32-.92,1.58,1.39-.89,1.14c1.3,1.91,3.32-.01,4.18-1.08l1.66,1.29,3.13-2.92c3.22-1.79,6.66-.48,7.38,2.79l-.05,12.95,2.53-2.51c.17-.31.64-.55.19-1.42.73.5.88.19,1.3-.15l1.49-1.48c.21-.17.57-.86.2-1.35.73.43,1.15-.05,1.37-.33l1.39-1.52.03-15.57c2.32-.21,4.38,0,6.17-.84,2.05-1.22,2.47-1.14,4.22-3.1.47-.63,1.22-1.28.46-2.51,1.14.61,2.21-.14,2.57-.65l1.96-1.97c.07,0,.93-1.14.14-2.27.93.72,2.04-.28,2.3-.77l2.99-2.96c.14,0,.81-.79.27-1.67.76.29,1.43-.05,1.51-.36l3.56-3.58-40.41-.02c-3.57.18-5.4,3-2.82,5.77l6.74,6.62c-3.36.01-8.81-.51-12.11.21-1.84,1.51-2.91,1.77-2.93,3.65l3.24-2.81-.16,1.93-2.06.39-1.03.86"/>
      <path class="cls-1" d="M187.27,18.36c4.36-2.05,9.31-1.88,13.92-3.59,2.05-.77,2.82-2.99,1.71-5.98-2.56-4.01-5.64-3.25-10.85-2.82,4.61,1.96,3.59,8.54-2.39,9.22-5.21.17-6.23-3.16-6.15-6.41.43-6.32,6.58-8.28,12.3-8.8,3.93,0,14.35-.26,16.65,5.12,1.11,2.73,1.45,6.32,1.45,9.65v13.92c.34,1.79,3.5,1.71,3.5-.09v-5.98h4.19c.26,7.17.51,12.13-7.09,13.66-4.7.34-8.11-.51-11.19-4.18-5.04,3.59-7.94,5.12-14.01,3.84-8.11-1.79-9.74-13.92-2.05-17.59M202.9,19.99l.09,4.61c-.34,7-8.97,7.6-9.91,2.48-1.02-4.53,7-6.32,9.82-7.09ZM84.53,7.01c-5.55.26-7,1.2-7.09,3.76l.09,21.61c.17,10.42-8.46,13.15-15.46,13.15-6.83-.17-11.44-2.73-13.84-8.2-1.11-4.7-.43-9.48,5.3-10.42,5.72-1.11,9.99,8.11,3.59,10.93.26,2.48,6.83,3.33,7-1.71V9.91c.09-4.27-4.7-3.25-7.43-3.42V.6h27.84v6.41ZM182.74,29.98v5.98l-20.41.09v-5.89c3.67-.09,4.78-1.71,4.78-4.18,0-8.63.43-15.8-2.14-16.91-4.36-2.22-8.88-.51-9.91,4.95v11.36c0,3.93,1.11,4.44,4.1,4.7v5.89l-19.05.09v-5.89c3.25-.09,4.27-1.79,4.44-4.78v-12.9c-.09-3.07-1.45-4.44-4.61-4.7-5.64.43-6.75,2.73-6.58,7.26l.09,10.33c.17,3.93,1.54,4.7,4.18,4.78v5.81h-20.84v-5.81c3.16.09,5.55-.09,5.55-3.33v-15.97c-.09-3.33-2.39-2.73-5.21-2.82l.09-6.49h15.97v3.93c3.76-4.87,13.32-6.66,19.98-.68,1.62,2.56,1.28,1.2,3.25-.09,6.23-4.78,14.09-4.95,18.79,0,2.65,2.65,1.88,5.98,1.96,9.39v11.53c.34,4.18,3.42,4.36,5.55,4.36ZM98.53,37.5c-25.62-.34-23.57-36.64,1.2-36.81,25.88-.09,27.07,37.83-1.2,36.81ZM100.67,7.26c10.42.26,9.48,24,.34,24.17-11.53.34-11.62-23.91-.34-24.17Z"/>
    </g>
  </g>
</svg>