<?xml version="1.0" encoding="UTF-8"?>
<svg id="Capa_2" data-name="Capa 2" xmlns="http://www.w3.org/2000/svg" viewBox="0 0 147.47 181.85">
  <defs>
    <style>
      .cls-1 {
        fill-rule: evenodd;
      }
    </style>
  </defs>
  <g id="Capa_2-2" data-name="Capa 2">
    <path class="cls-1" d="M0,13.93l73.87,167.93,19.25-42.22c6.64-14.79,52.95-119.18,54.35-125.74l-53.26,45.39c-10.8,10.26-19.32,19-31.76,7.61L17.92,28.7C11.91,23.7,6.22,17.58,0,13.93h0ZM71.66.53c6.58-2.71,12.47,5.59,16.54,8.82,1.91,1.51,14.2,12.02,14.45,12.55,3.31,6.9-7.32,12.38-10.92,15.82-20.54,19.61-19.27,12.86-32.07,2.74-15.76-12.46-19.06-14.79-10.89-21.54,5.88-4.85,17.08-15.99,22.9-18.39Z"/>
  </g>
</svg>