<?xml version="1.0" encoding="UTF-8"?>
<svg id="Capa_2" data-name="Capa 2" xmlns="http://www.w3.org/2000/svg" viewBox="0 0 260.75 86.77">
  <defs>
    <style>
      .cls-1 {
        fill: #006;
      }
    </style>
  </defs>
  <g id="Capa_2-2" data-name="Capa 2">
    <g>
      <path class="cls-1" d="M26.97,61.54c-4.95,0-7.33-3.81-6.09-8.21,2.57-9.13,19.05-22.65,30.29-22.65,8.19,0,7.57,7.33,2.77,13.58l-2.65,2.94c-9.52,9.34-18.35,14.34-24.31,14.34M67.12,0c-14.34,0-30.13,8.78-40.04,17.08l.78,1.13C43.26,7.43,64.61.41,70.5,10.94c3.11,5.55-2.17,16.76-9.6,25.62,1.78-3.91.6-11.43-9.76-11.43-17.23,0-51.14,22.82-51.14,46.17,0,9.36,6.49,15.46,17.18,15.46,28.61,0,67.42-46.9,67.42-70.46,0-8.32-4.79-16.31-17.48-16.31"/>
      <path class="cls-1" d="M103.96,61.54c-1.67,0-3.05-.58-3.92-1.64-.9-1.11-1.17-2.69-.74-4.32.95-3.53,4.76-6.31,8.67-6.31h9.21l-3.29,12.27h-9.93ZM130.43,24.76c-2.63-3.24-6.9-4.69-9.95-4.69h-16.73l-2.84,10.59h15.78l1.51.16s1.45.17,2.25,1.24c.65.9.74,2.24.28,3.99l-.75,2.79h-9.94c-8.56,0-20.49,6.14-23.15,16.06-1.32,4.95-.16,9.23,2.41,12.38,2.55,3.12,7.36,4.85,12.56,4.85h9.21,0,11.7l5.49-20.5,4.04-15.07c1.59-5.93-.13-9.69-1.86-11.8"/>
      <path class="cls-1" d="M245.39,20.08c-4.53,0-8.73,1.34-12.16,3.88-3.45,2.56-5.36,5.63-6.5,9.87-2.46,9.19,4.76,13.62,10.56,16.77,4.16,2.25,7.76,4.2,6.98,7.08-.55,2.07-1.45,3.88-6.57,3.88h-15.63l-2.84,10.59h17.3c4.64,0,8.92-.97,12.37-3.61,3.45-2.66,5.4-6.36,6.61-10.88,1.16-4.3.38-8.41-2.39-11.47-2.31-2.57-5.62-4.36-8.55-5.94-3.75-2.02-7.28-3.92-6.66-6.22.38-1.4,1.76-3.34,4.79-3.34h15.2l2.84-10.59h-15.36Z"/>
      <path class="cls-1" d="M154.7,20.08c-4.53,0-8.73,1.34-12.15,3.88-3.45,2.56-5.36,5.63-6.51,9.87-2.46,9.19,4.77,13.62,10.57,16.77,4.16,2.25,7.75,4.2,6.98,7.08-.56,2.07-1.45,3.88-6.57,3.88h-15.62l-2.84,10.59h17.3c4.64,0,8.92-.97,12.37-3.61,3.46-2.66,5.4-6.36,6.61-10.88,1.15-4.3.37-8.41-2.38-11.47-2.31-2.57-5.63-4.36-8.56-5.94-3.74-2.02-7.27-3.92-6.65-6.22.37-1.4,1.76-3.34,4.78-3.34h15.19l2.85-10.59h-15.35Z"/>
      <polygon class="cls-1" points="178.3 20.08 164.73 72.13 176.19 72.13 189.75 20.08 178.3 20.08"/>
      <path class="cls-1" d="M220.24,20.08c-20.18.07-30.74,13.51-34.09,26.03-3.97,14.84,3.93,26.03,18.38,26.03h9.68l2.84-10.59h-9.68c-5.41,0-12.85-4.26-9.85-15.44,2.38-8.89,11.05-15.43,20.55-15.43h6.15l2.84-10.59h-6.82Z"/>
    </g>
  </g>
</svg>