<?xml version="1.0" encoding="UTF-8"?>
<svg id="Capa_2" data-name="Capa 2" xmlns="http://www.w3.org/2000/svg" viewBox="0 0 162.33 191.83">
  <g id="Capa_2-2" data-name="Capa 2">
    <g>
      <polygon points="16.51 175.95 26.59 191.28 18.58 191.28 11.43 180.41 6.88 184.4 6.89 191.28 0 191.28 0 167.12 6.89 167.12 6.88 176.77 7.21 176.77 17.7 167.12 26.59 167.12 16.51 175.95"/>
      <polygon points="57.96 167.12 57.96 172.54 41.83 172.54 41.83 176.35 52.3 176.35 52.3 181.41 41.83 181.41 41.83 185.68 57.96 185.68 57.96 191.28 34.94 191.28 34.94 167.12 57.96 167.12"/>
      <polygon points="92.03 185.68 92.03 191.28 67.96 191.28 67.96 167.12 74.85 167.12 74.85 185.68 92.03 185.68"/>
      <polygon points="162.31 167.12 162.31 172.54 146.19 172.54 146.19 176.35 156.66 176.35 156.66 181.41 146.19 181.41 146.19 185.68 162.31 185.68 162.31 191.28 139.3 191.28 139.3 167.12 162.31 167.12"/>
      <polygon points="114.45 191.83 106.42 177.69 106.42 191.28 99.83 191.28 99.83 167.12 106.42 167.12 114.45 180.21 122.47 167.12 129.06 167.12 129.06 191.28 122.47 191.28 122.47 177.69 114.45 191.83"/>
      <path d="M126.17,118.07c0,12.43-10.08,22.51-22.51,22.51-3.61,0-7.04-.85-10.07-2.38-3.74-1.87-7.96-2.93-12.44-2.93s-8.7,1.05-12.44,2.93c-3.03,1.52-6.45,2.38-10.06,2.38-12.44,0-22.51-10.08-22.51-22.51v-.31c.01-2.88.49-5.74,1.43-8.46.91-2.75,2.11-5.38,3.57-7.86,1.33-2.3,2.81-4.52,4.4-6.65,2.6-3.48,5.41-6.81,8.42-9.95,3.7-4.02,7.59-7.87,11.67-11.52,2.02-1.72,4.18-3.26,6.46-4.62,5.67-2.97,12.45-2.97,18.13,0,2.28,1.35,4.45,2.9,6.46,4.62,4.08,3.65,7.97,7.5,11.67,11.52,3.01,3.14,5.83,6.46,8.42,9.95,1.59,2.13,3.06,4.35,4.4,6.65,1.47,2.49,2.67,5.12,3.57,7.86.93,2.72,1.41,5.58,1.42,8.46v.31Z"/>
      <path d="M137.95,46.99c-4.58,1.02-8.93,2.91-12.8,5.56-2,1.32-3.78,2.95-5.26,4.84-2.09,2.63-3.38,5.81-3.7,9.15-.25,2.52.11,5.06,1.08,7.4.72,1.81,1.84,3.43,3.26,4.75,1.33,1.43,2.95,2.54,4.75,3.26,2.34.97,4.89,1.34,7.4,1.08,3.34-.32,6.53-1.61,9.15-3.7,1.89-1.48,3.52-3.25,4.84-5.26,2.66-3.87,4.54-8.22,5.56-12.8.36-1.67.57-3.36.63-5.06.05-1.63-.16-3.26-.62-4.83-.31-1.04-.87-1.99-1.65-2.76-.77-.77-1.72-1.34-2.77-1.65-1.57-.45-3.19-.65-4.83-.62-1.7.06-3.4.27-5.06.63"/>
      <path d="M160.3,42.81c1.11-1.8,1.82-3.82,2.04-5.92-2.1.23-4.13.92-5.92,2.04-.66.38-1.23.9-1.66,1.54-.72,1.15-.56,2.65.38,3.63.98.94,2.47,1.1,3.63.37.64-.43,1.16-.99,1.54-1.66"/>
      <path d="M96.73,20.96c-3.47,3.17-6.29,6.98-8.31,11.22-1.08,2.14-1.8,4.44-2.14,6.82-.5,3.32-.03,6.72,1.37,9.78,1.04,2.31,2.63,4.33,4.63,5.87,1.53,1.2,3.31,2.05,5.21,2.48,1.86.58,3.82.73,5.75.45,2.51-.33,4.89-1.29,6.95-2.76,2.73-1.95,4.85-4.66,6.07-7.78.9-2.22,1.43-4.58,1.56-6.98.37-4.68-.17-9.39-1.58-13.87-.52-1.62-1.18-3.19-1.99-4.69-.78-1.44-1.77-2.75-2.95-3.88-.79-.75-1.76-1.29-2.81-1.57-1.05-.28-2.16-.3-3.22-.04-1.59.39-3.1,1.03-4.5,1.88-1.44.9-2.8,1.93-4.06,3.07"/>
      <path d="M113.98,6.17c.07-2.11-.34-4.21-1.2-6.14-1.7,1.24-3.11,2.86-4.11,4.72-.38.66-.62,1.41-.66,2.17-.05,1.36.83,2.58,2.14,2.96,1.32.33,2.7-.29,3.33-1.49.34-.69.51-1.45.51-2.21"/>
      <path d="M46.07,26.16c-1.41,4.48-1.95,9.19-1.58,13.87.13,2.39.66,4.75,1.56,6.98,1.23,3.13,3.34,5.83,6.08,7.78,2.06,1.48,4.44,2.43,6.95,2.77,1.93.27,3.89.12,5.75-.45,1.9-.43,3.67-1.28,5.2-2.48,2.01-1.55,3.6-3.56,4.64-5.87,1.4-3.06,1.87-6.46,1.37-9.78-.33-2.37-1.05-4.68-2.14-6.82-2.02-4.23-4.84-8.04-8.3-11.22-1.26-1.14-2.62-2.17-4.07-3.07-1.39-.86-2.91-1.49-4.49-1.89-1.06-.25-2.16-.24-3.22.05-1.05.28-2.02.82-2.81,1.57-1.17,1.14-2.17,2.44-2.94,3.88-.8,1.5-1.47,3.08-1.99,4.69"/>
      <path d="M53.62,4.73c-.99-1.86-2.4-3.48-4.1-4.73-.86,1.93-1.27,4.04-1.2,6.15,0,.77.17,1.52.5,2.21.64,1.2,2.01,1.83,3.33,1.49,1.31-.37,2.19-1.6,2.14-2.95-.05-.77-.27-1.51-.67-2.17"/>
      <path d="M10.1,61.3c1.02,4.58,2.91,8.93,5.56,12.8,1.31,2.01,2.95,3.79,4.84,5.26,2.63,2.1,5.81,3.38,9.15,3.7,2.52.26,5.06-.12,7.4-1.08,1.8-.73,3.43-1.85,4.75-3.27,1.43-1.33,2.54-2.95,3.26-4.75.97-2.34,1.34-4.88,1.09-7.4-.32-3.34-1.61-6.53-3.7-9.15-1.47-1.89-3.25-3.53-5.26-4.84-3.87-2.66-8.22-4.54-12.8-5.56-1.67-.36-3.36-.57-5.06-.63-1.63-.05-3.26.16-4.83.62-1.05.31-2,.88-2.76,1.65-.77.77-1.34,1.72-1.65,2.76-.45,1.57-.65,3.2-.61,4.83.05,1.7.26,3.4.63,5.06"/>
      <path d="M5.92,38.96C4.13,37.84,2.1,37.15,0,36.92c.22,2.1.92,4.13,2.03,5.92.38.67.91,1.24,1.54,1.66,1.15.72,2.65.57,3.63-.38.95-.98,1.1-2.48.38-3.63-.43-.64-1-1.17-1.67-1.54"/>
    </g>
  </g>
</svg>