<?xml version="1.0" encoding="UTF-8"?>
<svg id="Capa_2" data-name="Capa 2" xmlns="http://www.w3.org/2000/svg" viewBox="0 0 244.87 130.55">
  <defs>
    <style>
      .cls-1 {
        fill: #c10a27;
      }
    </style>
  </defs>
  <g id="Capa_2-2" data-name="Capa 2">
    <path class="cls-1" d="M0,129.82v-22.29h4.94v1.92c.88-.83,2.73-2.69,6.1-2.69,1.92,0,4.86.85,6.7,3.1,2.06,2.45,2.06,6.18,2.06,7.91v12.05h-5.34v-11c0-1.85,0-7.14-4.5-7.14-.97,0-2.69.48-3.66,1.96-.97,1.37-.97,3.7-.97,5.58v10.6H0M26.61,116.77h12.32c-.6-3.58-3.37-5.22-6.01-5.22-1.97,0-5.31,1.08-6.31,5.22M26.76,121.07c.24,1.45,2.33,4.58,6.15,4.58,2.36,0,4.13-1,5.13-2.84h5.63c-1.29,4.01-5.54,7.75-10.76,7.75-6.63,0-11.77-5.3-11.77-11.81s4.86-12.09,11.72-12.09,11.53,6.11,11.53,11.73c0,1.05-.17,1.97-.32,2.69h-17.31ZM51.24,129.82h3.29l4.22-14.46h.07l4.18,14.46h3.29l8.15-22.29h-5.7l-4.1,13.61h-.08l-3.61-13.61h-4.26l-3.65,13.61h-.08l-4.05-13.61h-5.7l8.03,22.29ZM89.79,118.38c0,4.94,3.58,7.26,6.71,7.26,3.5,0,6.42-2.69,6.42-7.02s-3.12-6.95-6.5-6.95c-4.09,0-6.63,3.46-6.63,6.7M84.78,100.11h5.34v9.45c1.84-1.85,4.46-2.78,6.95-2.78,6.79,0,11.2,5.91,11.2,11.81,0,4.46-2.94,11.97-11.08,11.97-4.3,0-6.19-1.92-7.51-3.41v2.69h-4.89v-29.72ZM128.14,118.62c0-4.62-3.34-6.95-6.51-6.95-4.38,0-6.62,3.77-6.62,7.1,0,3.78,2.81,6.87,6.62,6.87s6.51-2.89,6.51-7.02M133.2,129.82h-4.91v-2.76c-1.68,2-4.98,3.49-7.79,3.49-5.74,0-10.84-4.58-10.84-12.01,0-6.83,4.98-11.77,11.16-11.77,4.53,0,7.22,3.26,7.39,3.59h.08v-2.82h4.91v22.28ZM141.38,100.11h-5.34v29.72h5.34v-29.72ZM161.45,118.62c0-4.62-3.33-6.95-6.5-6.95-4.38,0-6.63,3.77-6.63,7.1,0,3.78,2.81,6.87,6.63,6.87s6.5-2.89,6.5-7.02M166.51,129.82h-4.9v-2.76c-1.69,2-4.98,3.49-7.79,3.49-5.74,0-10.84-4.58-10.84-12.01,0-6.83,4.97-11.77,11.17-11.77,4.53,0,7.22,3.26,7.38,3.59h.08v-2.82h4.9v22.28ZM169.35,129.82h5.33v-10.6c0-1.89,0-4.21.97-5.58.97-1.48,2.69-1.96,3.66-1.96,4.5,0,4.5,5.3,4.5,7.14v11h5.34v-12.05c0-1.73,0-5.46-2.06-7.91-1.84-2.25-4.77-3.1-6.7-3.1-3.38,0-5.22,1.86-6.1,2.69v-1.92h-4.94v22.29M208.12,122.55c-1.41,2.25-3.17,3.09-4.94,3.09-4.02,0-6.71-3.17-6.71-6.98,0-4.58,3.22-6.98,6.46-6.98s4.54,2.12,5.18,3.25h6.03c-2.29-6.87-8.4-8.15-11.21-8.15-6.14,0-11.8,4.99-11.8,11.81,0,7.39,6.14,11.97,11.85,11.97,5.22,0,9.35-3.01,11.16-7.99h-6.03M220.43,116.77h12.32c-.6-3.58-3.37-5.22-6.02-5.22-1.96,0-5.3,1.08-6.3,5.22M220.59,121.07c.23,1.45,2.32,4.58,6.14,4.58,2.38,0,4.14-1,5.14-2.84h5.62c-1.28,4.01-5.54,7.75-10.76,7.75-6.63,0-11.77-5.3-11.77-11.81s4.86-12.09,11.73-12.09,11.52,6.11,11.52,11.73c0,1.05-.16,1.97-.32,2.69h-17.3ZM123.33,30.28l26.03,1.69-1,1.73-88.8,5.77-3.95,6.86,82.5,5.2-1,1.73-45.92,2.68,3.48,13.03,32.27,1.97-1.01,1.74-29.75,2.1,2.8,10.99,56.81-.02c13.68,0,38.27-9.05,41.12-28.04,1.61-10.71-7.72-14.84-11.46-15.29,17.64-4.97,23.66-16.84,24.94-21.55,4.25-15.56-6.7-20.85-21.49-20.85h-48.12s-6.07,10.54-6.07,10.54l25.94,1.81-.97,1.75-28.05,1.8-8.29,14.38M169.9,16.78h7.95c3.42,0,6,4,4.08,8.71-2.08,5.07-7.78,7.57-13.24,7.6l-8.21.05,9.43-16.35ZM160.44,49.5c2.86,0,6.95,2.98,4.72,8.74-2.4,6.21-10.21,8.39-14.58,8.39h-9.41l9.88-17.13h9.38ZM36.84,78.92l-3.96,6.86,40.82-.04,5.69-9.8-42.55,2.98ZM78.33,6.87l39.24,2.46L115.09.03,82.28,0l-3.95,6.86ZM70.92,19.73l-3.95,6.86,56.05,3.69-3.57-13.6-48.52,3.06ZM48.19,59.19l-3.95,6.87,39.5,2.21,7.14-12.32-42.69,3.24ZM244.29,127.15c0-1.44-1.08-2.51-2.47-2.51s-2.47,1.08-2.47,2.51,1.07,2.53,2.47,2.53,2.47-1.06,2.47-2.53M238.77,127.15c0-1.73,1.41-3.01,3.05-3.01s3.05,1.28,3.05,3.01-1.4,3.01-3.05,3.01-3.05-1.27-3.05-3.01M241.19,126.95h.63c.65,0,.86-.19.86-.57,0-.33-.16-.52-.78-.52h-.72v1.09ZM241.19,128.89h-.54v-3.47h1.33c.83,0,1.24.31,1.24.99,0,.62-.39.89-.91.96l.99,1.53h-.58l-.93-1.51h-.6v1.51Z"/>
  </g>
</svg>