<?xml version="1.0" encoding="UTF-8"?>
<svg id="Capa_2" data-name="Capa 2" xmlns="http://www.w3.org/2000/svg" viewBox="0 0 260.26 93.68">
  <defs>
    <style>
      .cls-1 {
        fill-rule: evenodd;
      }
    </style>
  </defs>
  <g id="Capa_2-2" data-name="Capa 2">
    <g>
      <path class="cls-1" d="M33.34,4.17C10.04,31.53-11.96,67.96,7.46,84.73c18.82,16.26,42.35,6.63,58.38.21C81.88,78.52,259.16,1.54,259.16,1.54c1.72-.86,1.39-1.93-.75-1.39-.86.21-192.99,52.29-192.99,52.29-24.38,6.85-52.18-8.06-32.08-48.27h0Z"/>
      <g>
        <path class="cls-1" d="M76.26,86.57c-2.07,0-3.69,1.45-3.69,3.56s1.63,3.55,3.69,3.55,3.69-1.45,3.69-3.55c.01-2.11-1.62-3.56-3.69-3.56ZM76.26,92.67c-1.48,0-2.57-1.08-2.57-2.53s1.08-2.54,2.57-2.54,2.57,1.1,2.57,2.54-1.12,2.53-2.57,2.53Z"/>
        <path class="cls-1" d="M76.9,90.38c.51-.02.92-.29.92-1.01,0-.92-.6-1.16-1.61-1.16h-1.45v3.83h.97v-1.63h.16l.88,1.63h1.12l-.99-1.66ZM76.27,89.76h-.55v-.89h.46c.29,0,.61.03.61.41,0,.4-.18.48-.53.48Z"/>
      </g>
    </g>
  </g>
</svg>