<?xml version="1.0" encoding="UTF-8"?>
<svg id="Capa_2" data-name="Capa 2" xmlns="http://www.w3.org/2000/svg" viewBox="0 0 312.37 93.48">
  <defs>
    <style>
      .cls-1 {
        fill: #e20613;
      }

      .cls-1, .cls-2 {
        fill-rule: evenodd;
      }

      .cls-2 {
        stroke-width: .22px;
      }

      .cls-2, .cls-3 {
        fill: #1d1d1b;
      }

      .cls-2, .cls-4 {
        stroke: #1d1d1b;
        stroke-miterlimit: 22.93;
      }

      .cls-4 {
        fill: none;
        stroke-width: .5px;
      }
    </style>
  </defs>
  <g id="Capa_2-2" data-name="Capa 2">
    <g>
      <path class="cls-1" d="M0,20.52L107.82,0l118.95,76.52C159.53,42.2,92.29,16.58,0,20.52h0Z"/>
      <path class="cls-2" d="M29.82,73.82l42.39,8.26c16.06-20.64,38.83-30.6,62.78-38.49l-27.48-9c-27.19,4.92-52.93,19.32-77.69,39.22h0Z"/>
      <path class="cls-2" d="M87.58,85.08l42.45,8.28c9.11-19.09,26.73-31.05,41.51-37.8l-24.64-8.07c-17.95,2.36-45.62,20.45-59.32,37.59h0Z"/>
      <path class="cls-2" d="M152.1,22.39l36.54,23.47c40.54-14.49,78.69-30.05,122.43-38.68-52.99,1.52-105.99,5.86-158.98,15.2h0Z"/>
      <path class="cls-4" d="M300.57,30.18c-4.21,0-7.63-3.42-7.63-7.63s3.42-7.63,7.63-7.63,7.63,3.42,7.63,7.63-3.42,7.63-7.63,7.63h0Z"/>
      <path class="cls-3" d="M297.38,27.08v-9.71h3.53c.74,0,1.28.09,1.63.27.35.18.64.48.86.9.23.42.34.91.34,1.47,0,.73-.19,1.33-.57,1.78-.38.45-.94.74-1.67.87.3.18.52.35.68.54.31.37.59.78.83,1.24l1.39,2.64h-1.32l-1.06-2.02c-.41-.79-.72-1.32-.93-1.6-.21-.27-.41-.46-.61-.55-.2-.09-.47-.14-.82-.14h-1.22v4.31h-1.05ZM298.44,21.66h2.26c.49,0,.87-.06,1.13-.18.26-.12.46-.3.61-.56.15-.26.23-.55.23-.89,0-.49-.14-.87-.43-1.15-.28-.28-.71-.42-1.28-.42h-2.52v3.21h0Z"/>
    </g>
  </g>
</svg>