<?xml version="1.0" encoding="UTF-8"?>
<svg id="Capa_2" data-name="Capa 2" xmlns="http://www.w3.org/2000/svg" viewBox="0 0 165.96 166.56">
  <defs>
    <style>
      .cls-1 {
        fill: #1d1d1b;
      }
    </style>
  </defs>
  <g id="Capa_2-2" data-name="Capa 2">
    <path class="cls-1" d="M80.75,32.22l-24.13-24.15c-1.08-1.08-3.52-1.08-4.58.03L7.58,52.51c-1.27,1.3-1.24,3.25,0,4.5l44.47,44.31c1.06,1.11,3.49,1.08,4.58,0l24.13-23.97c1.19-1.22,3.25-1.22,4.44,0l24.13,23.97c1.08,1.08,3.49,1.08,4.55,0l44.5-44.31c1.22-1.22,1.24-3.23,0-4.5L113.87,8.1c-1.06-1.08-3.47-1.11-4.55-.03l-24.13,24.15c-1.22,1.24-3.2,1.24-4.44,0h0ZM80.78,85.92l-19.84,19.74c-4.13,4.13-9.13,4.13-13.25,0L3.18,61.35c-4.23-4.26-4.26-8.94,0-13.23L47.68,3.73c4.13-4.1,9.13-4.07,13.25.03l19.84,19.76c1.22,1.19,3.23,1.19,4.42,0L104.96,3.76c4.1-4.13,9.13-4.13,13.25-.03l44.5,44.39c4.26,4.29,4.26,8.97,0,13.23l-44.5,44.31c-4.13,4.1-9.15,4.13-13.25,0l-19.76-19.74c-1.22-1.24-3.15-1.27-4.42,0h0ZM85.19,68.65c-1.22-1.22-3.2-1.22-4.42,0l-24.15,24.07c-1.08,1.03-3.52,1.06-4.58,0L16.25,57.01c-1.24-1.24-1.3-3.2,0-4.5L52.05,16.77c1.06-1.11,3.52-1.06,4.58-.03l24.15,24.18c1.19,1.19,3.23,1.19,4.42,0l24.13-24.18c1.03-1.01,3.49-1.03,4.55.03l35.82,35.74c1.27,1.27,1.24,3.28,0,4.5l-35.82,35.71c-1.06,1.03-3.49,1.01-4.55,0l-24.13-24.07h0ZM161.09.5c-2.41,0-4.37,1.96-4.37,4.36s1.96,4.37,4.37,4.37,4.36-1.96,4.36-4.37-1.96-4.36-4.36-4.36h0ZM161.09,0c2.7,0,4.87,2.2,4.87,4.87s-2.17,4.87-4.87,4.87-4.87-2.17-4.87-4.87,2.2-4.87,4.87-4.87h0ZM158.9,7.22V2.51h2.28c.69,0,1.19.11,1.51.32.29.21.45.56.45,1.03,0,.29-.08.53-.19.71-.13.21-.32.34-.58.45.26.05.45.19.58.34.11.16.19.4.19.71l.03.66.13.48h-1.53l-.08-.5c0-.71-.03-.87-.13-.98-.11-.08-.26-.13-.5-.13h-.63v1.61h-1.51ZM160.4,4.55h.69c.24,0,.4-.05.5-.11.13-.5.08-.63,0-.69-.11-.05-.29-.11-.56-.11h-.63v.9h0ZM147.73,118.7c7.72-.82,16.06.9,16.75,11.27l-16.75-11.27h0ZM152.07,143.01c-5.08,2.41-10.05,3.84-9.36,9.39.42,5.85,9.36,6.3,9.36-2.46v-6.93h0ZM152.31,162.64c-4.31,6.32-22.35,6.11-22.25-8.99.16-13.89,6.96-12.54,18.12-17.04,6.32-2.51,3.89-8.86,0-8.86-4.29,0-5.48,1.9-5.48,6.98h-12.65c0-11.38,5.5-14.95,14.97-15.77l19.47,12.91v26.83c0,3.57.48,5.61,1.4,7.65h-12.14c-1.06-1.11-1.43-1.77-1.45-3.7h0ZM66.04,166.35v-45.37h11.69v6.98c3.2-6.98,6.24-7.57,9.97-7.57v13.86c-6.77,0-8.68,0-8.68,6.24v25.85h-12.99ZM39.93,166.35v-45.37h11.75v6.98c3.1-6.98,6.19-7.57,10.08-7.57v13.86c-6.98,0-8.89,0-8.89,6.24v25.85h-12.94ZM103.61,136.06h9.36c0-4.68-1.06-8.68-4.76-8.68s-4.6,3.99-4.6,8.68h0ZM103.61,144.28v7.01c0,4.97,8.92,8.2,8.92-2.33h12.35c-.05,10.53-4.92,17.38-15.5,17.38s-18.07-3.52-18.07-14.21v-19.21c0-10.56,8.31-14.44,18.07-14.44s15.5,3.89,15.5,14.5v11.3h-21.27ZM12.36,136.06h9.31c0-4.68-1.06-8.68-4.76-8.68s-4.55,3.99-4.55,8.68h0ZM12.36,144.28v7.01c0,4.97,8.86,8.2,8.86-2.33h12.38c-.03,10.53-4.92,17.38-15.5,17.38S0,162.83,0,152.14v-19.21c0-10.56,8.33-14.44,18.09-14.44s15.5,3.89,15.5,14.5v11.3H12.36Z"/>
  </g>
</svg>