<?xml version="1.0" encoding="UTF-8"?>
<svg id="Capa_2" data-name="Capa 2" xmlns="http://www.w3.org/2000/svg" viewBox="0 0 181.99 161.14">
  <defs>
    <style>
      .cls-1 {
        fill-rule: evenodd;
      }
    </style>
  </defs>
  <g id="Capa_2-2" data-name="Capa 2">
    <g>
      <path class="cls-1" d="M78.09,115.6h-31.94c9.54,5.91,20.71,9.82,33.42,12.46l-1.48-12.46h0ZM102.44,115.63l-1.9,11.7c12.76-2.35,24.02-6.04,33.79-11.7h-31.88ZM98.78,115.57l-17.55.03c2.46,5.12,5.6,9.43,9.18,13.55,3.53-4.2,5.88-8.54,8.37-13.57h0ZM146,107.79l-111.71-.06c-3.72-2.97-6.24-4.51-9.24-8.45h130.32c-2.91,3.19-6.24,6.07-9.38,8.51h0ZM162.65,89.6l-144.37.05c-1.93-2.69-4.14-6.47-5.51-9.46h155.4c-1.46,3.36-3.42,6.47-5.52,9.41h0ZM59.34,69.95l-50.41.03C4.31,59.31,1.4,48.31,0,34.65c25.97,4.62,46.02,15.28,59.34,35.3h0ZM110.98,70.03h-41.45c-.92-26.67,6.47-53.74,20.74-70.03,14.5,15.87,22,42.83,20.71,70.03h0ZM172.42,69.98l-51.39.03c14.19-19.96,34.57-31.24,60.96-35.24-1.65,13.35-4.73,24.69-9.57,35.21"/>
      <g>
        <path d="M138.1,138.84c-1.83,0-3.38,1.37-3.38,3.42s1.4,3.43,3.38,3.43c1.78,0,3.34-1.36,3.34-3.43s-1.56-3.42-3.34-3.42ZM138.1,145.09c-1.64,0-2.65-1.27-2.65-2.83,0-1.67,1.16-2.83,2.65-2.83s2.61,1.16,2.61,2.83-1.16,2.83-2.61,2.83Z"/>
        <path d="M139.61,141.51c0-.76-.47-1.09-1.38-1.09h-1.44v3.8h.63v-1.62h.58l.99,1.62h.7l-1.06-1.68c.57-.06.99-.34.99-1.03ZM137.42,142.07v-1.11h.75c.38,0,.82.06.82.51,0,.55-.41.6-.88.6h-.69Z"/>
      </g>
      <g>
        <path class="cls-1" d="M99.34,146.26c-1.27-.82-2.75-1.29-4.36-1.29h-.04c-4.44.03-8.04,3.65-8.04,8.09s3.61,8.06,8.04,8.09h.04c1.61,0,3.09-.48,4.36-1.29v.84h3.72v-20.57h-3.72v6.14h0ZM99.34,153.9c-.39,2.04-2.2,3.61-4.36,3.61h-.04c-2.44-.03-4.41-2.01-4.41-4.45s1.97-4.42,4.41-4.44h.04c2.15,0,3.96,1.55,4.36,3.59v1.69"/>
        <path class="cls-1" d="M116.79,146.26c-1.25-.82-2.75-1.29-4.36-1.29h-.04c-4.44.03-8.04,3.65-8.04,8.09s3.61,8.06,8.04,8.09h.04c1.61,0,3.1-.48,4.36-1.29v.84h3.72v-15.31h-3.72v.88h0ZM116.79,153.9c-.39,2.04-2.2,3.61-4.36,3.61h-.04c-2.44-.03-4.41-2.01-4.41-4.45s1.97-4.42,4.41-4.44h.04c2.15,0,3.96,1.55,4.36,3.59v1.69"/>
        <path class="cls-1" d="M133.72,152.05c-.14-.07-.33-.14-.54-.22-.83-.29-2.18-.64-4.06-1.05-1.65-.37-2.48-.84-2.48-1.44,0-.42.15-.76.44-1.01.38-.33,1.06-.49,2.04-.49s1.72.22,2.14.64c.26.26.45.72.57,1.37h3.95c0-1.93-.79-3.32-2.34-4.17-.08-.05-.16-.1-.26-.14-1.08-.5-2.5-.76-4.29-.76-2.16,0-3.8.57-4.89,1.73-.87.93-1.29,2.06-1.29,3.39,0,1.66.82,2.86,2.48,3.63.63.3,2.15.72,4.57,1.24,1.62.35,2.44.86,2.44,1.5,0,.38-.16.71-.52,1.01-.45.38-1.13.57-2.04.57-1.21,0-2.07-.2-2.57-.6-.5-.38-.76-.94-.76-1.65h-4.14c0,1.88.79,3.28,2.38,4.21,1.27.72,2.93,1.09,4.98,1.09,1.37,0,2.6-.23,3.65-.68.22-.1.41-.19.61-.3,1.62-.9,2.44-2.33,2.44-4.29,0-1.61-.83-2.8-2.5-3.59"/>
        <path class="cls-1" d="M58.21,146.26c-1.27-.82-2.76-1.29-4.37-1.29h-.04c-4.42.03-8.03,3.65-8.03,8.09s3.61,8.06,8.03,8.09h.04c1.61,0,3.1-.48,4.37-1.29v.84h3.72v-15.31h-3.72v.88h0ZM58.21,153.9c-.39,2.04-2.2,3.61-4.37,3.61h-.04c-2.42-.03-4.4-2.01-4.4-4.45s1.97-4.42,4.4-4.44h.04c2.16,0,3.97,1.55,4.37,3.59v1.69"/>
        <polygon class="cls-1" points="81.4 143.76 85.44 143.76 85.44 140.2 81.4 140.2 81.4 143.76 81.4 143.76"/>
        <polygon class="cls-1" points="81.4 160.69 85.44 160.69 85.44 144.97 81.4 144.97 81.4 160.69 81.4 160.69"/>
        <path class="cls-1" d="M75.83,146.26c-1.27-.82-2.76-1.29-4.37-1.29h-.04c-4.44.03-8.04,3.65-8.04,8.09s3.61,8.06,8.04,8.09h.04c1.61,0,3.1-.48,4.37-1.29v.84h3.72v-20.57h-3.72v6.14h0ZM75.83,153.9c-.39,2.04-2.2,3.61-4.37,3.61h-.04c-2.44-.03-4.41-2.01-4.41-4.45s1.97-4.42,4.41-4.44h.04c2.16,0,3.97,1.55,4.37,3.59v1.69"/>
      </g>
    </g>
  </g>
</svg>