<?xml version="1.0" encoding="UTF-8"?>
<svg id="Capa_2" data-name="Capa 2" xmlns="http://www.w3.org/2000/svg" viewBox="0 0 267.19 88.44">
  <g id="Capa_2-2" data-name="Capa 2">
    <g>
      <path d="M153.35,0h-.67c-.94,0-1.7.76-1.7,1.7v52.95c-3.75-6.74-10.71-11.29-18.75-11.29-11.96,0-21.7,10.09-21.7,22.5s9.73,22.5,21.7,22.5c8.04,0,15-4.55,18.75-11.34v9.33c0,.89.76,1.65,1.7,1.65h.67c.89,0,1.65-.76,1.65-1.65V1.7c0-.94-.76-1.7-1.65-1.7Z"/>
      <path d="M53.26,0h-.67c-.89,0-1.65.76-1.65,1.7v9.37c0,.89.76,1.65,1.65,1.65h.67c.94,0,1.7-.76,1.7-1.65V1.7c0-.94-.76-1.7-1.7-1.7Z"/>
      <path d="M105.36,43.39h-.67c-.94,0-1.7.76-1.7,1.65v10.94c-3.53-7.5-10.94-12.63-19.46-12.63-11.96,0-21.7,10.09-21.7,22.5s9.73,22.5,21.7,22.5c8.53,0,15.94-5.18,19.46-12.63v10.62c0,.89.76,1.65,1.7,1.65h.67c.89,0,1.65-.76,1.65-1.65v-41.29c0-.89-.76-1.65-1.65-1.65Z"/>
      <path d="M53.26,43.39h-.67c-.89,0-1.65.76-1.65,1.65v41.29c0,.89.76,1.65,1.65,1.65h.67c.94,0,1.7-.76,1.7-1.65v-41.29c0-.89-.76-1.65-1.7-1.65Z"/>
      <path d="M42.86,0h-.67c-.89,0-1.65.76-1.65,1.7v52.95c-3.75-6.74-10.8-11.29-18.84-11.29-11.92,0-21.7,10.09-21.7,22.5s9.78,22.5,21.7,22.5c8.04,0,15.09-4.55,18.84-11.34v9.33c0,.89.76,1.65,1.65,1.65h.67c.94,0,1.7-.76,1.7-1.65V1.7c0-.94-.76-1.7-1.7-1.7Z"/>
      <path d="M195.89,38.21h16.11c-.05-.09-.09-.18-.09-.27-3.79-8.66-9.87-15.31-18.22-20,7.14-.89,13.35-2.68,18.22-5.8,0-.05.04-.05.09-.09-.05-.04-.09-.04-.09-.09-4.33-2.95-8.66-5.89-12.99-8.84-3.84,2.68-9.55,5.36-14.82,5.45-8.39.09-16.88-2.68-24.2-5.45-1.16.49-2.77,1.43-3.93,1.96,23.88,7.63,34.06,19.69,39.91,33.12Z"/>
      <path d="M234.06,40.13c2.95-1.03,6.07-1.61,9.33-1.61,4.24-.31,3.08-4.15,0-3.93-3.26,0-6.38.49-9.33,1.43-7.72,2.32-14.19,7.54-18.26,14.38v-5.36c0-.89-.76-1.65-1.65-1.65h-.67c-.71,0-1.34.45-1.56,1.03-.09.22-.13.4-.13.62v41.29c0,.22.05.4.13.63.22.63.85,1.03,1.56,1.03h.67c.89,0,1.65-.76,1.65-1.65v-25c1.87-9.87,8.97-17.9,18.26-21.21Z"/>
      <path d="M265.53,43.48h-.67c-.94,0-1.7.76-1.7,1.7v10.89c-3.53-7.45-10.94-12.63-19.46-12.63-3.48,0-6.74.85-9.64,2.32-7.14,3.71-12.05,11.38-12.05,20.18s4.91,16.47,12.05,20.18c2.9,1.47,6.16,2.32,9.64,2.32,8.53,0,15.94-5.13,19.46-12.63v10.63c0,.94.76,1.69,1.7,1.69h.67c.89,0,1.65-.76,1.65-1.69v-41.25c0-.94-.76-1.7-1.65-1.7Z"/>
      <path d="M181.2,43.57c-12.1,0-21.92,9.87-21.92,21.92s9.82,21.96,21.92,21.96,21.96-9.87,21.96-21.96-9.86-21.92-21.96-21.92Z"/>
    </g>
  </g>
</svg>