<?xml version="1.0" encoding="UTF-8"?>
<svg id="Capa_2" data-name="Capa 2" xmlns="http://www.w3.org/2000/svg" viewBox="0 0 195.73 99.2">
  <defs>
    <style>
      .cls-1 {
        fill-rule: evenodd;
      }
    </style>
  </defs>
  <g id="Capa_2-2" data-name="Capa 2">
    <g>
      <path class="cls-1" d="M23.5,49.15H1.68q-1.62,0-1.62,1.18H.06v43.99H.06s-.03,0-.06.03h0v.03h0c.03.25.31.96,1.24.96h10.57q1.03,0,1.03-.93h0v-8.86h0c0-1.21,0-1.4,1.18-1.4h9.48c5.04-.22,6.28-1.4,6.28-7.12h0v-21.95h0c0-4.88-1.24-5.94-6.28-5.94h0ZM17.01,76.45c-.06,1.37-1.09,2.05-2.08,2.05-1.06,0-2.08-.72-2.08-2.18h0v-20.05h0c0-1.37,1.03-2.08,2.08-2.08s2.08.71,2.08,2.18h0v20.08h0Z"/>
      <path class="cls-1" d="M64.2,50.21c0-1.06-.22-.72-1.18-1.06h-10.45q-1.15,0-1.15,1.06h0l-.03,36.4h0c0,3.57-4.04,3.48-4.04,0h0v-36.4h0q0-1.06-1.06-1.06h-10.91q-1.27,0-1.27,1.06h0v38.52h0c0,5.69,1.27,6.62,4.76,6.62h20.21c3.95,0,5.25-1.06,5.13-6.28h0v-38.86h0Z"/>
      <path class="cls-1" d="M109.71,49.15h-36c-4.29,0-5.56,1.06-5.56,5.25h0v40.01h0q0,.93,1.27.93h10.1q1.4,0,1.4-.93h0v-37.68h0c0-3.3,4.04-3.64,4.04,0h0v37.68h0q0,.93,1.52.93h10.07q1.18,0,1.18-.93h0v-37.68h0c0-3.11,4.04-3.3,4.04,0h0v37.68h0q0,.93,1.27.93h10.35q1.15,0,1.15-.93h0v-40.26h0c0-3.95-1.27-5.01-4.85-5.01h0Z"/>
      <path class="cls-1" d="M144.65,49.15h-20.42c-3.39,0-4.79,1.06-4.79,5.04h0v40.23h0q0,.93,1.4.93h10.1q1.27,0,1.27-.93h0v-8.98h0c.12-1.4,1.06-2.11,2.02-2.15,1.03-.03,2.05.72,2.05,2.27h0v8.86h0q0,.93,1.27.93h10.48q1.03,0,1.03-.93h0v-40.26h0c0-3.95-1.06-5.01-4.41-5.01h0ZM136.29,76.45c0,1.24-1.03,1.87-2.05,1.83-.99,0-2.02-.62-2.02-1.83h0v-19.71h0c0-1.37,1.03-2.02,2.02-2.02,1.03.03,2.05.72,2.05,2.02h0v19.71h0Z"/>
      <path class="cls-1" d="M160.26,88.14h-.09c-3.02,0-5.5,2.49-5.5,5.56s2.49,5.5,5.5,5.5h.09c3.05-.03,5.47-2.49,5.47-5.5s-2.42-5.5-5.47-5.56h0ZM164.61,94.17c-.34,2.33-2.18,3.89-4.35,3.92-.59,0-1.18-.09-1.77-.31-1.83-.9-2.86-2.46-2.7-4.51.34-2.49,2.36-4.04,4.48-4.01,1.21,0,2.42.5,3.36,1.62.75,1.06,1.06,1.96.99,3.3h0Z"/>
      <path class="cls-1" d="M162.03,93.79c.4-.37.62-.87.62-1.46,0-.53-.25-1-.75-1.34-.43-.34-1.03-.56-1.65-.59h-2.39l-.03,6.62h1.09l-.03-2.58h.84l.53.71,1.4,1.83h1.06l-2.05-2.61h0c.47,0,.93-.25,1.37-.59h0ZM160.04,93.61h-1.12l-.03-2.49h1.15c.09,0,.16.03.22.03.34.03.68.16.9.34.28.22.47.56.47.84,0,.37-.16.65-.47.9-.25.22-.56.34-.9.37h-.22Z"/>
      <path class="cls-1" d="M194.99,2.15c-.96-1.55-3.05-1.09-5.57.12-3.26,1.4-9.14,7.93-10.57,11.56-1.27,5.22-4.26,10.04-9.11,15.23-4.88,3.98-13.55,2.39-18.56-.78-.31,0-20.86-16.01-20.86-16.01-7.37-5.81-12.5-8.33-18.68-9.08-.31-.19-.59-.5-.68-.71-.96-2.15-1.15-1.96-1.83-2.49-.81.62-1.4.96-2.21,1.21-.37,0-.43,0-.65-.12-.5-.22-1.03-.65-1.55-.68-.62.12-1.12,1.37-1.96,2.61,0,0-1.43,1.24-2.74,2.33-.5.44-.56,1.12-.9,1.52-.68.75-1.49,1.96-1.62,1.96-.31.87-.44,1.65.12,2.05,0,.96.5,1.21.68,1.43.16.31.19.44.4.65.37.16.68.22,1.06.31,1.99,1.83,2.8,1.8,5.1,1.49,3.98.28,3.64,1.62,3.54,3.64-.25.31-.31.28-.59.44-1.77,0-3.64-.4-5.41-.4-3.89.34-7.24,1.03-6.93,5.72.25,1.83,3.58,4.38,5.32.93.25-1.59,1.59-.87,2.74-.5,6.96,3.02,12.53,4.57,16.23,1.43,1.12-1.4,1.8-.4,2.95.43,5.6,6.65,13.62,10.97,25.96,11.13,4.1,1.03,7.24,2.74,8.8,6.78,3.82,9.79,8.67,17.69,15.79,21.82-.59,6.19-.34,11.32,5.91,12.65,1.65-1.34-.65-3.36,1.24-7.9-.16-2.02-1.9-3.67-2.49-7.52-7.27-5.97-4.2-8.42-5.29-12.4-.09-5.81-1.37-10.26-3.82-14.67-.28-.72.19-1.24.84-1.62,4.1-3.08,6.34-6.09,7.34-9.02,1.52-5.19,4.1-9.26,7.77-12.19,3.11-2.49,6.06-3.26,9.42-5.47,2.08-3.42,1.77-4.35.81-5.91h0Z"/>
    </g>
  </g>
</svg>