<?xml version="1.0" encoding="UTF-8"?>
<svg id="Capa_2" data-name="Capa 2" xmlns="http://www.w3.org/2000/svg" viewBox="0 0 179.48 167.98">
  <defs>
    <style>
      .cls-1 {
        fill: #111;
      }
    </style>
  </defs>
  <g id="Capa_2-2" data-name="Capa 2">
    <path class="cls-1" d="M101.33,10.66v-.56c0-2.62.84-4.95,2.52-7.01,1.68-2.06,3.83-3.08,6.45-3.08s4.95.84,7.01,2.52c2.06,1.68,3.18,3.93,3.37,6.73.19,2.8-.65,5.14-2.52,7.01-1.87,1.87-4.11,2.8-6.73,2.8l-1.68.56.56.84-.56,3.08-1.12,8.97c.37.37.56.75.56,1.12l-1.12,5.61c-.37.75-.75,1.31-1.12,1.68l-.56,2.24c-.75,2.99-1.4,5.42-1.96,7.29s-1.03,3.37-1.4,4.49v1.12c-.37,1.87-.65,3.37-.84,4.49-.19,1.12-.84,2.99-1.96,5.61-.75,1.5-.75,3.93,0,7.29l.56.56c0,1.12.47,2.43,1.4,3.93s1.4,2.8,1.4,3.93c.37,7.48-.19,13.83-1.68,19.07l1.12,3.37c4.49,2.24,5.8,4.67,3.93,7.29l2.8,1.12c4.49,2.24,7.67,4.21,9.53,5.89,1.87,1.68,3.74,3.46,5.61,5.33,1.5.37,2.62.93,3.37,1.68l1.68.56c7.85,5.23,15.7,11.59,23.56,19.07l2.24,1.68v.56l-.56,1.12,1.68,1.12h.56c1.12.75,1.87,1.12,2.24,1.12h.56c.37,0,.75-.19,1.12-.56l1.12-.56c.75-.75,1.5-1.31,2.24-1.68h2.24c.37,0,.37.19,0,.56l-2.24,1.12-2.8,3.37h3.93l3.93.56c1.12-.37,2.06-.75,2.8-1.12l2.8-1.68c1.12-.37,2.24,0,3.37,1.12h.56c.37.37.19.93-.56,1.68l-6.73,6.17c-1.87,1.5-3.55,2.43-5.05,2.8l-7.29,5.05c-.37.37-.75.37-1.12,0l-1.68-2.24-1.12-2.24-1.4-1.96-1.68-2.24-1.4-1.68-1.12-1.4-2.24-1.68c-.75,0-1.5-.19-2.24-.56l-7.29-5.61c-1.12,0-2.43-.56-3.93-1.68-5.61-4.86-9.35-7.85-11.22-8.97l-3.37-2.24-6.73-1.12c-2.24-.37-5.23-1.5-8.97-3.37l-4.49-2.24c-2.99-1.5-5.05-2.24-6.17-2.24l-2.24-1.12c-1.5-.37-2.62-.75-3.37-1.12l-1.12-1.12c-.75,0-1.5.19-2.24.56l-11.22,5.61-14.02,6.17c-3.74,2.99-7.29,5.42-10.66,7.29l-6.17,2.8-9.53,6.73c-.75.75-1.5.75-2.24,0l-1.12,1.12c-1.12.37-1.87.56-2.24.56l-2.24,1.12v1.12h-1.12l-1.12,1.68c-.75,1.5-1.5,2.34-2.24,2.52-.75.19-1.22.47-1.4.84-.19.37-.37.65-.56.84l-1.12,1.12-1.68,1.12-2.52-.28-3.37.56-2.24.56c-1.87.37-3.37.09-4.49-.84-1.12-.93-2.06-2.34-2.8-4.21C-.37,158.73,0,157.79,1.5,157.05l.56-.56c.37-.37.93-.56,1.68-.56h3.37l4.49-1.68,2.24-.56c0-.75.19-1.31.56-1.68s.93-.56,1.68-.56v-.56c-.37-.75-.56-1.5-.56-2.24-.37-.75-.47-1.31-.28-1.68s.37-.56.56-.56h.28l.56,1.68c.37,1.87.93,2.43,1.68,1.68l.56-1.12c.37-.75.93-1.12,1.68-1.12l1.12,1.12,1.12-1.12-.56-.56c0-.37.19-.56.56-.56l2.24-2.24c1.87-2.24,4.11-4.3,6.73-6.17,5.23-4.11,10.84-7.29,16.83-9.53,1.87-1.87,3.93-2.8,6.17-2.8,1.5-2.62,3.74-5.42,6.73-8.41,2.62-1.87,4.49-3.18,5.61-3.93.75-1.5,1.68-2.24,2.8-2.24h.56l1.12-1.12c.75-.37,1.31-.75,1.68-1.12v-2.8c0-1.87.19-3.37.56-4.49s1.31-1.68,2.8-1.68l2.24-2.24c-.75-1.5-1.12-3.18-1.12-5.05h-.56c-.75-1.12-1.12-2.24-1.12-3.37-1.12-1.87-1.87-3.37-2.24-4.49h-1.68c-.37,1.12-1.31,1.87-2.8,2.24l-.56,1.12c-1.5,2.62-2.8,4.58-3.93,5.89-1.12,1.31-3.18,2.9-6.17,4.77-1.87,1.87-3.18,3.93-3.93,6.17-.37,1.12-.37,2.24,0,3.37l-.56,1.12h.56c0,.75.19,1.12.56,1.12h.56c.75.37,1.12.84,1.12,1.4s-.56.75-1.68.56c-1.12-.19-1.96-.56-2.52-1.12-.56-.56-1.03-.84-1.4-.84l-1.68,1.68c-.75,1.12-1.5,1.59-2.24,1.4s-.93-.47-.56-.84l.56-.56c.37-.75.37-1.12,0-1.12l-4.49,1.12c-.37.37-.84.37-1.4,0s-.47-.75.28-1.12l2.8-1.12c0-.37-.19-.56-.56-.56-1.5.75-2.99.93-4.49.56l-2.8-.56-.56-.56c0-.37.19-.56.56-.56,1.5.37,3.37.19,5.61-.56l3.93-1.68,4.49-5.05.56-1.12c1.5-2.99,3.08-5.7,4.77-8.13,1.68-2.43,3.46-4.39,5.33-5.89l.56-2.24c.75-1.5,1.5-2.8,2.24-3.93.75-1.12,1.68-2.62,2.8-4.49l1.68-2.24c1.5-2.24,3.18-3.37,5.05-3.37l1.68-1.68c.37-.37.56-.93.56-1.68l1.12-1.12-.56-.56c-2.24-1.87-3.37-3.55-3.37-5.05-.37-2.62.47-4.86,2.52-6.73,2.06-1.87,4.11-2.71,6.17-2.52s3.65.84,4.77,1.96l1.12,1.12c.37,0,.56.19.56.56l2.24,1.12v1.68c.75.75,1.12,1.31,1.12,1.68.75-1.12,1.87-2.43,3.37-3.93l2.8-8.97c0-1.5.37-2.99,1.12-4.49l1.12-1.68v-1.12l1.68-6.73h1.12l1.68-6.73c.37-1.12.37-2.43,0-3.93l-2.24-5.61-1.12-4.49Z"/>
  </g>
</svg>