<?xml version="1.0" encoding="UTF-8"?>
<svg id="Capa_2" data-name="Capa 2" xmlns="http://www.w3.org/2000/svg" viewBox="0 0 245.17 103.75">
  <defs>
    <style>
      .cls-1 {
        fill: #070707;
        fill-rule: evenodd;
      }
    </style>
  </defs>
  <g id="Capa_2-2" data-name="Capa 2">
    <path class="cls-1" d="M91.69,21.52C110.04,7.52,119.21.52,119.21.52c62.29-.35,93.44-.52,93.44-.52,21.68,15.63,32.52,23.45,32.52,23.45-54.45,6.91-67.05,5.01-114.03,44.73-13.31,11.57-19.96,17.35-19.96,17.35-12.35,10.17-22.26,15.75-29.74,16.75-28.14,6.53-65.4-9.43-78.92-33.48-.42-.75-.77-1.49-1.1-2.23-4.13-9.19,1.05-15.05,12.64-16.45,14.78-1.56,28.28-1.54,40.5.05,8.34,1.12,12.85,4.27,13.54,9.46.54,3.36-.61,6.56-3.45,9.62-2.28,2.05-4.82,4.16-7.63,6.32,2.11,1.66,4.79,2.64,8.02,2.93,10.57,1.68,50.6-37.78,58.68-45.7.77-1.19.74-2.12-.06-2.8-3.62-1.19-8.12-2.44-13.5-3.75-6.38-1.58-12.53-3.17-18.45-4.74Z"/>
  </g>
</svg>