<?xml version="1.0" encoding="UTF-8"?>
<svg id="Capa_2" data-name="Capa 2" xmlns="http://www.w3.org/2000/svg" viewBox="0 0 167.26 131.5">
  <defs>
    <style>
      .cls-1 {
        fill-rule: evenodd;
      }
    </style>
  </defs>
  <g id="Capa_2-2" data-name="Capa 2">
    <g>
      <g>
        <path class="cls-1" d="M154.65,123.88h-.06c-2.08,0-3.79,1.71-3.79,3.83s1.71,3.79,3.79,3.79h.06c2.1-.02,3.77-1.71,3.77-3.79s-1.67-3.79-3.77-3.83h0ZM157.65,128.03c-.24,1.61-1.5,2.68-3,2.7-.41,0-.81-.06-1.22-.21-1.26-.62-1.97-1.69-1.86-3.1.24-1.71,1.63-2.78,3.08-2.76.84,0,1.67.34,2.31,1.11.51.73.73,1.35.69,2.27h0Z"/>
        <path class="cls-1" d="M155.87,127.78c.28-.26.43-.6.43-1.01,0-.36-.17-.69-.51-.92-.3-.24-.71-.39-1.13-.41h-1.65l-.02,4.56h.75l-.02-1.78h.58l.36.49.96,1.26h.73l-1.41-1.8h0c.32,0,.64-.17.94-.41h0ZM154.5,127.65h-.77l-.02-1.71h.79c.06,0,.11.02.15.02.24.02.47.11.62.24.19.15.32.39.32.58,0,.26-.11.45-.32.62-.17.15-.39.24-.62.26h-.15Z"/>
      </g>
      <path class="cls-1" d="M166.02,3.58c-1.61-2.59-5.08-1.81-9.28.21-5.44,2.33-15.24,13.22-17.63,19.29-2.13,8.71-7.1,16.75-15.19,25.41-8.14,6.64-22.61,3.99-30.96-1.3-.52,0-34.79-26.7-34.79-26.7-12.29-9.7-20.84-13.9-31.16-15.14-.52-.31-.98-.83-1.14-1.19-1.61-3.58-1.92-3.27-3.06-4.15-1.35,1.04-2.33,1.61-3.68,2.02-.62,0-.73,0-1.09-.21-.83-.36-1.71-1.09-2.59-1.14-1.04.21-1.87,2.28-3.27,4.36,0,0-2.39,2.07-4.56,3.89-.83.73-.93,1.87-1.5,2.54-1.14,1.24-2.49,3.27-2.7,3.27-.52,1.45-.73,2.75.21,3.42,0,1.61.83,2.02,1.14,2.39.26.52.31.73.67,1.09.62.26,1.14.36,1.76.52,3.32,3.06,4.67,3.01,8.5,2.49,6.64.47,6.07,2.7,5.91,6.07-.41.52-.52.47-.99.73-2.96,0-6.07-.67-9.02-.67C5.12,31.32-.48,32.46.03,40.29c.42,3.06,5.96,7.31,8.87,1.56.41-2.64,2.64-1.45,4.56-.83,11.61,5.03,20.9,7.62,27.07,2.39,1.87-2.33,3.01-.67,4.93.73,9.33,11.1,22.71,18.3,43.3,18.56,6.84,1.71,12.08,4.56,14.67,11.3,6.38,16.33,14.47,29.5,26.34,36.4-.99,10.32-.57,18.88,9.85,21.1,2.75-2.23-1.09-5.6,2.07-13.17-.26-3.37-3.16-6.12-4.15-12.55-12.13-9.96-7-14.05-8.82-20.69-.16-9.7-2.28-17.11-6.38-24.47-.47-1.19.31-2.07,1.4-2.7,6.84-5.13,10.58-10.16,12.24-15.04,2.54-8.66,6.84-15.45,12.96-20.33,5.18-4.15,10.11-5.44,15.71-9.13,3.47-5.7,2.95-7.26,1.35-9.85h0Z"/>
    </g>
  </g>
</svg>