<?xml version="1.0" encoding="UTF-8"?>
<svg id="Capa_2" data-name="Capa 2" xmlns="http://www.w3.org/2000/svg" viewBox="0 0 269.07 97.67">
  <defs>
    <style>
      .cls-1 {
        fill: #0061ad;
        fill-rule: evenodd;
      }
    </style>
  </defs>
  <g id="Capa_2-2" data-name="Capa 2">
    <g>
      <g>
        <path class="cls-1" d="M150.66,93.91c-.11-.8-.68-1.03-.8-1.14.23,0,1.03-.46,1.03-1.14,0-.8-.68-1.6-1.6-1.6h-2.28v5.36h.91v-2.17h1.14c.23,0,.8.46.8.91,0,.34,0,1.25.11,1.25h1.03c-.23-.11-.23-.91-.34-1.48ZM149.07,92.43h-1.14v-1.48h1.14c.46,0,.8.34.8.68s-.23.8-.8.8Z"/>
        <path class="cls-1" d="M148.95,88.32c-2.51,0-4.44,1.94-4.44,4.44s1.94,4.44,4.44,4.44,4.44-2.05,4.44-4.44-2.05-4.44-4.44-4.44ZM148.95,96.76c-2.28,0-3.99-1.82-3.99-3.99,0-2.28,1.71-3.99,3.99-3.99s3.99,1.71,3.99,3.99-1.82,3.99-3.99,3.99Z"/>
      </g>
      <path class="cls-1" d="M150.66,32.14c-60.52,12.08-90.49,5.24-45.81-24.27L0,37.84c96.98,1.48,111.91,50.37,112.6,59.83h28.72c3.99-59.49,30.09-56.07,114.08-80.8l13.68-16.87c-6.95,2.17-78.07,24.05-118.41,32.14ZM124.45,73.74c-2.85-5.24-12.99-15.73-20.63-20.17,11.28,0,27.58-2.17,36.92-4.33-5.93,5.01-12.76,14.93-16.3,24.5Z"/>
    </g>
  </g>
</svg>