<?xml version="1.0" encoding="UTF-8"?>
<svg id="Capa_2" data-name="Capa 2" xmlns="http://www.w3.org/2000/svg" viewBox="0 0 296.72 138.44">
  <defs>
    <style>
      .cls-1 {
        fill: #e20613;
      }

      .cls-1, .cls-2, .cls-3 {
        fill-rule: evenodd;
      }

      .cls-2 {
        fill: #312782;
      }

      .cls-3 {
        stroke-width: .22px;
      }

      .cls-3, .cls-4 {
        fill: #1d1d1b;
      }

      .cls-3, .cls-5 {
        stroke: #1d1d1b;
        stroke-miterlimit: 22.93;
      }

      .cls-5 {
        fill: none;
        stroke-width: .5px;
      }
    </style>
  </defs>
  <g id="Capa_2-2" data-name="Capa 2">
    <g>
      <path class="cls-2" d="M15.3,49.05H0V.16h34.59c19.59,1.54,26.34,22.43,9.65,34.11,3.97,1.76,7.95,9.04,8.32,12.14v14.91h-15.14v-15.79c0-2.91-3.46-7.08-6.78-7.23h-11.62v-10.31h13.4c7.52.03,10.44-15.3,0-15.56H15.29v36.61h0Z"/>
      <path class="cls-2" d="M101.03,49.71h-25.99c-21.26-1.04-24.47-33.14-2.13-37.07h28.97v9.52l-7.64,13.23h-14.38l7.04-12.19h-9.17c-9.04.7-8.14,14.32-1.14,14.44h24.43v12.07h0Z"/>
      <path class="cls-2" d="M148.69,49.71h-25.99c-21.26-1.04-24.47-33.14-2.13-37.07h28.97v9.52l-7.64,13.23h-14.38l7.04-12.19h-9.17c-9.04.7-8.14,14.32-1.14,14.44h24.43v12.07h0Z"/>
      <path class="cls-2" d="M154.41,49.71h26.25c28.37-1.54,22-37.45,4.01-37.64h-11.79v10.65h7.81c8.38.38,7.77,14.6-.28,14.35h-10.23V0h-15.77v49.71h0Z"/>
      <path class="cls-2" d="M252.12,49.71V1.7h16.48v21.16h2.27c4.65-.05,8.95-4.05,9.94-9.66h15.91v1.85c.11,6.65-6.19,10.35-10.65,13.2,7.13.17,8.57,6.61,8.52,11.08v10.37h-15.05v-9.38c-.11-3.21-2.55-6.35-6.46-6.46h-5.05v15.84h-15.89Z"/>
      <path class="cls-1" d="M12.62,73.49l95.96-18.26,105.86,68.1c-59.84-30.54-119.69-53.34-201.82-49.83h0Z"/>
      <path class="cls-3" d="M39.15,120.93l37.72,7.35c14.29-18.37,34.56-27.23,55.87-34.25l-24.45-8.01c-24.2,4.38-47.11,17.2-69.14,34.91h0Z"/>
      <path class="cls-3" d="M90.56,130.95l37.78,7.37c8.11-16.99,23.79-27.63,36.94-33.64l-21.93-7.18c-15.97,2.1-40.6,18.2-52.79,33.45h0Z"/>
      <path class="cls-3" d="M147.98,75.15l32.52,20.89c36.08-12.9,70.03-26.75,108.96-34.42-47.16,1.35-94.32,5.21-141.48,13.53h0Z"/>
      <path class="cls-5" d="M280.11,82.09c-3.75,0-6.79-3.04-6.79-6.79s3.04-6.79,6.79-6.79,6.79,3.04,6.79,6.79-3.04,6.79-6.79,6.79h0Z"/>
      <path class="cls-4" d="M277.27,79.33v-8.64h3.14c.66,0,1.14.08,1.45.24.31.16.57.43.77.8.2.38.3.81.3,1.31,0,.65-.17,1.18-.51,1.58-.34.4-.83.66-1.48.77.26.16.46.32.6.48.28.33.52.7.74,1.1l1.24,2.35h-1.18l-.94-1.8c-.37-.7-.64-1.18-.83-1.42-.19-.24-.37-.41-.54-.49-.17-.08-.42-.13-.73-.13h-1.08v3.83h-.94ZM278.21,74.51h2.02c.44,0,.77-.05,1-.16.23-.1.41-.27.54-.5.13-.23.2-.49.2-.79,0-.44-.13-.78-.38-1.03-.25-.25-.63-.37-1.14-.37h-2.24v2.86h0Z"/>
      <path class="cls-2" d="M227.13,12.02c-12.63,0-22.87,8.52-22.87,19.03s10.24,19.03,22.87,19.03,22.87-8.52,22.87-19.03-10.24-19.03-22.87-19.03ZM227.13,38.43c-4.71,0-8.52-3.31-8.52-7.39s3.82-7.39,8.52-7.39,8.52,3.31,8.52,7.39-3.82,7.39-8.52,7.39Z"/>
    </g>
  </g>
</svg>