<?xml version="1.0" encoding="UTF-8"?>
<svg id="Capa_2" data-name="Capa 2" xmlns="http://www.w3.org/2000/svg" viewBox="0 0 213.88 142.31">
  <defs>
    <style>
      .cls-1 {
        fill-rule: evenodd;
      }
    </style>
  </defs>
  <g id="Capa_2-2" data-name="Capa 2">
    <g>
      <polyline class="cls-1" points="60.66 92.62 69.35 92.62 60.66 78.14 53.32 65.94 22.14 84.67 26.9 92.62 60.66 92.62"/>
      <polyline class="cls-1" points="141.5 92.62 183.95 92.62 157.53 48.59 128.31 0 116.27 7.24 97.16 18.73 116.27 50.56 141.5 92.62"/>
      <g>
        <path class="cls-1" d="M126.67,107.13c-2.99-1.93-6.5-3.06-10.3-3.06h-.1c-10.49.06-19.02,8.63-19.02,19.12s8.53,19.05,19.02,19.12h.1c3.8,0,7.31-1.13,10.3-3.06v1.99h8.79v-48.63h-8.79v14.51h0ZM126.67,125.19c-.93,4.83-5.21,8.53-10.3,8.53h-.1c-5.76-.06-10.43-4.76-10.43-10.52s4.67-10.46,10.43-10.49h.1c5.09,0,9.37,3.67,10.3,8.49v3.99"/>
        <path class="cls-1" d="M167.92,107.13c-2.96-1.93-6.5-3.06-10.3-3.06h-.1c-10.49.06-19.02,8.63-19.02,19.12s8.53,19.05,19.02,19.12h.1c3.8,0,7.34-1.13,10.3-3.06v1.99h8.79v-36.2h-8.79v2.09h0ZM167.92,125.19c-.93,4.83-5.21,8.53-10.3,8.53h-.1c-5.76-.06-10.43-4.76-10.43-10.52s4.67-10.46,10.43-10.49h.1c5.09,0,9.37,3.67,10.3,8.49v3.99"/>
        <path class="cls-1" d="M207.96,120.81c-.32-.16-.77-.32-1.29-.52-1.96-.68-5.15-1.51-9.59-2.48-3.89-.87-5.86-1.99-5.86-3.41,0-1,.35-1.8,1.03-2.38.9-.77,2.51-1.16,4.83-1.16s4.05.51,5.05,1.51c.61.61,1.06,1.7,1.35,3.25h9.33c0-4.57-1.87-7.85-5.54-9.85-.19-.13-.39-.23-.61-.32-2.54-1.19-5.92-1.8-10.14-1.8-5.12,0-8.98,1.35-11.55,4.09-2.06,2.19-3.06,4.86-3.06,8.01,0,3.93,1.93,6.76,5.86,8.59,1.48.71,5.09,1.7,10.81,2.93,3.83.84,5.76,2.03,5.76,3.54,0,.9-.39,1.67-1.22,2.38-1.06.9-2.67,1.35-4.83,1.35-2.86,0-4.89-.48-6.08-1.41-1.19-.9-1.8-2.22-1.8-3.9h-9.78c0,4.44,1.87,7.76,5.63,9.94,2.99,1.71,6.92,2.58,11.78,2.58,3.25,0,6.15-.55,8.62-1.61.52-.23.96-.45,1.45-.71,3.83-2.12,5.76-5.5,5.76-10.14,0-3.8-1.96-6.63-5.92-8.5"/>
        <path class="cls-1" d="M29.41,107.13c-2.99-1.93-6.53-3.06-10.33-3.06h-.1c-10.46.06-18.99,8.63-18.99,19.12s8.53,19.05,18.99,19.12h.1c3.8,0,7.34-1.13,10.33-3.06v1.99h8.79v-36.2h-8.79v2.09h0ZM29.41,125.19c-.93,4.83-5.21,8.53-10.33,8.53h-.1c-5.73-.06-10.39-4.76-10.39-10.52s4.67-10.46,10.39-10.49h.1c5.12,0,9.4,3.67,10.33,8.49v3.99"/>
        <polygon class="cls-1" points="84.25 101.21 93.81 101.21 93.81 92.81 84.25 92.81 84.25 101.21 84.25 101.21"/>
        <polygon class="cls-1" points="84.25 141.25 93.81 141.25 93.81 104.08 84.25 104.08 84.25 141.25 84.25 141.25"/>
        <path class="cls-1" d="M71.09,107.13c-2.99-1.93-6.53-3.06-10.33-3.06h-.1c-10.49.06-19.02,8.63-19.02,19.12s8.53,19.05,19.02,19.12h.1c3.8,0,7.34-1.13,10.33-3.06v1.99h8.79v-48.63h-8.79v14.51h0ZM71.09,125.19c-.93,4.83-5.21,8.53-10.33,8.53h-.1c-5.76-.06-10.43-4.76-10.43-10.52s4.67-10.46,10.43-10.49h.1c5.12,0,9.4,3.67,10.33,8.49v3.99"/>
      </g>
      <polyline class="cls-1" points="126.64 92.62 116.27 75.3 90.82 32.95 60.66 51.1 59.63 51.72 60.66 53.42 84.22 92.62 126.64 92.62"/>
      <g>
        <path d="M206.72,88.44c-2.99,0-5.52,2.24-5.52,5.6s2.28,5.6,5.52,5.6c2.92,0,5.47-2.23,5.47-5.6s-2.55-5.6-5.47-5.6ZM206.72,98.65c-2.68,0-4.33-2.07-4.33-4.62,0-2.73,1.9-4.62,4.33-4.62s4.27,1.9,4.27,4.62-1.9,4.62-4.27,4.62Z"/>
        <path d="M209.19,92.81c0-1.24-.77-1.77-2.26-1.77h-2.35v6.2h1.02v-2.64h.95l1.61,2.64h1.14l-1.73-2.74c.93-.1,1.61-.56,1.61-1.69ZM205.6,93.73v-1.82h1.22c.62,0,1.34.1,1.34.83,0,.9-.67.98-1.43.98h-1.13Z"/>
      </g>
    </g>
  </g>
</svg>