<?xml version="1.0" encoding="UTF-8"?>
<svg id="Capa_2" data-name="Capa 2" xmlns="http://www.w3.org/2000/svg" viewBox="0 0 218.18 37.97">
  <g id="Capa_2-2" data-name="Capa 2">
    <g>
      <g>
        <path d="M114.22,26.47c-.55.44-.91.84-1.09,1.09-.29.29-.51.55-.76.76-.25.25-.47.4-.76.47-1.09.65-2.44.95-4,.95-2.4,0-4.18-.73-5.38-2.18-1.64-1.75-2.51-4.29-2.51-8.51s.84-7.27,2.51-9.09c1.31-1.31,2.95-1.93,4.95-1.93,2.22,0,3.89.65,5.09,1.93.44.44.91,1.16,1.38,2.04h9.67c-.76-2.65-1.93-4.98-3.6-7.05-3.02-3.27-7.27-4.95-12.84-4.95-5.24,0-9.35,1.71-12.29,5.09-2.84,3.31-4.29,7.89-4.29,13.78s1.45,10.44,4.4,13.75c2.95,3.38,7.05,5.09,12.29,5.09,4.33,0,7.89-1.05,10.76-3.2,2.84-2.04,4.8-4.95,5.78-8.84h-6.87c-1.02.07-1.89.33-2.44.8Z"/>
        <path d="M83.89,2.65C81.27.91,77.42.04,72.29.04c-4.58,0-8.15,1.05-10.62,3.2-2.18,1.85-3.49,4.18-3.85,7.05h9.24c.44-1.02,1.2-1.71,2.18-2.04,1.02-.36,2.15-.55,3.45-.55,1.2,0,2.51.22,3.93.62,1.45.4,2.15,1.31,2.15,2.69,0,1.85-2.04,3.05-6.07,3.6l-3.85.55c-3.49.55-6.36,1.64-8.62,3.31-2.25,1.64-3.38,3.82-3.38,7.71,0,4.15,1.24,7.13,3.75,8.91,2.51,1.78,5.38,2.69,8.69,2.69h6.18c3.31,0,6.18-.87,8.69-2.69,2.51-1.78,3.75-4.76,3.75-8.91v-15.71c-.04-3.38-1.35-6-4-7.82ZM77.67,29.13c-.84.76-2.04,1.09-3.6,1.09h-3.45c-1.56,0-2.76-.36-3.6-1.09-.84-.84-1.24-1.93-1.24-3.27,0-1.64,1.2-3.05,2.98-3.75.47-.22.98-.36,1.56-.55l3.2-.69c2.29-.55,4.11-1.13,5.38-1.78v6.73c.04,1.35-.4,2.47-1.24,3.31Z"/>
        <path d="M49.38,3.2c-3.42-2.11-7.16-3.2-11.2-3.2-2.04.11-3.96.36-5.85.87-1.89.51-3.53,1.38-4.91,2.58-1.67-1.42-3.49-2.29-5.53-2.76-2.04-.44-4.11-.69-6.18-.69H0v37.38h9.64V14.07c0-2.22.65-3.78,1.93-4.84,1.31-1.02,2.76-1.49,4.4-1.49s3.16.51,4.47,1.49c1.35,1.02,2,2.62,2,4.84v23.27h9.53V14.11c0-2.22.65-3.78,2-4.84,1.35-1.02,2.84-1.49,4.47-1.49s3.16.51,4.47,1.49c1.35,1.02,2,2.62,2,4.84v23.31h9.53v-21.38c.04-6.47-1.67-10.69-5.05-12.84Z"/>
        <path d="M165.2,16.87c4,.87,8.18-.73,11.96-4.07l3.89-3.42c-2.62-4.4-6.98-7.78-12.4-8.95-5.42-1.16-10.76.15-14.95,3.13l2.18,4.73c2.11,4.58,5.27,7.71,9.31,8.58h0ZM161.38,7.96c.62-2.95,3.53-4.84,6.47-4.22,2.95.62,4.84,3.53,4.22,6.47-.62,2.95-3.53,4.84-6.47,4.22-2.95-.65-4.84-3.56-4.22-6.47Z"/>
        <path d="M182.51,13.56c-2.87,2.47-5.56,5.2-8.15,8.25-4.18,4.98-7.6,10.44-10.25,16.15,9.02.29,17.24-5.89,19.2-15.02.73-3.31.47-6.65-.47-9.64l-.33.25Z"/>
        <path d="M213.09,3.24c-3.13-1.96-6.55-2.95-10.18-3.13h-16.69v37.31h9.64V14.11c0-2.22.65-3.78,1.93-4.84,1.31-1.02,2.76-1.49,4.4-1.49s3.16.51,4.47,1.49c1.35,1.02,2,2.62,2,4.84v23.31h9.53v-21.35c.04-6.44-1.67-10.73-5.09-12.84Z"/>
        <path d="M150.69,6.76l-.22-.4c-2.11,2.36-3.67,5.31-4.36,8.62-1.96,9.13,3.05,18.15,11.42,21.53-.11-6.29-1.02-12.65-2.8-18.91-1.05-3.78-2.4-7.42-4.04-10.84Z"/>
      </g>
      <path d="M151.2.18l-6.15-.11c-.11,0-3.16.04-3.93.07-3.56.22-6.8,1.16-9.82,3.05-3.38,2.11-5.09,6.4-5.09,12.84v21.38h9.6v-20.25c0-2.62-.04-4.69,1.27-6.15,1.05-1.02,2.4-1.35,4.44-1.49,1.42-.15,2.36-.18,3.53-1.31.15-.15,5.16-6.11,6.4-7.35.18-.25.11-.69-.25-.69Z"/>
    </g>
  </g>
</svg>