<?xml version="1.0" encoding="UTF-8"?>
<svg id="Capa_2" data-name="Capa 2" xmlns="http://www.w3.org/2000/svg" viewBox="0 0 138.77 230.55">
  <defs>
    <style>
      .cls-1 {
        fill: #9dc8ec;
      }

      .cls-2 {
        fill: #fff;
      }

      .cls-3 {
        fill: #2f549b;
      }

      .cls-3, .cls-4 {
        fill-rule: evenodd;
      }

      .cls-4 {
        fill: #a79770;
      }
    </style>
  </defs>
  <g id="Capa_2-2" data-name="Capa 2">
    <g>
      <path class="cls-4" d="M69.09,206.7c-3.62-2.9-7.37-5.52-11-7.2-3.63-1.67-6.34-1.87-9.15-2.23-2.81-.36-8.19-1.25-12.17-2.4-3.98-1.15-7.6-2.59-10.41-5.33-2.81-2.73-3.83-6.13-3.83-7.89v-81.58l-14.96-.06-.07-12.81,9.34-.02-.07-4.53-9.29.1.05-13.36h15v-9.43h93.15v9.43h15s-.01,13.32-.01,13.32l-9.89-.02.03,4.47,9.85.07v12.78s-14.98.06-14.98.06v81.58c0,1.76-1.02,5.16-3.83,7.89-2.81,2.74-6.44,4.18-10.41,5.33-3.98,1.14-9.36,2.03-12.17,2.4-2.81.36-5.52.56-9.15,2.23-3.63,1.67-7.38,4.29-11,7.2"/>
      <g>
        <path class="cls-3" d="M62.25,159.59l-3.96-.07-3.68-12.07-4.36-13.65c-1.3-3.84-2.5-8.13-3.01-9.71-.51-1.58-3.16-.71-3.5.08l-5.76,20.77-4.29,14.82-3.05-.07v5.48s12.34,0,12.34,0l.09-5.48-4.28-.05c-.09-1.69.23-4.02,1.08-5.75h12.27l1.44,5.78-4.43.07.02,5.44h13.22l-.14-5.59ZM41.37,148.93l4.4-16.74,4.7,16.74h-9.1Z"/>
        <path class="cls-3" d="M110.42,159.59l-3.96-.07-3.68-12.07-4.36-13.65c-1.3-3.84-2.5-8.13-3.01-9.71-.51-1.58-3.16-.71-3.5.08l-5.76,20.77-4.29,14.82-3.05-.07v5.48s12.34,0,12.34,0l.09-5.48-4.28-.05c-.09-1.69.23-4.02,1.08-5.75h12.27l1.44,5.78-4.43.07.02,5.44h13.22l-.14-5.59ZM89.54,148.93l4.4-16.74,4.69,16.74h-9.1Z"/>
        <path class="cls-3" d="M69.69,140.96l7.18.02.23,7.28,3.94.02.03-19.2-4.34.04.05,7.04-7.05-.12v-20.02c0-.53,5.82-1.6,6.58-1.73,3.33-.55,6.56-.32,9.64,1.13,1.75.83,9.09,5.93,10.89,4.84,5.24-3.19-.63-11.33-4.23-14.2-4.08-3.26-8.77-.97-13.03.48-5.16,1.76-10.62,2.58-16.07,2.48-5.23-.1-15.01-1-18.77-5.34-.94-1.09-2.19-.59-1.29,1.94,2.79,7.76,14.2,11.8,21.66,11.01v50.49c-.2,1.21-.74,1.11-3.22,2.41-2.49,1.3-4.57,4.74-3.27,5.19,2.49.87,5.65-2.01,8.5-1.62,2.48.34,4.64,1.82,6.69,3.17,5.05,3.32,10.97,5.7,14.89-.41.19-.31.67-2.36-.95-2.67-.59-.11-1.71,1.18-2.46,1.25-3.25.31-5.08-1.78-7.58-3.39-2.5-1.61-5.45-2.13-8.04-3.5,0-11.36.02-15.23.02-26.59"/>
      </g>
      <rect class="cls-1" x="10.18" y="90.35" width="117.38" height="7.45"/>
      <rect class="cls-1" x="10.18" y="72.02" width="117.38" height="7.45"/>
      <rect class="cls-2" x="20.79" y="79.68" width="96.42" height="10.67"/>
      <polygon class="cls-4" points="31.98 14.31 36.12 26.03 48.55 26.35 38.68 33.91 42.22 45.83 31.98 38.78 21.74 45.83 25.28 33.91 15.41 26.35 27.84 26.03 31.98 14.31"/>
      <polygon class="cls-4" points="105.25 14.31 109.39 26.03 121.82 26.35 111.95 33.91 115.49 45.83 105.25 38.78 95.01 45.83 98.55 33.91 88.68 26.35 101.11 26.03 105.25 14.31"/>
      <path class="cls-4" d="M131.68,187.19c.31-4.06-.03-8.19-.93-12.22,7.73-6.8,8.58-15.25,7.78-24.72-2.64,1.15-4.41,2.87-5.33,5.12-.43-3.34-1.3-6.64-2.54-9.79,7.75-6.8,8.6-15.26,7.79-24.74-2.58,1.13-4.33,2.79-5.27,4.97-.58-4.36-1.9-8.64-3.83-12.62-2.08,3.98-3.39,8.37-3.92,12.85-1.25-2.29-3.02-4.03-5.33-5.2-.81,9.51.05,17.99,7.86,24.8-1.29,3.17-2.15,6.53-2.54,9.94-1.25-2.36-3.05-4.13-5.4-5.32-.84,9.83.11,18.55,8.67,25.48.02.05.05.1.07.15-1.91,2.77-3.44,5.82-4.53,9.04-.77-2.53-2.17-4.62-4.2-6.28-2.54,8.74-3.4,16.9,2.09,24.95-2.96-.16-5.92.12-8.8.79,1.55-1.96,2.48-4.25,2.77-6.88-8.73,2.23-16.01,5.84-19.54,15.99-2.47-.88-5.03-1.46-7.61-1.71,2.17-1.4,3.78-3.37,4.83-5.91-8.43-.56-15.96.45-21.96,7.74-.36-.98-1.3-2.48-2.43-2.48-1.24,0-1.95.82-2.26,2.6-6.01-7.4-13.58-8.42-22.07-7.86,1.05,2.54,2.66,4.5,4.83,5.91-2.58.25-5.14.83-7.61,1.71-3.53-10.15-10.81-13.76-19.54-15.99.29,2.63,1.22,4.92,2.77,6.88-2.88-.67-5.84-.95-8.8-.79,5.48-8.06,4.63-16.21,2.09-24.95-2.03,1.66-3.43,3.76-4.2,6.28-1.09-3.22-2.62-6.27-4.53-9.04.02-.05.05-.1.07-.15,8.56-6.93,9.51-15.65,8.67-25.48-2.35,1.19-4.15,2.96-5.4,5.32-.39-3.41-1.25-6.76-2.54-9.94,7.81-6.81,8.67-15.29,7.86-24.8-2.31,1.17-4.08,2.9-5.33,5.2-.53-4.48-1.84-8.87-3.93-12.85-1.93,3.98-3.26,8.26-3.83,12.62-.94-2.18-2.69-3.84-5.27-4.97-.81,9.48.05,17.94,7.79,24.74-1.25,3.16-2.11,6.45-2.54,9.79-.92-2.26-2.69-3.97-5.33-5.12-.81,9.47.04,17.92,7.78,24.72-.9,4.03-1.24,8.16-.93,12.22-1.34-1.92-3.38-3.16-6.12-3.69,1.09,9.74,3.7,18.03,13.29,22.91-.14.32-.23.5-.23.5.13-.14.25-.29.38-.43.2.1.4.2.61.3,2.04,1.87,4.25,3.5,6.59,4.83-2.4.14-4.57,1.39-6.51,3.78,7.81,3.69,15.28,5.54,23.38.74,3.36,1.86,6.95,3.2,10.61,3.88-2.01.96-3.57,2.75-4.68,5.42,7.42.95,14.21.64,20.09-4.23-1.58,3.12-5.39,6.24-5.39,9.35h3.99c0-3.28,3.04-6.55,4.05-9.83.3.41.78.77,1.54.82,1.5.12,2.9-1.16,3-2.43.01-.12.02-.26.03-.41,1.36,1.53,2.79,2.77,4.26,3.75,1.3,2.7,3.36,5.39,3.36,8.09h3.99c0-1.99-1.55-3.97-3.08-5.95,4.36,1.54,9.1,1.48,14.13.83-1.11-2.67-2.67-4.47-4.68-5.42,3.67-.69,7.25-2.02,10.61-3.88,8.1,4.81,15.57,2.95,23.38-.74-1.94-2.38-4.11-3.64-6.51-3.78,2.34-1.33,4.55-2.96,6.59-4.83.21-.1.41-.2.61-.3.13.15.25.29.38.43,0,0-.09-.18-.23-.51,9.58-4.88,12.19-13.17,13.29-22.91-2.74.53-4.78,1.76-6.12,3.69Z"/>
      <polygon class="cls-4" points="68.87 0 73.86 14.1 88.81 14.48 76.93 23.58 81.19 37.92 68.87 29.44 56.55 37.92 60.81 23.58 48.94 14.48 63.89 14.1 68.87 0"/>
    </g>
  </g>
</svg>