<?xml version="1.0" encoding="UTF-8"?>
<svg id="Capa_2" data-name="Capa 2" xmlns="http://www.w3.org/2000/svg" viewBox="0 0 217.4 217.45">
  <defs>
    <style>
      .cls-1 {
        stroke: #005baa;
      }

      .cls-1, .cls-2 {
        fill: none;
        stroke-miterlimit: 3.86;
        stroke-width: 1.53px;
      }

      .cls-3 {
        fill: #fff;
      }

      .cls-4 {
        fill: #ec008c;
      }

      .cls-5 {
        fill: #0a247b;
      }

      .cls-6 {
        fill: #de0e07;
      }

      .cls-2 {
        stroke: #0039a6;
      }

      .cls-7 {
        fill: #d52b1e;
      }
    </style>
  </defs>
  <g id="Capa_2-2" data-name="Capa 2">
    <g>
      <path class="cls-4" d="M108.7,6.13c56.53,0,102.62,46.09,102.62,102.62s-46.09,102.62-102.62,102.62S6.08,165.23,6.08,108.7,52.17,6.13,108.7,6.13h0Z"/>
      <path class="cls-1" d="M108.7,6.13c56.53,0,102.62,46.09,102.62,102.62s-46.09,102.62-102.62,102.62S6.08,165.23,6.08,108.7,52.17,6.13,108.7,6.13h0Z"/>
      <g>
        <path class="cls-7" d="M108.7,215.85C49.65,215.85,1.6,167.78,1.6,108.7S49.65,1.6,108.7,1.6c14.42,0,28.43,2.84,41.63,8.44,12.75,5.41,24.2,13.14,34.05,22.99,9.84,9.85,17.58,21.3,22.98,34.05,5.6,13.2,8.44,27.2,8.44,41.61s-2.84,28.41-8.44,41.62c-5.4,12.75-13.14,24.21-22.98,34.07-9.85,9.86-21.3,17.6-34.05,23.01-13.21,5.61-27.21,8.45-41.64,8.45Z"/>
        <path class="cls-3" d="M108.7,3.2c58.14,0,105.49,47.41,105.49,105.49s-47.36,105.55-105.49,105.55S3.2,166.83,3.2,108.7,50.56,3.2,108.7,3.2M108.7,0c-14.64,0-28.86,2.88-42.26,8.56-12.94,5.48-24.56,13.33-34.55,23.32-9.99,9.99-17.84,21.62-23.32,34.55C2.88,79.84,0,94.06,0,108.7s2.88,28.86,8.56,42.27c5.48,12.94,13.33,24.57,23.32,34.57,9.99,10,21.62,17.85,34.55,23.34,13.4,5.69,27.62,8.57,42.26,8.57s28.86-2.89,42.26-8.58c12.93-5.49,24.56-13.35,34.55-23.35,9.99-10,17.84-21.63,23.32-34.57,5.68-13.4,8.56-27.62,8.56-42.24s-2.88-28.84-8.56-42.24c-5.49-12.94-13.33-24.56-23.32-34.56-9.99-10-21.62-17.85-34.55-23.34C137.56,2.88,123.34,0,108.7,0h0Z"/>
      </g>
      <path class="cls-3" d="M108.7,34.65c40.84,0,74.11,33.27,74.11,74.11s-33.27,74.11-74.11,74.11-74.11-33.32-74.11-74.16S67.86,34.65,108.7,34.65h0Z"/>
      <polygon class="cls-3" points="30.61 103.61 30.61 103.61 30.61 103.61 30.34 108.26 10.94 107.1 11.49 97.65 14.42 97.81 14.09 102.73 18.57 102.95 18.79 98.25 21.55 98.36 21.33 103.06 30.61 103.61 30.61 103.61"/>
      <polygon class="cls-3" points="16.8 85.32 15.8 90.13 19.95 91.01 20.94 86.37 23.82 87.04 22.82 91.62 29.01 93 30.12 88.14 32.99 88.8 32.99 88.8 32.99 88.8 30.95 98.09 11.94 94 13.92 84.71 16.8 85.32 16.8 85.32"/>
      <path class="cls-3" d="M19.4,76.31l-.22.61,12.93,4.7.22-.61h0c.17-.5.28-.77.06-1.22-.39-.5-.77-.77-1.49-1.11h0l-8.95-3.26h0c-1.33-.44-2.21-.11-2.54.88h0ZM35.37,81.18l-2.04,5.69-18.35-6.58,2.04-5.69h0c.55-1.55,1.22-2.32,1.99-3.09.44-.17.83-.44,1.44-.55.17-.11.61-.11,1.11-.11.66.06,1.49.17,2.1.44h0l8.62,3.09h0c2.16.77,3.48,2.43,3.48,4.37,0,.83-.11,1.66-.39,2.43h0Z"/>
      <polygon class="cls-3" points="28.07 58.63 25.64 62.89 29.34 64.99 31.66 60.84 34.26 62.28 31.94 66.42 37.47 69.52 39.9 65.26 42.44 66.7 42.44 66.7 42.44 66.7 37.8 74.99 20.83 65.37 25.47 57.14 28.07 58.63 28.07 58.63"/>
      <path class="cls-3" d="M33.6,50.62l3.98,3.15.44-.55h0c.83-.99.39-1.82-1.16-2.98-1.44-1.16-2.1-.99-2.71-.28h0l-.55.66h0ZM46.58,61.01l-2.87,3.59-15.2-12.1,3.87-4.86h0c2.32-2.93,4.53-3.04,6.85-1.27.99.83,1.71,1.82,1.99,2.82.06.66-.17,1.55-.66,2.65h0c1.44-1.82,3.04-1.99,4.97-.44h0l3.04,2.43h0c1.16.88,1.71,1.22,2.71,1.33h0l-2.93,3.7h0c-.72-.17-1.44-.55-2.43-1.33h0l-2.27-1.88h0c-.77-.61-1.27-.99-1.6-1.11-.5-.17-.72-.17-.94-.11-.5.06-.66.28-.94.72h0l-.28.39,6.69,5.47h0Z"/>
      <path class="cls-3" d="M51.12,44.65l1.33-1.22-6.24-6.08,4.92,7.29h0ZM52.77,47.3l2.65,4.03-2.82,2.54-10.44-16.8,4.7-4.14,14.75,12.93-3.32,2.93-3.65-3.09-1.88,1.6h0Z"/>
      <path class="cls-3" d="M64.71,25.81l1.27,2.1-3.87,2.32-1.11-1.82h0c-.44-.72-.66-1.16-.88-1.22-.44-.39-.77-.28-1.22-.06-.72.44-.72.99-.06,2.16h0l5.64,9.39h0c.5.83,1.22.99,1.71.66.72-.44.72-.99.22-1.88h0l-1.82-2.93,3.87-2.32,1.44,2.38h0c1.82,2.93.88,5.58-2.21,7.41-1.66.99-3.15,1.38-4.81.94-1.16-.28-2.16-1.38-3.15-3.04h0l-4.48-7.41h0c-.99-1.66-1.38-3.15-.99-4.53.11-.5.5-1.11.77-1.6.61-.55,1.38-1.22,2.32-1.82,2.38-1.44,4.2-1.55,5.53-.66.83.66,1.38,1.22,1.82,1.93h0Z"/>
      <polygon class="cls-3" points="78.19 36.42 78.19 36.42 78.19 36.42 73.99 38.29 66.2 20.5 70.4 18.62 78.19 36.42 78.19 36.42"/>
      <path class="cls-3" d="M79.85,19.06l3.37,10.94h0c.28.94.88,1.27,1.49,1.11.77-.22.94-.77.61-1.93h0l-3.26-10.5h0c-.39-1.11-.77-1.49-1.55-1.27-.55.28-.88.88-.66,1.66h0ZM86.81,18.29l2.76,8.95h0c.61,1.88.5,3.76-.94,5.25-.66.72-1.66,1.22-2.93,1.55-2.04.61-3.76.5-5.08-.28-.5-.39-.88-.72-1.27-1.33-.28-.44-.5-.99-.66-1.66h0l-2.82-9.23h0c-.39-1.11-.44-1.93-.28-2.65.22-1.99,1.55-3.37,4.2-4.2,2.65-.83,4.42-.55,5.69.66.5.66.88,1.55,1.33,2.93h0Z"/>
      <polygon class="cls-3" points="94.11 31.61 94.11 31.61 94.11 31.61 92.01 12.21 98.31 11.55 102.84 25.36 101.24 11.22 104.89 10.83 106.93 30.23 101.13 30.78 95.93 15.09 97.7 31.22 94.11 31.61 94.11 31.61"/>
      <path class="cls-3" d="M133.34,17.02l-.66-.17-3.54,13.26.66.17h0c.5.11.77.22,1.22,0,.44-.39.72-.83.94-1.6h0l2.43-9.17h0c.33-1.49-.11-2.27-1.05-2.49h0ZM129.81,33.32l-5.86-1.55,5.03-18.84,5.86,1.55h0c1.55.44,2.43.99,3.26,1.71.22.44.5.77.66,1.38.11.17.17.55.22,1.11,0,.66-.06,1.49-.22,2.16h0l-2.38,8.9h0c-.61,2.21-2.16,3.65-4.09,3.81-.88.06-1.71,0-2.49-.22h0Z"/>
      <polygon class="cls-3" points="151.97 24.37 147.55 22.38 145.78 26.25 150.09 28.18 148.87 30.89 144.56 28.9 141.91 34.7 146.39 36.75 145.12 39.46 145.12 39.46 145.12 39.46 136.49 35.48 144.62 17.79 153.24 21.72 151.97 24.37 151.97 24.37"/>
      <polygon class="cls-3" points="160.48 49.9 160.48 49.9 160.48 49.9 157 46.97 169.71 32.16 176.89 38.41 174.96 40.62 171.25 37.41 168.38 40.73 171.97 43.88 170.2 45.98 166.61 42.83 160.48 49.9 160.48 49.9"/>
      <path class="cls-3" d="M169.6,51.06l10.94-9.34,2.87,3.37-11.33,9.67h0c-1.27,1.11-1.27,1.49-.72,2.16.55.61,1.22.66,2.32-.28h0l11.33-9.67,2.98,3.48-11.05,9.34h0c-2.1,1.82-3.87,2.04-5.58,1.33-.77-.44-1.55-1.11-2.38-2.04-1.82-2.1-2.21-4.14-1.55-5.58.55-.83,1.22-1.6,2.16-2.43h0Z"/>
      <polygon class="cls-3" points="177.61 71.29 175.29 67.31 189.55 58.96 189.55 58.96 189.55 58.96 188 56.26 190.54 54.82 195.96 64.1 193.47 65.65 191.87 62.94 177.61 71.29 177.61 71.29"/>
      <path class="cls-3" d="M189.71,76.31l-.44-1.11-5.58,2.32.22.61h0c.11.28.44.55.44.55.39.39.77.55,1.27.55.39,0,.94-.22,1.88-.61,1.82-.77,2.21-1.11,2.38-1.55-.06-.11-.06-.5-.17-.77h0ZM196.84,72.94l-.28-.77-4.7,1.99.28.77h0c.28.77.83,1.11,1.49.94.39,0,.83-.17,1.55-.5,1.88-.77,2.16-1.22,1.66-2.43h0ZM181.81,80.18l-2.32-5.58,17.9-7.57,2.32,5.58h0c1.11,2.6.94,4.03.11,5.25-.5.55-1.16.99-2.21,1.49-2.87,1.22-4.37.61-5.53-1.27h0l-.17.06.22.61h0c.28.77.11,1.93-.61,2.76-.55.44-1.11.83-1.99,1.22-1.22.55-2.1.88-2.76.99-.94.22-2.16,0-2.82-.44-.61-.22-1.38-1.16-2.16-3.09h0Z"/>
      <path class="cls-3" d="M200.65,87.75l-11.16,2.65h0c-.94.22-1.33.83-1.22,1.44.17.77.72.99,1.88.72h0l10.67-2.54h0c1.16-.22,1.49-.72,1.33-1.49-.11-.61-.72-.94-1.49-.77h0ZM200.93,94.77l-9.06,2.16h0c-1.93.5-3.81.22-5.14-1.33-.66-.66-1.11-1.71-1.38-3.04-.5-2.1-.22-3.81.66-5.03.44-.44.77-.83,1.38-1.22.44-.28,1.11-.44,1.71-.61h0l9.39-2.21h0c1.16-.22,1.99-.28,2.65-.11,1.93.39,3.26,1.71,3.87,4.42.66,2.71.22,4.48-.99,5.64-.77.61-1.66.94-3.09,1.33h0Z"/>
      <polygon class="cls-3" points="187.45 110.14 187.45 110.14 187.45 110.14 186.73 100.69 206.12 99.19 206.51 103.56 190.04 104.89 190.37 109.91 187.45 110.14 187.45 110.14"/>
      <path class="cls-3" d="M71.07,181.2l-.61-.28-6.3,12.21.61.28h0c.44.22.72.39,1.16.22.55-.28.88-.66,1.27-1.38h0l4.31-8.45h0c.72-1.27.44-2.21-.44-2.6h0ZM64.16,196.4l-5.42-2.76,8.9-17.3,5.42,2.76h0c1.44.72,2.16,1.49,2.82,2.38.11.44.28.88.39,1.44.06.22.06.61,0,1.11-.17.66-.39,1.44-.66,2.04h0l-4.2,8.18h0c-.99,2.04-2.87,3.09-4.81,2.87-.88-.11-1.66-.33-2.43-.72h0Z"/>
      <polygon class="cls-3" points="88.47 188.05 83.83 186.56 82.5 190.6 86.98 192.09 86.1 194.91 81.62 193.41 79.58 199.49 84.22 201.04 83.33 203.8 83.33 203.8 83.33 203.8 74.27 200.82 80.4 182.31 89.41 185.35 88.47 188.05 88.47 188.05"/>
      <path class="cls-3" d="M115.05,191.53l.06,2.43-4.53.11-.06-2.1h0c0-.83-.06-1.33-.17-1.44-.17-.5-.5-.66-.99-.66-.83,0-1.16.55-1.11,1.82h0l.22,10.94h0c0,.94.55,1.44,1.22,1.44.83,0,1.16-.55,1.16-1.49h0l-.06-3.43,4.53-.11.06,2.76h0c.06,3.43-1.99,5.25-5.58,5.42-1.99.06-3.43-.44-4.64-1.55-.83-.77-1.22-2.27-1.27-4.2h0l-.17-8.68h0c-.06-1.99.44-3.48,1.38-4.42.28-.39.94-.66,1.44-.99.83-.17,1.82-.39,2.93-.44,2.76-.06,4.42.72,5.08,2.16.33.83.5,1.6.5,2.43h0Z"/>
      <polygon class="cls-3" points="121.96 193.41 124.23 193.03 123.07 186.12 127.6 185.4 130.69 204.63 126.33 205.35 124.89 196.12 122.62 196.45 124.12 205.68 124.12 205.68 124.12 205.68 119.53 206.4 116.49 187.17 120.8 186.45 121.96 193.41 121.96 193.41"/>
      <polygon class="cls-3" points="140.03 202.03 140.03 202.03 140.03 202.03 135.61 203.36 130.08 184.68 134.45 183.41 140.03 202.03 140.03 202.03"/>
      <polygon class="cls-3" points="152.69 196.78 152.69 196.78 152.69 196.78 144.01 200.6 136.16 182.75 140.2 180.98 146.88 196.12 151.47 194.08 152.69 196.78 152.69 196.78"/>
      <polygon class="cls-3" points="154.68 176.34 150.53 178.94 152.8 182.58 156.83 179.99 158.38 182.53 154.34 185.01 157.77 190.43 161.91 187.78 163.46 190.32 163.46 190.32 163.46 190.32 155.45 195.4 145.06 178.94 153.13 173.8 154.68 176.34 154.68 176.34"/>
      <path class="cls-3" d="M164.57,176.89c1.04,0,1.88.84,1.88,1.88s-.84,1.88-1.88,1.88-1.88-.84-1.88-1.88.84-1.88,1.88-1.88h0Z"/>
      <path class="cls-3" d="M56.42,176.89c1.04,0,1.88.84,1.88,1.88s-.84,1.88-1.88,1.88-1.88-.84-1.88-1.88.84-1.88,1.88-1.88h0Z"/>
      <path class="cls-4" d="M108.7,6.13c56.53,0,102.62,46.09,102.62,102.62s-46.09,102.62-102.62,102.62S6.08,165.23,6.08,108.7,52.17,6.13,108.7,6.13h0Z"/>
      <path class="cls-2" d="M108.7,6.13c56.53,0,102.62,46.09,102.62,102.62s-46.09,102.62-102.62,102.62c-30.73,0-58.3-13.59-77.15-35.09l-.06-.06c-15.8-18.07-25.42-41.67-25.42-67.47C6.08,52.22,52.17,6.13,108.7,6.13h0Z"/>
      <path class="cls-5" d="M108.7,6.13c56.53,0,102.62,46.09,102.62,102.62s-46.09,102.62-102.62,102.62S6.08,165.23,6.08,108.7,52.17,6.13,108.7,6.13h0Z"/>
      <path class="cls-3" d="M108.7,34.65c40.84,0,74.11,33.27,74.11,74.11s-33.27,74.11-74.11,74.11-74.11-33.32-74.11-74.16S67.86,34.65,108.7,34.65h0Z"/>
      <polygon class="cls-3" points="30.61 103.61 30.61 103.61 30.61 103.61 30.34 108.26 10.94 107.1 11.49 97.65 14.42 97.81 14.09 102.73 18.57 102.95 18.79 98.25 21.55 98.36 21.33 103.06 30.61 103.61 30.61 103.61"/>
      <polygon class="cls-3" points="16.8 85.32 15.8 90.13 19.95 91.01 20.94 86.37 23.82 87.04 22.82 91.62 29.01 93 30.12 88.14 32.99 88.8 32.99 88.8 32.99 88.8 30.95 98.09 11.94 94 13.92 84.71 16.8 85.32 16.8 85.32"/>
      <path class="cls-3" d="M19.4,76.31l-.22.61,12.93,4.7.22-.61h0c.17-.5.28-.77.06-1.22-.39-.5-.77-.77-1.49-1.11h0l-8.95-3.26h0c-1.33-.44-2.21-.11-2.54.88h0ZM35.37,81.18l-2.04,5.69-18.35-6.58,2.04-5.69h0c.55-1.55,1.22-2.32,1.99-3.09.44-.17.83-.44,1.44-.55.17-.11.61-.11,1.11-.11.66.06,1.49.17,2.1.44h0l8.62,3.09h0c2.16.77,3.48,2.43,3.48,4.37,0,.83-.11,1.66-.39,2.43h0Z"/>
      <polygon class="cls-3" points="28.07 58.63 25.64 62.89 29.34 64.99 31.66 60.84 34.26 62.28 31.94 66.42 37.47 69.52 39.9 65.26 42.44 66.7 42.44 66.7 42.44 66.7 37.8 74.99 20.83 65.37 25.47 57.14 28.07 58.63 28.07 58.63"/>
      <path class="cls-3" d="M33.6,50.62l3.98,3.15.44-.55h0c.83-.99.39-1.82-1.16-2.98-1.44-1.16-2.1-.99-2.71-.28h0l-.55.66h0ZM46.58,61.01l-2.87,3.59-15.2-12.1,3.87-4.86h0c2.32-2.93,4.53-3.04,6.85-1.27.99.83,1.71,1.82,1.99,2.82.06.66-.17,1.55-.66,2.65h0c1.44-1.82,3.04-1.99,4.97-.44h0l3.04,2.43h0c1.16.88,1.71,1.22,2.71,1.33h0l-2.93,3.7h0c-.72-.17-1.44-.55-2.43-1.33h0l-2.27-1.88h0c-.77-.61-1.27-.99-1.6-1.11-.5-.17-.72-.17-.94-.11-.5.06-.66.28-.94.72h0l-.28.39,6.69,5.47h0Z"/>
      <path class="cls-3" d="M51.12,44.65l1.33-1.22-6.24-6.08,4.92,7.29h0ZM52.77,47.3l2.65,4.03-2.82,2.54-10.44-16.8,4.7-4.14,14.75,12.93-3.32,2.93-3.65-3.09-1.88,1.6h0Z"/>
      <path class="cls-3" d="M64.71,25.81l1.27,2.1-3.87,2.32-1.11-1.82h0c-.44-.72-.66-1.16-.88-1.22-.44-.39-.77-.28-1.22-.06-.72.44-.72.99-.06,2.16h0l5.64,9.39h0c.5.83,1.22.99,1.71.66.72-.44.72-.99.22-1.88h0l-1.82-2.93,3.87-2.32,1.44,2.38h0c1.82,2.93.88,5.58-2.21,7.41-1.66.99-3.15,1.38-4.81.94-1.16-.28-2.16-1.38-3.15-3.04h0l-4.48-7.41h0c-.99-1.66-1.38-3.15-.99-4.53.11-.5.5-1.11.77-1.6.61-.55,1.38-1.22,2.32-1.82,2.38-1.44,4.2-1.55,5.53-.66.83.66,1.38,1.22,1.82,1.93h0Z"/>
      <polygon class="cls-3" points="78.19 36.42 78.19 36.42 78.19 36.42 73.99 38.29 66.2 20.5 70.4 18.62 78.19 36.42 78.19 36.42"/>
      <path class="cls-3" d="M79.85,19.06l3.37,10.94h0c.28.94.88,1.27,1.49,1.11.77-.22.94-.77.61-1.93h0l-3.26-10.5h0c-.39-1.11-.77-1.49-1.55-1.27-.55.28-.88.88-.66,1.66h0ZM86.81,18.29l2.76,8.95h0c.61,1.88.5,3.76-.94,5.25-.66.72-1.66,1.22-2.93,1.55-2.04.61-3.76.5-5.08-.28-.5-.39-.88-.72-1.27-1.33-.28-.44-.5-.99-.66-1.66h0l-2.82-9.23h0c-.39-1.11-.44-1.93-.28-2.65.22-1.99,1.55-3.37,4.2-4.2,2.65-.83,4.42-.55,5.69.66.5.66.88,1.55,1.33,2.93h0Z"/>
      <polygon class="cls-3" points="94.11 31.61 94.11 31.61 94.11 31.61 92.01 12.21 98.31 11.55 102.84 25.36 101.24 11.22 104.89 10.83 106.93 30.23 101.13 30.78 95.93 15.09 97.7 31.22 94.11 31.61 94.11 31.61"/>
      <path class="cls-3" d="M133.34,17.02l-.66-.17-3.54,13.26.66.17h0c.5.11.77.22,1.22,0,.44-.39.72-.83.94-1.6h0l2.43-9.17h0c.33-1.49-.11-2.27-1.05-2.49h0ZM129.81,33.32l-5.86-1.55,5.03-18.84,5.86,1.55h0c1.55.44,2.43.99,3.26,1.71.22.44.5.77.66,1.38.11.17.17.55.22,1.11,0,.66-.06,1.49-.22,2.16h0l-2.38,8.9h0c-.61,2.21-2.16,3.65-4.09,3.81-.88.06-1.71,0-2.49-.22h0Z"/>
      <polygon class="cls-3" points="151.97 24.37 147.55 22.38 145.78 26.25 150.09 28.18 148.87 30.89 144.56 28.9 141.91 34.7 146.39 36.75 145.12 39.46 145.12 39.46 145.12 39.46 136.49 35.48 144.62 17.79 153.24 21.72 151.97 24.37 151.97 24.37"/>
      <polygon class="cls-3" points="160.48 49.9 160.48 49.9 160.48 49.9 157 46.97 169.71 32.16 176.89 38.41 174.96 40.62 171.25 37.41 168.38 40.73 171.97 43.88 170.2 45.98 166.61 42.83 160.48 49.9 160.48 49.9"/>
      <path class="cls-3" d="M169.6,51.06l10.94-9.34,2.87,3.37-11.33,9.67h0c-1.27,1.11-1.27,1.49-.72,2.16.55.61,1.22.66,2.32-.28h0l11.33-9.67,2.98,3.48-11.05,9.34h0c-2.1,1.82-3.87,2.04-5.58,1.33-.77-.44-1.55-1.11-2.38-2.04-1.82-2.1-2.21-4.14-1.55-5.58.55-.83,1.22-1.6,2.16-2.43h0Z"/>
      <polygon class="cls-3" points="177.61 71.29 175.29 67.31 189.55 58.96 189.55 58.96 189.55 58.96 188 56.26 190.54 54.82 195.96 64.1 193.47 65.65 191.87 62.94 177.61 71.29 177.61 71.29"/>
      <path class="cls-3" d="M189.71,76.31l-.44-1.11-5.58,2.32.22.61h0c.11.28.44.55.44.55.39.39.77.55,1.27.55.39,0,.94-.22,1.88-.61,1.82-.77,2.21-1.11,2.38-1.55-.06-.11-.06-.5-.17-.77h0ZM196.84,72.94l-.28-.77-4.7,1.99.28.77h0c.28.77.83,1.11,1.49.94.39,0,.83-.17,1.55-.5,1.88-.77,2.16-1.22,1.66-2.43h0ZM181.81,80.18l-2.32-5.58,17.9-7.57,2.32,5.58h0c1.11,2.6.94,4.03.11,5.25-.5.55-1.16.99-2.21,1.49-2.87,1.22-4.37.61-5.53-1.27h0l-.17.06.22.61h0c.28.77.11,1.93-.61,2.76-.55.44-1.11.83-1.99,1.22-1.22.55-2.1.88-2.76.99-.94.22-2.16,0-2.82-.44-.61-.22-1.38-1.16-2.16-3.09h0Z"/>
      <path class="cls-3" d="M200.65,87.75l-11.16,2.65h0c-.94.22-1.33.83-1.22,1.44.17.77.72.99,1.88.72h0l10.67-2.54h0c1.16-.22,1.49-.72,1.33-1.49-.11-.61-.72-.94-1.49-.77h0ZM200.93,94.77l-9.06,2.16h0c-1.93.5-3.81.22-5.14-1.33-.66-.66-1.11-1.71-1.38-3.04-.5-2.1-.22-3.81.66-5.03.44-.44.77-.83,1.38-1.22.44-.28,1.11-.44,1.71-.61h0l9.39-2.21h0c1.16-.22,1.99-.28,2.65-.11,1.93.39,3.26,1.71,3.87,4.42.66,2.71.22,4.48-.99,5.64-.77.61-1.66.94-3.09,1.33h0Z"/>
      <polygon class="cls-3" points="187.45 110.14 187.45 110.14 187.45 110.14 186.73 100.69 206.12 99.19 206.51 103.56 190.04 104.89 190.37 109.91 187.45 110.14 187.45 110.14"/>
      <path class="cls-3" d="M71.07,181.2l-.61-.28-6.3,12.21.61.28h0c.44.22.72.39,1.16.22.55-.28.88-.66,1.27-1.38h0l4.31-8.45h0c.72-1.27.44-2.21-.44-2.6h0ZM64.16,196.4l-5.42-2.76,8.9-17.3,5.42,2.76h0c1.44.72,2.16,1.49,2.82,2.38.11.44.28.88.39,1.44.06.22.06.61,0,1.11-.17.66-.39,1.44-.66,2.04h0l-4.2,8.18h0c-.99,2.04-2.87,3.09-4.81,2.87-.88-.11-1.66-.33-2.43-.72h0Z"/>
      <polygon class="cls-3" points="88.47 188.05 83.83 186.56 82.5 190.6 86.98 192.09 86.1 194.91 81.62 193.41 79.58 199.49 84.22 201.04 83.33 203.8 83.33 203.8 83.33 203.8 74.27 200.82 80.4 182.31 89.41 185.35 88.47 188.05 88.47 188.05"/>
      <path class="cls-3" d="M115.05,191.53l.06,2.43-4.53.11-.06-2.1h0c0-.83-.06-1.33-.17-1.44-.17-.5-.5-.66-.99-.66-.83,0-1.16.55-1.11,1.82h0l.22,10.94h0c0,.94.55,1.44,1.22,1.44.83,0,1.16-.55,1.16-1.49h0l-.06-3.43,4.53-.11.06,2.76h0c.06,3.43-1.99,5.25-5.58,5.42-1.99.06-3.43-.44-4.64-1.55-.83-.77-1.22-2.27-1.27-4.2h0l-.17-8.68h0c-.06-1.99.44-3.48,1.38-4.42.28-.39.94-.66,1.44-.99.83-.17,1.82-.39,2.93-.44,2.76-.06,4.42.72,5.08,2.16.33.83.5,1.6.5,2.43h0Z"/>
      <polygon class="cls-3" points="121.96 193.41 124.23 193.03 123.07 186.12 127.6 185.4 130.69 204.63 126.33 205.35 124.89 196.12 122.62 196.45 124.12 205.68 124.12 205.68 124.12 205.68 119.53 206.4 116.49 187.17 120.8 186.45 121.96 193.41 121.96 193.41"/>
      <polygon class="cls-3" points="140.03 202.03 140.03 202.03 140.03 202.03 135.61 203.36 130.08 184.68 134.45 183.41 140.03 202.03 140.03 202.03"/>
      <polygon class="cls-3" points="152.69 196.78 152.69 196.78 152.69 196.78 144.01 200.6 136.16 182.75 140.2 180.98 146.88 196.12 151.47 194.08 152.69 196.78 152.69 196.78"/>
      <polygon class="cls-3" points="154.68 176.34 150.53 178.94 152.8 182.58 156.83 179.99 158.38 182.53 154.34 185.01 157.77 190.43 161.91 187.78 163.46 190.32 163.46 190.32 163.46 190.32 155.45 195.4 145.06 178.94 153.13 173.8 154.68 176.34 154.68 176.34"/>
      <path class="cls-3" d="M164.57,176.89c1.04,0,1.88.84,1.88,1.88s-.84,1.88-1.88,1.88-1.88-.84-1.88-1.88.84-1.88,1.88-1.88h0Z"/>
      <path class="cls-3" d="M56.42,176.89c1.04,0,1.88.84,1.88,1.88s-.84,1.88-1.88,1.88-1.88-.84-1.88-1.88.84-1.88,1.88-1.88h0Z"/>
      <path class="cls-6" d="M60.23,110.41c-1.71,3.32-3.15,6.19-3.15,11.88,0,16.14,10.72,23.6,21.22,28.79,4.14,2.04,8.51,3.54,12.71,4.97,6.41,2.21,12.6,4.31,17.02,8.18,4.48-3.87,10.61-5.97,17.02-8.18,4.2-1.44,8.57-2.93,12.71-4.97,10.5-5.19,21.22-12.65,21.22-28.79,0-5.64-1.44-8.51-3.15-11.88-.06-.17-.17-.33-.22-.5H60.51c-.11.17-.17.33-.28.5h0Z"/>
      <path class="cls-5" d="M158.82,77.7l-13.21-16.08c-4.14,2.04-11.44,5.03-18.68,5.03-4.09,0-6.8-1.11-9.17-2.04-2.49-.99-4.86-1.99-9.67-1.99s-7.18.94-9.67,1.99c-2.38.99-5.08,2.04-9.17,2.04-7.29,0-14.53-2.98-18.68-5.03l-13.21,16.08c2.82,3.65,6.85,10.11,6.85,17.68,0,5.25-1.11,8.84-2.43,11.83h92.56c-1.33-2.98-2.43-6.63-2.43-11.83.06-7.57,4.03-14.04,6.91-17.68h0Z"/>
      <polygon class="cls-3" points="140.31 101.46 116.71 101.46 108.09 75.76 99.47 101.46 75.87 101.46 94.55 115.66 86.81 138.93 108.09 125.06 129.37 138.93 129.37 138.93 121.63 115.66 140.31 101.46 140.31 101.46"/>
    </g>
  </g>
</svg>