<?xml version="1.0" encoding="UTF-8"?>
<svg id="Capa_2" data-name="Capa 2" xmlns="http://www.w3.org/2000/svg" viewBox="0 0 172.84 217.91">
  <defs>
    <style>
      .cls-1 {
        fill: #1f1813;
      }

      .cls-2 {
        fill: #686667;
      }

      .cls-3 {
        fill: #806421;
      }

      .cls-4 {
        fill: gray;
      }

      .cls-4, .cls-5, .cls-6, .cls-7, .cls-8, .cls-9, .cls-10, .cls-11, .cls-12, .cls-13 {
        fill-rule: evenodd;
      }

      .cls-14, .cls-5 {
        fill: #4d4d4d;
      }

      .cls-15, .cls-6 {
        fill: #fff;
      }

      .cls-7, .cls-16 {
        fill: #c7c7c9;
      }

      .cls-17 {
        fill: #7f2d23;
      }

      .cls-18 {
        fill: #f9b036;
      }

      .cls-19 {
        fill: #b16e77;
      }

      .cls-8 {
        fill: #de8878;
      }

      .cls-20 {
        fill: #c9c9cc;
      }

      .cls-21 {
        fill: #fff03e;
      }

      .cls-9 {
        fill: #060108;
      }

      .cls-10 {
        fill: #cc9867;
      }

      .cls-11 {
        fill: #a52c2f;
      }

      .cls-22, .cls-13 {
        fill: #31332f;
      }

      .cls-23 {
        fill: #d6d7d7;
      }

      .cls-12 {
        fill: #d7bc44;
      }

      .cls-24 {
        fill: #007261;
      }

      .cls-25 {
        fill: #e73c32;
      }
    </style>
  </defs>
  <g id="Capa_2-2" data-name="Capa 2">
    <g>
      <g id="Fondo">
        <path class="cls-21" d="M17.41,109.13c0,10.33,1.84,25.68,10.61,40.2,2.86,4.74,6.27,9.04,10.21,12.92l116.26-67.12c-1.13-5.93-2.86-10.86-4.56-15.7-2.5-7.13-4.86-13.86-4.86-22.37,0-12.55,6.19-23.75,10.53-30.07l-.03-.03L17.44,106.71c-.02.79-.03,1.6-.03,2.42Z"/>
        <path class="cls-25" d="M155.57,26.97l-12.94-13.1c-5.04,5.24-13.76,11.11-27.51,11.11s-23-6.76-28.53-12.77c-5.53,6.01-14.8,12.77-28.53,12.77s-22.47-5.87-27.51-11.11l-12.97,13.13c4.34,6.32,10.53,17.52,10.53,30.07,0,8.5-2.36,15.24-4.86,22.37-2.69,7.67-5.46,15.58-5.8,27.28L155.57,26.97Z"/>
        <path class="cls-24" d="M73.15,181.76c3.72.98,9.1,3.54,13.43,8.01,4.33-4.48,9.71-7.03,13.43-8.01,20.59-6.01,35.77-16.92,45.14-32.42,8.77-14.52,10.61-29.88,10.61-40.2,0-5.34-.5-9.91-1.28-14l-116.26,67.12c8.94,8.79,20.63,15.33,34.93,19.51Z"/>
        <path class="cls-18" d="M35.46,169.47c.48.43.97.86,1.46,1.29.43.37.86.73,1.3,1.09,1.37,1.12,2.8,2.22,4.29,3.28.9.64,1.81,1.26,2.75,1.88.9.58,1.82,1.16,2.77,1.72.43.26.86.51,1.3.76,1.56.9,3.18,1.76,4.86,2.6,1.28.63,2.59,1.24,3.94,1.83,4.04,1.77,8.41,3.36,13.12,4.73,0,0,1.65.42,3.87,1.52.23.11.46.23.7.36.18.1.36.2.55.3,4.46,2.52,10.21,7.55,10.21,16.73,0,0,0,0,0,0,0-14.98,15.33-18.92,15.33-18.92,18.86-5.49,32.15-14.43,41.39-24.82,1.16-1.3,2.25-2.62,3.28-3.96.69-.89,1.35-1.79,1.99-2.7.32-.45.63-.91.93-1.37.92-1.37,1.77-2.76,2.58-4.16.27-.47.53-.93.79-1.4.77-1.41,1.48-2.82,2.15-4.24.22-.47.44-.95.65-1.42.42-.95.82-1.9,1.2-2.85s.73-1.9,1.07-2.86c.47-1.32.89-2.63,1.28-3.95.07-.24.14-.49.21-.73.37-1.29.71-2.57,1.01-3.85,1.12-4.7,1.8-9.3,2.15-13.65.21-2.61.31-5.14.31-7.55,0-3.21-.17-6.17-.46-8.94-.07-.69-.15-1.37-.24-2.03-.09-.67-.18-1.32-.29-1.96-.1-.64-.21-1.27-.32-1.9-.17-.93-.36-1.84-.55-2.73-.13-.59-.27-1.17-.41-1.74-3.14-12.87-8.43-21.24-8.43-32.77,0-16.41,12.84-30.67,12.84-30.67l-12.88-13.03-10.33-10.45h0s-3.34,7.38-12.26,11.76c-.43.21-.87.41-1.32.61-.34.15-.69.29-1.05.43-1.09.42-2.25.79-3.48,1.1-.11.03-.22.06-.34.08-2.46.59-5.21.95-8.27.95C95.14,17.83,86.58,0,86.58,0h0s-2.01,4.18-6.35,8.5c-.14.14-.29.29-.44.43-.28.27-.57.54-.87.8-.03.03-.06.05-.08.08-.72.64-1.49,1.27-2.31,1.89-.09.07-.19.14-.28.21-.26.19-.52.37-.78.55-1.19.81-2.47,1.58-3.86,2.27-3.75,1.85-8.25,3.11-13.55,3.11-3.06,0-5.81-.35-8.28-.95-.1-.02-.2-.05-.3-.07-1.44-.36-2.78-.81-4.03-1.31-10.32-4.2-14.12-12.59-14.12-12.6h0S8.26,26.25,8.26,26.25l-.14.14s1.81,2.01,4.06,5.38c.56.84,1.16,1.77,1.76,2.78.1.17.2.34.3.51.4.69.8,1.4,1.2,2.15.3.56.59,1.14.88,1.73.1.2.19.4.29.6.29.6.57,1.22.84,1.86.45,1.05.88,2.15,1.27,3.27.55,1.58,1.02,3.22,1.39,4.91.16.72.3,1.46.42,2.2.08.49.15.99.2,1.49.14,1.25.22,2.52.22,3.8h0c0,1.28-.07,2.52-.19,3.74-.02.24-.05.48-.08.72-.14,1.2-.34,2.38-.58,3.54-.05.23-.1.46-.15.69-2.65,12.01-9.71,22.51-9.71,43.37,0,17.84,5.18,42.22,25.2,60.34ZM23.24,79.43c2.5-7.13,4.86-13.86,4.86-22.37,0-12.55-6.19-23.75-10.53-30.07l12.97-13.13c5.04,5.24,13.76,11.11,27.51,11.11s23-6.76,28.53-12.77c5.53,6.01,14.8,12.77,28.53,12.77s22.47-5.87,27.51-11.11l12.94,13.1.03.03c-4.34,6.32-10.53,17.52-10.53,30.07,0,8.5,2.36,15.24,4.86,22.37,1.7,4.84,3.43,9.78,4.56,15.7.78,4.1,1.28,8.67,1.28,14,0,10.33-1.84,25.68-10.61,40.2-9.36,15.5-24.55,26.41-45.14,32.42-3.72.98-9.1,3.54-13.43,8.01-4.33-4.48-9.71-7.03-13.43-8.01-14.3-4.18-25.98-10.71-34.93-19.51-3.94-3.87-7.35-8.18-10.21-12.92-8.77-14.52-10.61-29.88-10.61-40.2,0-.82.01-1.63.03-2.42.34-11.7,3.11-19.62,5.8-27.28Z"/>
      </g>
      <g id="Balón">
        <g>
          <circle class="cls-15" cx="86.58" cy="172.15" r="45.01" transform="translate(-96.37 111.65) rotate(-45)"/>
          <path class="cls-22" d="M86.58,217.54c-25.03,0-45.39-20.36-45.39-45.38s20.36-45.38,45.39-45.38,45.38,20.36,45.38,45.38-20.36,45.38-45.38,45.38ZM86.58,127.52c-24.61,0-44.64,20.02-44.64,44.63s20.02,44.63,44.64,44.63,44.63-20.02,44.63-44.63-20.02-44.63-44.63-44.63Z"/>
        </g>
        <path class="cls-16" d="M87.79,212.77c-3.06,0-7.97-.51-15.41-2.52-14.87-4.03-22.72-20.65-23.05-21.35-.2-.45-4.81-10.95-2.68-22.76,2.13-11.77,10.99-23.28,11.37-23.76.71-.59,14.61-11.5,21.74-11.88,7-.35,22.62,3.47,23.29,3.64l.24.11,6.23,4.24c.39.27,9.4,6.64,12.8,11.93,3.42,5.32,5.39,24.33,5.48,25.14l.02.2-.08.18c-.34.78-8.44,19.1-13.05,25.09-4.7,6.1-18.13,10.31-18.7,10.48l-.08.02-3.86.75s-1.23.52-4.25.52ZM59.08,143.42s-8.89,11.59-10.95,22.98c-2.06,11.36,2.52,21.77,2.57,21.88.07.16,7.88,16.68,22.08,20.53,14.12,3.83,18.79,2.04,18.84,2.03l3.97-.78c.78-.25,13.62-4.38,17.92-9.95,4.26-5.54,11.92-22.64,12.79-24.6-.22-2.06-2.17-19.53-5.23-24.28-3.25-5.05-12.3-11.45-12.39-11.51l-6.11-4.16c-1.54-.37-16.23-3.92-22.71-3.56-6.67.36-20.63,11.32-20.77,11.44h0Z"/>
        <polygon class="cls-23" points="83.42 203.92 81.94 203.67 86.26 177.77 101 173.69 101.28 173.87 119.23 185.32 119.08 188.37 117.59 188.3 117.69 186.12 100.76 175.31 87.58 178.96 83.42 203.92"/>
        <polygon class="cls-23" points="55.07 176.84 54.68 175.4 72.95 170.46 83.08 160.56 81.62 155.38 69.11 137.91 70.32 137.04 83.02 154.85 84.77 161.01 73.71 171.8 55.07 176.84"/>
        <rect class="cls-20" x="94.72" y="153.24" width="18.3" height="1.5" transform="translate(-81.78 147.95) rotate(-54.13)"/>
        <path class="cls-4" d="M57.4,138.35s7.33-7.45,20.64-10.01l6.65,3.23-11.66,10.87-15.94,1.59.31-5.67Z"/>
        <path class="cls-13" d="M57.7,137.49s-1.16,7.03,9.95,5.37l-10.75,1.4v-6.35l.8-.43Z"/>
        <path class="cls-4" d="M109.29,133.58s7.58,4.52,13.32,11.85l.12,8.11-15.39-4.7-6.53-14.66,8.48-.62Z"/>
        <path class="cls-13" d="M100.99,134.44s6.36,10.44,8.06,11.66c1.71,1.22,13.37,7.14,13.37,7.14l-15.14-4.46-6.29-14.34Z"/>
        <polygon class="cls-4" points="70.07 171.67 85.61 187.11 102.72 175.59 100.49 159.51 81.81 153.36 70.07 171.67"/>
        <path class="cls-7" d="M52.43,178.93c-1.85-5.29-5.81,26.93,25.54,30.92,29.49,3.76,35.25-7.92,39.37-13.16l4.86,2.99s-12.34,16.95-30.17,16.95-27.8-3.37-37.15-12.47c-9.35-9.1-13.22-22.07-12.59-24.43.62-2.37,10.15-.81,10.15-.81Z"/>
        <path class="cls-4" d="M71.24,214.45l-4.21-7.2,15.8-5.24,14.4,8.13-7.76,7.2s-7.57.19-10.85-.75c-2.82-.81-7.39-2.15-7.39-2.15Z"/>
        <path class="cls-4" d="M130.11,182.49l-3.29-8.73-11.05,10.74-2.38,16.67,7.08.12s4.99-6.35,6.52-9.52c1.53-3.17,3.11-9.28,3.11-9.28Z"/>
        <path class="cls-13" d="M115.83,185.97s-.61,12.03,0,12.82c.61.79,4.89,2.44,4.89,2.44l-7.39-.06,2.5-15.2Z"/>
        <path class="cls-4" d="M43.75,186.97l8.42,5.8,5.05-17.02-9.07-13.28-7.01,9.54s.47,6.45.84,8.42c.37,1.96,1.78,6.55,1.78,6.55Z"/>
        <path class="cls-13" d="M41.88,171.26s-.09,10.38,3.65,14.21c3.74,3.83,6.73,7.39,6.73,7.39l-8.32-5.52s-3.09-9.07-2.99-15.05l.94-1.03Z"/>
        <path class="cls-22" d="M86.58,217.91c-25.23,0-45.76-20.53-45.76-45.76s20.53-45.76,45.76-45.76,45.76,20.53,45.76,45.76-20.53,45.76-45.76,45.76ZM86.58,127.89c-24.41,0-44.26,19.86-44.26,44.26s19.86,44.26,44.26,44.26,44.26-19.86,44.26-44.26-19.85-44.26-44.26-44.26Z"/>
        <path class="cls-13" d="M67.8,207.28s8.46,5.11,13.32,6.09c5.66,1.14,12.79-.1,12.79-.1l-3.71,3.61s-9.28.72-13.93-.72c-4.65-1.44-4.85-1.85-4.85-1.85l-4.7-7.36,1.09.34Z"/>
      </g>
      <g id="FBF">
        <g>
          <path class="cls-9" d="M65.65,188.26l-3.57-3.57v-27.03s3.36-7.46,12.02-7.46v7.14s-5.67,0-8.45,2.26v8.87h8.03v6.72l-7.92-.95-.11,14.01Z"/>
          <path class="cls-15" d="M66.39,190.06l-5.05-5.05.07-27.65c.04-.08,3.66-7.9,12.7-7.9h.75v8.64h-.75c-.05,0-5.07.03-7.7,1.88v7.75h8.03v8.31l-7.93-.95-.11,14.97ZM62.84,184.39l2.08,2.09.1-13.06,7.91.94v-5.13h-8.03v-9.98l.28-.22c2.36-1.91,6.48-2.32,8.17-2.4v-5.65c-6.98.37-10.03,5.88-10.52,6.86v26.55Z"/>
        </g>
        <g>
          <path class="cls-9" d="M98.57,192.94v-43.78s10.13,3.2,12.28,9.71v2.68s-3.57-3.62-8.09-3.62v10.76l7.19.57v4.79l-6.87,1.04v14.54l-4.51,3.31Z"/>
          <path class="cls-15" d="M97.82,194.41v-46.28l.97.31c.43.14,10.52,3.4,12.77,10.19l.04.24v4.49l-1.28-1.29s-3.02-3-6.8-3.36v9.29l7.18.57v6.13l-6.87,1.04v14.28l-6.01,4.4ZM99.32,150.22v41.24l3.01-2.21v-14.8l6.87-1.04v-3.46l-7.18-.57v-12.2h.75c3.15,0,5.84,1.61,7.34,2.75v-.93c-1.69-4.85-8.28-7.8-10.79-8.77Z"/>
        </g>
        <g>
          <path d="M78.45,148.74c.56-.04,1.09-.08,1.63-.11,3.12-.19,6.25-.42,9.37-.57,2.9-.15,5.51,1.94,6.05,4.79.09.5.12,1.02.11,1.53-.08,2.95-.14,5.89-.27,8.84-.09,1.96-.3,3.92-1.23,5.7-.37.72-.82,1.4-1.25,2.11,1.59,1.49,2.07,3.56,2.4,5.66.49,3.18.53,6.37.02,9.55-.32,1.96-.87,3.85-1.96,5.53-.39.6-.9,1.13-1.38,1.66-.1.12-.32.19-.48.19-4.26-.1-8.52-.22-12.78-.33-.06,0-.13-.02-.21-.03v-44.51ZM82.74,188.94c.08,0,.14.02.2.02,2.03,0,4.05,0,6.08,0,.09,0,.19,0,.27-.04,1.1-.36,2.02-1.53,2.03-2.67.02-3.21.02-6.42,0-9.63,0-.88-.26-1.71-.91-2.37-.25-.25-.53-.39-.91-.38-2.12.02-4.23,0-6.35,0h-.41v15.07ZM82.74,154.48v13.65c.16,0,.31,0,.45,0,1.61,0,3.21-.07,4.81.03,1.04.06,1.76-.32,2.39-1.06.13-.15.26-.3.38-.45.38-.49.57-1.04.56-1.68-.02-2.53-.03-5.05,0-7.58.01-.84-.29-1.5-.78-2.12-.41-.53-.95-.79-1.64-.79-1.93.02-3.87,0-5.8,0h-.38Z"/>
          <path class="cls-15" d="M91.46,194.33h-.02c-3.86-.09-7.71-.19-11.57-.3l-1.22-.03c-.07,0-.15-.01-.24-.03l-.61-.09-.06-.63v-45.18l1.23-.09c.36-.03.71-.05,1.07-.07l2.75-.18c2.21-.14,4.42-.29,6.63-.4,3.26-.16,6.17,2.15,6.78,5.37.1.5.13,1.05.12,1.68l-.03,1.1c-.06,2.54-.13,5.16-.25,7.74-.09,1.98-.31,4.07-1.31,6-.27.52-.58,1.02-.87,1.5-.04.06-.07.12-.11.18,1.47,1.65,1.91,3.77,2.21,5.65.52,3.34.53,6.63.02,9.77-.39,2.39-1.04,4.23-2.07,5.81-.36.55-.79,1.02-1.2,1.48l-.24.27c-.28.31-.71.42-1.01.42ZM91.4,192.95h0s0,0,0,0ZM91.46,192.9h0,0ZM79.17,192.58l.73.02c3.85.1,7.7.2,11.55.3l.2-.22c.4-.44.77-.85,1.06-1.3.91-1.4,1.51-3.07,1.86-5.25.48-3,.48-6.14-.02-9.33-.3-1.9-.71-3.86-2.18-5.25l-.42-.39.29-.49c.13-.23.27-.45.41-.67.3-.48.58-.94.82-1.41.87-1.68,1.07-3.59,1.15-5.4.11-2.57.18-5.19.24-7.72l.03-1.1c.01-.52-.02-.97-.09-1.38-.48-2.53-2.76-4.34-5.31-4.21-2.21.11-4.41.25-6.61.4l-2.75.18c-.32.02-.64.04-.96.06v43.17ZM85.98,189.68c-1.01,0-2.02,0-3.03,0-.07,0-.14,0-.21-.02l-.65-.06-.06-.66v-15.78h2.75c1.57,0,3.15,0,4.72,0h.02c.55,0,1.01.2,1.41.6.73.75,1.1,1.71,1.11,2.87.02,2.81.03,5.87,0,9.64,0,1.42-1.12,2.89-2.52,3.35-.15.05-.31.07-.49.07-1.01,0-2.03,0-3.04,0ZM83.46,188.25c1.88,0,3.72,0,5.56,0,.88-.27,1.58-1.18,1.59-2,.02-3.76.02-6.82,0-9.62,0-.77-.24-1.41-.7-1.88-.12-.13-.24-.15-.39-.17-1.58.01-3.16,0-4.74,0h-1.32s0,13.65,0,13.65ZM88.23,168.88c-.09,0-.18,0-.27,0-1.1-.07-2.23-.05-3.33-.04-.48,0-.96.01-1.44.01h-1.16v-15.08h2.74c1.38,0,2.77,0,4.15,0h.03c.89,0,1.63.36,2.18,1.06.65.83.94,1.65.93,2.57-.04,2.49-.03,5,0,7.56,0,.8-.23,1.49-.71,2.12-.09.12-.18.23-.28.34l-.12.14c-.76.9-1.62,1.32-2.71,1.32ZM86.05,167.39c.66,0,1.33.01,2,.05.76.04,1.27-.19,1.8-.81l.13-.15c.08-.09.16-.18.23-.28.29-.37.42-.77.42-1.24-.02-2.57-.03-5.09,0-7.6,0-.59-.18-1.11-.62-1.67-.28-.35-.6-.51-1.05-.51h-.02c-1.39.01-2.78.01-4.17,0h-1.31s0,12.22,0,12.22c.38,0,.77,0,1.15-.01.47,0,.95-.01,1.44-.01Z"/>
        </g>
      </g>
      <g id="Condor">
        <g>
          <path class="cls-10" d="M73.15,124.44c.34,0,3.22-.06,3.22-.06l.33,5.04s1.03,2.41,2.4,2.42c1.37,0,4.6.55,5.85.95,1.25.4,5.44,2.69,4.81,5.53l-.91-1.86s-4.19-2.65-6.72-2.76c0,0,3.84,3.39,3.16,6.55l-.85-1.82s-3.08-3.82-4.45-4.05c-1.36-.23-1.53.43-1.36,1.46.17,1.02.99,3.94-.6,5.7l.11-2.37s-1.08-5.42-4.47-4.73c-3.39.68-3.69,1-4.36,1.57l-1.12,1.36s-.02-2.37,1.29-3.33c1.31-.97,4.75-1.34,4.98-2.14.23-.8.74-2.96-.06-5.1-.8-2.14-1.25-2.37-1.25-2.37Z"/>
          <path class="cls-3" d="M77.7,142.31l.15-3.15h0s-.63-2.98-2.3-4.09c-.55-.37-1.16-.49-1.83-.35-3.23.65-3.59.96-4.18,1.47l-1.63,1.97v-.77c0-.1-.01-2.52,1.39-3.56.66-.48,1.74-.81,2.8-1.12.8-.24,2.01-.6,2.08-.87.29-1.01.67-3-.05-4.92-.71-1.91-1.12-2.21-1.13-2.23l.15-.52c.34,0,3.21-.06,3.21-.06h.27s.34,5.25.34,5.25c.29.65,1.18,2.2,2.12,2.21,1.43,0,4.71.57,5.94.96,1.51.48,5.66,2.85,5,5.86l-.17.78-1.23-2.5c-.48-.3-3.46-2.1-5.71-2.57,1.09,1.14,3.18,3.71,2.63,6.22l-.17.81-1.21-2.57c-.8-.98-3.21-3.72-4.24-3.89-.33-.06-.76-.08-.95.1-.15.15-.19.49-.1,1.03.02.11.05.24.08.39.25,1.26.76,3.87-.75,5.54l-.52.58ZM74.24,134.1c.58,0,1.12.17,1.62.5,1.87,1.25,2.51,4.38,2.54,4.52l-.06,1.41c.64-1.41.28-3.19.08-4.23-.03-.16-.06-.3-.08-.41-.08-.51-.13-1.14.25-1.52.28-.29.75-.38,1.43-.26,1.43.24,4.3,3.75,4.62,4.15l.42.89c-.23-2.64-3.1-5.21-3.13-5.23l-.6-.53.8.04c2.58.11,6.68,2.7,6.86,2.81l.07.04.36.73c-.63-2.04-3.61-3.64-4.56-3.94-1.19-.38-4.38-.93-5.77-.94-1.53-.01-2.61-2.48-2.65-2.59l-.02-.09-.31-4.77c-.51,0-1.65.03-2.37.04.23.36.54.97.92,1.99.77,2.08.37,4.19.07,5.27-.16.54-.99.82-2.46,1.25-.96.29-2.05.61-2.62,1.03-.7.52-.98,1.5-1.09,2.23l.63-.74c.66-.57,1.06-.91,4.43-1.59.22-.04.43-.07.63-.07Z"/>
        </g>
        <g>
          <path class="cls-10" d="M87.69,121.84l3.33-.4,4.19,5.59s.89,1.36,2.37,1.48c1.48.11,8.24-.17,9.49,4.79l-1.86-1.8s-2.59-1.59-4.13-1.48-1.71.68-1.19,1.36c.51.68,3.35,2.08,2.39,5.53l-.8-2.03s-1.23-2.25-3.05-2.71c-1.82-.45-3.16-.28-2.48,1.29.72,1.66,1.02,4.79.11,5.76v-2.14s-1.71-5.04-3.67-4.87c-1.97.17-4.62.6-5.47,3.22,0,0,0-3.26,2.2-4.28,2.2-1.02,5.04-1,4.3-2.59-.74-1.59-3.07-4.51-4.58-5.76l-1.14-.97Z"/>
          <path class="cls-3" d="M95.78,139.93v-2.8c-.46-1.35-1.9-4.64-3.29-4.64-.03,0-.05,0-.08,0-2.16.19-4.47.69-5.23,3.03l-.55-.09c0-.14.03-3.45,2.36-4.53.72-.33,1.5-.56,2.19-.76.95-.27,1.84-.53,2.03-.94.02-.05.09-.2-.06-.53-.71-1.52-3.02-4.43-4.51-5.66l-1.63-1.38,4.13-.49.1.13,4.19,5.59s.85,1.26,2.16,1.37c.14.01.34.02.57.03,2.18.08,7.99.3,9.17,4.97l.24.96-2.56-2.49h0s-2.33-1.4-3.77-1.4c-.05,0-.1,0-.15,0-.96.07-1.15.31-1.18.39-.07.15.09.4.19.53.08.11.26.26.47.44.98.83,2.79,2.38,1.96,5.33l-.23.8-1.1-2.8h0s-1.18-2.12-2.86-2.54c-1.14-.28-1.98-.28-2.22.01-.17.2-.06.6.07.89.74,1.69,1.08,4.98.06,6.06l-.49.51ZM92.48,131.93c2.07,0,3.66,4.54,3.84,5.06l.02.09v.23c.05-1.2-.2-2.71-.65-3.74-.28-.64-.27-1.14.02-1.48.42-.49,1.35-.55,2.79-.2,1.92.48,3.18,2.75,3.23,2.85l.45,1.15c.17-2.01-1.14-3.12-1.96-3.82-.24-.21-.44-.37-.55-.53-.31-.41-.39-.78-.25-1.1.19-.41.72-.64,1.64-.71,1.63-.1,4.19,1.45,4.3,1.52l1,.96c-1.69-3.16-6.34-3.34-8.21-3.41-.24,0-.44-.02-.59-.03-1.6-.12-2.54-1.54-2.58-1.6l-4.08-5.44-2.53.3.64.55c1.56,1.29,3.91,4.24,4.66,5.85.17.37.19.7.06.99-.29.64-1.21.91-2.38,1.24-.67.19-1.43.41-2.11.73-1.06.49-1.57,1.58-1.81,2.5,1.17-1.43,3.11-1.81,4.95-1.97.04,0,.08,0,.12,0Z"/>
        </g>
        <g>
          <path class="cls-8" d="M118.2,105.79s-4.3-1.75-4.47-7.24c-.18-5.5,5.81-5.85,5.81-5.85,0,0,1.3,1.13,2.5,1.13s5.08.59,6.69-.49c1.62-1.08,3.26-2.02,5.23-2.06,1.97-.04,4.32.47,5.94,1.42,1.62.95,2.64,1.87,2.86,2.81.22.95.27,2.53-.09,3.35-.36.82-3.51,3.45-7.01,3.45s-4.98-.42-6.84-.99c-1.87-.58-4.21-.59-6.16.75-1.95,1.35-4.46,3.72-4.46,3.72Z"/>
          <path class="cls-19" d="M118.24,106.01l-.11-.05s-4.41-1.86-4.59-7.41c-.18-5.61,5.92-6.04,5.98-6.04h.08s.06.05.06.05c.01.01,1.27,1.08,2.38,1.08.26,0,.64.03,1.08.06,1.61.11,4.29.3,5.51-.52,1.47-.99,3.22-2.04,5.33-2.09,2.09-.05,4.46.52,6.04,1.45,1.79,1.05,2.72,1.98,2.95,2.93.24,1.01.27,2.62-.1,3.46-.37.86-3.61,3.56-7.18,3.56s-4.89-.38-6.9-1c-2.17-.67-4.36-.4-6,.73-1.92,1.32-4.41,3.68-4.44,3.7l-.09.08ZM119.47,92.89c-.7.06-5.72.66-5.56,5.65.16,4.82,3.6,6.71,4.25,7.03.47-.44,2.65-2.46,4.39-3.65,1.74-1.2,4.05-1.48,6.32-.78,1.98.61,3.42.99,6.79.99s6.52-2.62,6.83-3.34c.33-.75.3-2.27.08-3.23-.19-.83-1.1-1.71-2.77-2.7-1.46-.86-3.63-1.4-5.6-1.4-.08,0-.16,0-.24,0-2.01.04-3.7,1.07-5.13,2.03-1.33.89-3.98.7-5.75.58-.43-.03-.81-.06-1.05-.06-1.12,0-2.28-.89-2.57-1.12Z"/>
        </g>
        <g>
          <path class="cls-12" d="M140.04,98.37c.18-.53.8-2.09,3.84-2.09s4.74.44,5.43,1.02c.88.74.33,3.91-1.73,4.46,0,0,.8-1.47-1.02-1.29-1.82.18-5.58.51-6.25-.36-.67-.86-.44-1.22-.27-1.75Z"/>
          <path class="cls-3" d="M147.2,102.05l.21-.38c.08-.14.25-.57.09-.8-.12-.18-.44-.26-.92-.21-3.93.38-5.9.25-6.42-.43-.67-.86-.51-1.31-.34-1.78l.05-.14c.48-1.45,1.87-2.21,4.01-2.21,2.8,0,4.72.37,5.55,1.06.44.37.59,1.23.38,2.19-.23,1.03-.92,2.26-2.18,2.59l-.42.11ZM146.84,100.27c.47,0,.8.13.97.39.16.24.14.55.08.78.87-.41,1.37-1.36,1.55-2.18.18-.8.07-1.55-.25-1.82-.44-.36-1.71-.98-5.31-.98-1.37,0-3.12.34-3.66,1.96l-.05.14c-.16.44-.26.73.29,1.43.42.54,2.46.64,6.08.28.11-.01.21-.02.3-.02Z"/>
        </g>
        <path class="cls-3" d="M147.81,100.83l-.27-.26c.16-.17.47-.59.38-.81-.05-.14-.28-.23-.64-.26-.31-.03-.71-.06-1.15-.11-1.78-.17-4.47-.43-6.14-.29l-.03-.37c1.72-.15,4.42.12,6.2.29.44.04.83.08,1.15.11.52.04.84.21.95.5.19.51-.4,1.14-.46,1.21Z"/>
        <g>
          <path class="cls-11" d="M138.39,92.39c.13-.09-.22-1.07.84-1.2,1.07-.13,1.84-.4,2.5.8.67,1.2,1.02,1.79,1.64,1.97.62.18,1.17.53,1.35,1.07.18.53-.93,1.82-2.5.84-1.57-.98-2.86-2.49-2.86-2.49,0,0-1.11-.9-.98-.99Z"/>
          <path class="cls-17" d="M143.36,96.41c-.4,0-.82-.13-1.23-.38-1.58-.98-2.85-2.46-2.9-2.52-1.04-.85-1.04-1.02-1.03-1.11v-.09s.04-.03.04-.03c0-.03,0-.07,0-.11,0-.31.02-1.04.97-1.16.11-.01.22-.03.33-.05.91-.13,1.7-.25,2.36.94.64,1.16.98,1.72,1.53,1.88.77.22,1.29.64,1.48,1.19.11.32-.1.77-.49,1.08-.31.24-.67.36-1.06.36ZM138.59,92.41c.12.16.53.53.89.82.04.04,1.31,1.52,2.84,2.47.96.6,1.63.23,1.86.04.31-.24.41-.54.37-.67-.14-.42-.59-.76-1.22-.94-.69-.2-1.08-.84-1.75-2.06-.53-.96-1.07-.88-1.98-.75-.11.02-.22.03-.34.05-.63.08-.64.48-.64.8,0,.09,0,.17-.03.24ZM138.29,92.23s-.02.01-.02.02l.02-.02Z"/>
        </g>
        <path class="cls-19" d="M139.88,96.92l-.75-.04s.03-.98-.68-1.47c-.22-.16-.46-.29-.68-.42-.7-.41-1.42-.83-1.66-1.67l.72-.2c.16.55.69.86,1.31,1.22.24.14.49.29.73.45,1.06.73,1.01,2.06,1.01,2.12Z"/>
        <g>
          <circle class="cls-14" cx="138.02" cy="95.11" r=".8"/>
          <path class="cls-14" d="M138.02,96.13c-.57,0-1.03-.46-1.03-1.03s.46-1.03,1.03-1.03,1.03.46,1.03,1.03-.46,1.03-1.03,1.03ZM138.02,94.54c-.31,0-.57.26-.57.57s.25.57.57.57.57-.26.57-.57-.25-.57-.57-.57Z"/>
        </g>
        <path class="cls-1" d="M172.43,21.65c-1.84-1.52-7.64,1.33-9.56,3.52l-.42.48c-1.89,2.18-5.06,5.82-7.86,7-2.96,1.24-9.75,2.92-14.53,3.6-4.83.69-14.74,3.92-20.74,9.69l-1.79,1.72c-5.34,5.12-9.56,9.17-10.83,11.53l-.27.51c-1.27,2.36-2.47,4.59-3.89,8.96-1.4,4.29-10.47,12.76-11.64,13.84-.83-.74-5.48-4.97-6.87-7.65l-.18-.36c-1.6-3.13-4.94-9.65-16.84-12.1-4.24-.87-8-1.79-11.64-2.68-6.94-1.7-12.94-3.16-19.97-3.77-10.61-.92-32.84-2.19-33.14-2.21-.49-.03-1.58.66-2.07,1.5-.07.12-.13.24-.17.37.52,1.23,1.22,2.3,2.02,3.27.11.14.23.27.35.41,2.47,2.44,5.07,4.3,7.55,7.04.13.1.26.21.4.31,2.15,1.61,4.6,2.56,7.8,1.71.09-.01.19-.03.28-.05.09-.02.19-.03.28-.05.14-.03.28-.06.42-.09.11.03.19.09.27.18s.13.21.17.35c.09.23.13.35.15.44.02,1.51.85,2.34,1.73,3.06.11.09.22.18.34.26,2.05,1.91,5.02-2.18,5.7.97.03.13.06.25.09.38.32,1.16,1.07,2.41,3.35,2.53,2.86.14,4.69-.3,5.02-.38.39.11,2.9.93,3.04,3.58.15,2.96.95,3.47,2.78,3.56.13,0,.26,0,.41,0,1.54,0,3.88-.33,4.31-.39.2.14.97.78.4,2.59-.26.82-.25,1.41.03,1.82.37.54,1.09.59,1.68.62l.21.02c.25.02.54-.02.86-.07.93-.14,1.87-.28,2.45.97.86,1.83,3.01,4.25,3.11,4.36.01.02,1.41,1.43,2.84.54.83-.52,2.63-.52,3.71,0,.3.14.66.38.7.73.04.3.15.62.28.96.4,1.12.82,2.28-1.33,3.15-.84.34-2.24.91-3.87,1.57-4.18,1.7-9.89,4.03-11.32,4.57-1.97.74-12.81,5.85-13.29,6.08-.02.01-2.08,1.34-4.38,1.49l-.6.04c-1.95.12-2.76.17-3.94,1.17-1.25,1.06-2.59,3.33-2.64,3.42-.03.05-.81,1.23-.43,1.99.17.35.54.55,1.09.59,2.12.17,3.5.65,4.09,1.43.3.39.39.86.28,1.42-.46,2.37-1.01,4.97-1.01,4.99-.01.11-.14,1.1.4,1.49.28.21.68.19,1.19-.05.14-.07.31-.15.48-.24,1.31-.66,3.49-1.75,4.41-1.24.25.14.39.4.43.79.23,2.34.54,6.18.54,6.19,0,.05-.07,1.32.64,1.9.23.19.51.28.84.28.18,0,.37-.03.58-.08,2.03-.55,7.6-3.86,9.96-5.47,2.56-1.75,6.89-6.03,8.11-8.35.34-.66.6-1.42.85-2.16.66-1.94,1.34-3.96,3.73-4.66,3.1-.92,6.91,2.97,8.75,4.84l.4.4c.38.38.77.79,1.16,1.19,1.43,1.49,2.9,3.04,4.37,3.7,1.51.68,4.44.88,5.58.14.34-.22.51-.52.51-.86,0-.29-.04-.64-.08-1.01-.19-1.63-.41-3.67,1.9-4.02,2.92-.43,4.78,2.12,4.81,2.16.14.16,3.5,3.84,5.7,2,1.98-1.65,1.89-5.02,1.86-5.66l7.68-6.26s3.51-3.95,10.24-3.95c.39,0,.78.01,1.19.04l.33.02-.14-.29c-.04-.09-4.45-9.05-.55-12.6,3.97-3.62,6.57-4.81,6.6-4.82l.16-.07-.07-.17c-.2-.5-.65-1.92-.34-2.55.07-.14.17-.23.3-.27,1.11-.34,6.9-.12,6.97-.12.45.09,1.95.37,2.27-.21.22-.4-.22-.92-.57-1.27-1.24-1.24-3.12-3.12-2.92-3.81.01-.05.05-.19.38-.26,1.45-.33,4.44-.56,4.73-.58.16.02,1.05.14,1.84-.41.58-.4.95-1.04,1.1-1.92.09-.51.14-.94.19-1.32.19-1.55.25-2.07,2.36-2.66.97-.27,1.57-.66,1.84-1.19.32-.64.07-1.3-.09-1.74-.04-.11-.08-.21-.1-.29-.02-.08-.05-.17-.09-.29-.3-.87-.92-2.67,1.41-4.21,2.76-1.83,4.39-4.07,4.42-4.12.04-.08.95-1.91,1.34-4.13.36-2.09,3.2-3.84,4.79-3.84s5.67-.96,6.68-2.54c.82-1.27,1.1-3.33,1.17-3.92.57-.04,2.48-.26,3.22-1.24.29-.39.37-.84.25-1.35-.17-.72-.46-1.42-.72-2.03-.34-.8-.65-1.56-.46-1.84.08-.11.25-.17.54-.17s.54.02.82.03c1.51.09,3.24.2,4.41-2.55.8-1.89,2.8-6.46,4.13-8.16,1.05-1.35,6.59-8.13,4.65-9.74Z"/>
        <g>
          <path class="cls-6" d="M118.28,105.69s-1.07,3.58-3.09,4.15c-2.02.57-5.23.08-7.27-3.15-2.03-3.24-2.34-9.22-.9-12.13,1.45-2.91,6.55-4.93,8.98-5.25,2.42-.33,3.89,3.42,3.48,3.81-.41.39-5.98,1.3-5.66,5.66.33,4.36,4.45,6.93,4.45,6.93Z"/>
          <path class="cls-2" d="M113.64,110.33c-2.06,0-4.39-1-5.96-3.5-1.99-3.17-2.45-9.31-.91-12.4,1.55-3.12,6.84-5.09,9.19-5.4,1.61-.23,2.82,1.12,3.46,2.44.16.33.65,1.46.25,1.84-.12.11-.32.18-.81.36-1.62.57-5,1.76-4.76,5.08.31,4.16,4.28,6.68,4.32,6.71l.18.11-.06.2c-.04.15-1.15,3.73-3.28,4.34-.51.14-1.05.22-1.62.22ZM116.3,89.57c-.08,0-.17,0-.26.02-2.4.32-7.38,2.3-8.76,5.1-1.46,2.95-1.03,8.82.88,11.86,1.84,2.93,4.82,3.64,6.95,3.03,1.58-.45,2.58-3.03,2.83-3.76-.83-.57-4.1-3.06-4.4-7.02-.28-3.74,3.51-5.08,5.13-5.65.26-.09.56-.2.62-.24.04-.17-.26-1.27-1.02-2.21-.43-.53-1.1-1.12-1.97-1.12Z"/>
        </g>
        <path class="cls-5" d="M57.46,87.84s-1.46,2.02-1.14,2.75c.33.73,1.61,1.06,2.5.49.9-.57,3.34-1.51,4.29-1.12.96.39,2.99.96,3.15,2.02.16,1.06-.57,4.95,1.85,3.32,2.42-1.63,4.7-2.67,4.29-3.72-.41-1.06-.96-3.07-3.15-2.83-2.2.24-4.21,1.28-4.46-.24-.24-1.53.18-2.91-1.69-2.5-1.87.41-2.91-.26-2.83-.98.08-.71-.49-1.38-1.14-.24-.65,1.14-1.69,3.07-1.69,3.07Z"/>
        <path class="cls-5" d="M82.28,101.84c.16-.9.26-2.69,1.71-2.28,1.45.41,3.54.59,4.11-1.2.57-1.79.26-3.22,2.03-2.5,1.77.71,3.71.57,3.62-.9-.08-1.47-.16-6.37.98-5.5,1.14.88,2.97,6.07,5.25,5.82,2.28-.24,4.78-.71,4.21.33-.57,1.04-1.55,1.2-1.06,2.34.49,1.14.67,2.02-1.04,2.26-1.71.24-4.23-.79-5.11.98-.88,1.77-2,3.48-3.87,3.48s-2.59.31-3.15,1.36c-.57,1.06-1.55,3.87-1.95,2.26-.41-1.61-1.06-3.4-2.42-2.83-1.36.57-7.12,1.61-6.07.49,1.06-1.12,2.58-3.22,2.75-4.11Z"/>
        <path class="cls-5" d="M30.13,69.34s1.79-.41,2.83-.9c1.04-.49,3.14-1.06,4.44-.24,1.3.81,3.07,2.75,3.81,3.32.73.57,2.34,1.22,2.26,2.91-.08,1.69-2.03,1.22-3.4.49-1.36-.73-2.75-1.38-4.6-.9-1.85.49-4.62.31-6.39-.81-1.77-1.12-2.28-3.07-.9-3.4,1.38-.33,1.95-.47,1.95-.47Z"/>
        <path class="cls-5" d="M13.56,66.52c.95.42,1.69.42,2.82-.82.07-.11.13-.22.15-.34.05-.24,0-.5-.19-.78-.79-1.1-1.69-3.54-3.88-3.39-2.2.15-2.74-1.14-1-1.49,1.74-.35,3.09-.16,3.59-1.25.5-1.09,1.34-1.94-1.7-1.69-3.04.25-6.17-.64-9.61-1.14-.19-.03-.37-.04-.53-.05-.6-.16-1.72.59-1.35.96.74,1.12,1.86,2.6,3.6,3.3.14.09.28.17.41.26,1.46.96,2.64,2.13,3.8,3.3.11.12.23.23.35.35,1.14.61,1.88,2.09,3.35,2.64.13.1.18.15.18.15Z"/>
        <path class="cls-5" d="M20.58,69.17s.31,1.74.85,1.79c.54.05.79-2.24.79-2.24,0,0-.44-1.45,1.45-1.6,1.89-.15,3.24-1.09,3.14-1.59-.1-.5-1.8-.1-3.74-.6-1.94-.5-2.99-.5-2.94.45.05.95.45,3.79.45,3.79Z"/>
        <path class="cls-1" d="M27.62,126.43c-.26,0-.45-.05-.56-.19-.22-.25-.11-.64.09-1.35.13-.48.31-1.15.46-2,.39-2.28.23-2.4-.23-2.75-.11-.08-.24-.18-.37-.3-.64-.59-2.09-.72-3.63-.86l-.62-.06c-.59-.06-.97-.26-1.14-.61-.22-.46-.06-1.11.49-1.98.44-.69,2.25-2.44,3.85-3.45,1.09-.69,2.65-.71,4.15-.73.82-.01,1.66-.03,2.41-.15,1.9-.31,2.59.89,3.02,1.69.08.14.15.27.22.38.65.98-2.42,3.38-3.27,3.97-.32.22-.47.47-.44.77.07.81,1.34,1.79,2.55,2.35.43.19.65.46.67.8.05.93-1.58,1.95-1.77,2.07-.15.09-3.62,2.13-5.34,2.36-.2.03-.38.04-.54.04ZM22.79,118.55l.61.06c1.61.14,3.12.28,3.85.96.13.12.24.2.34.28.61.46.78.72.37,3.11-.15.87-.33,1.55-.47,2.04-.13.49-.25.91-.17,1.01.06.07.32.08.77.02,1.65-.22,5.16-2.29,5.19-2.31.63-.38,1.62-1.19,1.59-1.72-.01-.19-.16-.35-.45-.48-1.32-.6-2.68-1.65-2.77-2.65-.03-.3.06-.74.6-1.11,1.83-1.25,3.45-3.03,3.17-3.45-.08-.11-.15-.25-.24-.4-.4-.75-.97-1.77-2.63-1.5-.78.12-1.64.14-2.47.15-1.45.02-2.96.05-3.96.68-1.64,1.03-3.37,2.77-3.73,3.33-.59.93-.58,1.39-.47,1.62s.39.36.84.41h0Z"/>
        <path class="cls-5" d="M22.77,118.74c1.76.17,3.58.25,4.36.97.78.72,1.15.34.66,3.22-.49,2.88-1.36,3.5.34,3.28,1.71-.23,5.27-2.33,5.27-2.33,0,0,2.86-1.74,1.12-2.54-1.74-.8-3.6-2.44-2.14-3.45,1.46-1,3.67-3.03,3.22-3.71-.46-.68-.91-2.33-3.05-1.99-2.14.34-4.87-.17-6.5.85-1.63,1.02-3.39,2.76-3.79,3.39-.4.63-1.25,2.14.51,2.31Z"/>
        <g>
          <path class="cls-5" d="M34.62,128.45c.06-.28.4-1.57,2.99-2.54,2.59-.97,3.77-1.53,5.53-1.82,1.76-.28,3.05-.83,3.62-1.8.57-.97,1.88-2.1,1.76-.63-.11,1.48-.7,3.54-2.16,5.07-1.46,1.53-5.07,3.92-5.64,4.98-.57,1.06-3.94,3.33-5.3,3.33s-2.16-1.17-1.59-2.94c.57-1.76.74-3.39.8-3.67Z"/>
          <path class="cls-1" d="M35.42,135.25c-.67,0-1.23-.27-1.58-.74-.43-.6-.5-1.46-.19-2.43.46-1.42.66-2.78.74-3.36.02-.14.04-.24.05-.3.1-.49.6-1.74,3.11-2.68.59-.22,1.1-.42,1.57-.6,1.57-.61,2.62-1.01,4-1.23,1.84-.3,2.99-.86,3.49-1.71.39-.67,1.21-1.58,1.76-1.41.27.08.39.39.35.89-.06.73-.38,3.27-2.21,5.19-.65.69-1.72,1.54-2.76,2.36-1.25.99-2.55,2.02-2.85,2.58-.62,1.15-4.04,3.43-5.47,3.43ZM48.21,121.15c-.25,0-.89.56-1.29,1.25-.56.96-1.79,1.57-3.75,1.89-1.34.22-2.31.59-3.92,1.21-.46.18-.98.38-1.57.6-2.4.89-2.81,2.06-2.87,2.4-.01.05-.02.14-.04.27-.08.59-.29,1.97-.76,3.42-.28.86-.23,1.6.14,2.1.28.38.73.59,1.28.59,1.27,0,4.58-2.2,5.14-3.23.34-.63,1.6-1.63,2.95-2.7,1.03-.81,2.09-1.66,2.72-2.32,1.74-1.83,2.06-4.26,2.11-4.96.03-.37-.05-.49-.09-.5-.01,0-.02,0-.04,0Z"/>
        </g>
        <path class="cls-6" d="M32.31,113.21c2.59-1.42,3.79-2.03,3.79-2.03,0,0,1.76-1.08,3.16-.8,1.4.28,1.55.6.55,1.86-1,1.25-2.25,2.03-2.25,2.03,0,0-1.63.57-4.39.63-2.76.06-3.45-.26-.85-1.68Z"/>
        <path class="cls-5" d="M94.83,82.68s-.6,3.14,4.64,3.29c5.24.15,7.33,1.2,9.87,0,2.54-1.2,2.84-4.04,5.39-4.34,2.54-.3,5.68,2.09,6.88-1.94,1.2-4.04.9-8.23,3.29-8.53,2.39-.3,4.79,2.54,5.24-1.2.45-3.74-1.5-6.28,2.84-8.68,4.34-2.39,9.57-4.49,10.17-7.78.6-3.29-2.24-9.57,1.65-9.72,3.89-.15,5.54.75,6.13-2.69.6-3.44,2.24-.15,4.04-1.35,1.8-1.2,2.99-3.74,2.99-3.74,0,0,.15-2.39,2.09-1.94,1.94.45,2.84.15,4.64-1.65,1.8-1.8,5.5-7.41,5.5-7.41,0,0,.83-3.36-1.87-1.87-2.69,1.5-7.52,7.03-9.32,8.08-1.8,1.05-6.58,3.59-10.47,5.24-3.89,1.65-7.78,3.14-7.78,3.14l-17.35,7.33-9.57,9.57-8.23,8.98-5.09,10.17-5.68,7.03Z"/>
        <path class="cls-6" d="M22.57,57.4s-3.59.3-4.79.15c-1.2-.15-2.39,1.2-.15,2.39,2.24,1.2,4.94.9,4.94.9,0,0,2.99-.6,4.64.9,1.65,1.5,3.59,1.35,5.24.15,1.65-1.2,3.89-3.59-1.5-3.74-5.39-.15-8.38-.75-8.38-.75Z"/>
        <circle class="cls-14" cx="27.73" cy="61.81" r="2.17"/>
        <path class="cls-6" d="M55.03,64.88s1.8-.75,2.54,1.5c.75,2.24,2.69,1.94,3.59,1.35.9-.6,2.09-1.94,2.84,0,.75,1.94.9,2.24,3.14,1.8,2.24-.45,3.59-.3,3.59,1.8s1.65,5.09,3.14,5.09,4.19-.3,5.24,1.35c1.05,1.65,0,3.89,1.8,3.44,1.8-.45,2.39.6,2.69,2.54.3,1.94,6.43,5.98,10.17,4.94,3.74-1.05,6.13-.3,1.35-2.24-4.79-1.94-10.32-8.83-11.52-11.07-1.2-2.24-5.83-8.08-12.27-10.92-6.43-2.84-25.13-5.83-25.13-5.83,0,0-6.88-.6-8.53-.15-1.65.45-2.54,3.74-1.2,5.09,1.35,1.35,3.44,2.39,7.93,2.09,4.49-.3,10.62-.75,10.62-.75Z"/>
        <circle class="cls-14" cx="88.32" cy="85.9" r="2.32" transform="translate(-.26 .27) rotate(-.18)"/>
        <path class="cls-5" d="M68.65,69.89c0-1.53,1.24-2.77,2.77-2.77s2.77,1.24,2.77,2.77-1.24,2.77-2.77,2.77-2.77-1.24-2.77-2.77Z"/>
        <path class="cls-5" d="M60.12,66.6c0-1.36,1.11-2.47,2.47-2.47s2.47,1.11,2.47,2.47-1.11,2.47-2.47,2.47-2.47-1.11-2.47-2.47Z"/>
        <path class="cls-5" d="M37.53,63.38c0-1.4,1.14-2.54,2.54-2.54s2.54,1.14,2.54,2.54-1.14,2.54-2.54,2.54-2.54-1.14-2.54-2.54Z"/>
        <path class="cls-6" d="M106.35,81.78c.6-.9,1.2-9.42,5.24-8.68,4.04.75,5.68.3,4.94-1.8-.75-2.09-.6-4.04-3.14-6.28-2.54-2.24-.45-2.54,2.39-2.54s8.68.75,9.13-1.2c.45-1.94,2.39-5.98,1.94-7.78-.45-1.8.6-6.43,3.89-5.98,3.29.45,6.13.9,6.73-.6.6-1.5,1.5-3.44,3.29-3.44s2.69-.45,2.69-1.5,0-3.59,2.09-3.44c2.09.15,1.8-2.09-.6-1.94-2.39.15-9.28,1.5-12.42,2.84-3.14,1.35-13.61,7.03-15.26,9.42-1.65,2.39-8.53,8.08-9.57,10.02-1.05,1.94-2.39,4.64-3.29,7.48-.9,2.84-4.34,8.08-6.13,10.02-1.8,1.94-2.54,3.44-1.94,5.83.6,2.39,1.05.75,1.94-.9.9-1.65,1.65-1.8,2.39-.15.75,1.65,1.65,2.24,2.24.45.6-1.8,1.94-1.5,1.94-.75s.9,1.8,1.5.9Z"/>
        <circle class="cls-14" cx="108.22" cy="73.18" r="2.17" transform="translate(34.68 181.16) rotate(-89.81)"/>
        <path class="cls-5" d="M109.19,70.42c0-1.32,1.07-2.39,2.39-2.39s2.39,1.07,2.39,2.39-1.07,2.39-2.39,2.39-2.39-1.07-2.39-2.39Z"/>
        <path class="cls-5" d="M119.96,58.75c0-1.16.94-2.09,2.09-2.09s2.09.94,2.09,2.09-.94,2.09-2.09,2.09-2.09-.94-2.09-2.09Z"/>
        <path class="cls-5" d="M124,53.21c0-1.16.94-2.09,2.09-2.09s2.09.94,2.09,2.09-.94,2.09-2.09,2.09-2.09-.94-2.09-2.09Z"/>
        <path class="cls-5" d="M135.14,44.46c0-1.32,1.07-2.39,2.39-2.39s2.39,1.07,2.39,2.39-1.07,2.39-2.39,2.39-2.39-1.07-2.39-2.39Z"/>
      </g>
    </g>
  </g>
</svg>