<?xml version="1.0" encoding="UTF-8"?>
<svg id="Capa_2" data-name="Capa 2" xmlns="http://www.w3.org/2000/svg" viewBox="0 0 168.66 211.52">
  <defs>
    <style>
      .cls-1 {
        fill: #c8a977;
      }

      .cls-2 {
        fill: #fff;
      }

      .cls-3 {
        fill: #ffcd00;
      }

      .cls-4 {
        fill: #c5113c;
      }

      .cls-5 {
        fill: #00205c;
      }
    </style>
  </defs>
  <g id="Capa_2-2" data-name="Capa 2">
    <g>
      <g>
        <path class="cls-1" d="M83.72,210.45h-.08c-17.83-2.74-33.27-8.64-45.89-17.56-10.11-7.14-18.44-16.21-24.75-26.97C2.26,147.63,1.11,131.05,1.07,130.36v-.07s0-113.23,0-113.23h17.95V1.06h130.62v15.99h17.95v113.3c-.05.7-1.2,17.27-11.94,35.58-6.31,10.75-14.64,19.83-24.75,26.97-12.62,8.91-28.06,14.81-45.89,17.54h-.08s-1.21.01-1.21.01Z"/>
        <path class="cls-2" d="M148.57,2.13v15.99h17.95v112.17s-4.22,67.24-81.68,79.1h-1.04C6.35,197.53,2.13,130.29,2.13,130.29V18.12h17.95V2.13h128.49M150.7,0H17.95v15.99H0v114.43c.05.71,1.22,17.53,12.09,36.05,6.39,10.88,14.82,20.07,25.05,27.3,12.76,9.01,28.35,14.97,46.34,17.73l.16.02h1.37l.16-.02c18-2.75,33.59-8.72,46.34-17.73,10.24-7.23,18.67-16.41,25.05-27.3,10.87-18.52,12.04-35.34,12.08-36.05v-.07s0-.07,0-.07V15.99h-17.95V0h0Z"/>
      </g>
      <polygon class="cls-3" points="85.14 6.31 85.14 18.15 24.26 18.15 24.26 6.31 85.14 6.31 85.14 6.31"/>
      <polygon class="cls-5" points="115.17 6.31 115.17 18.15 89.32 18.15 89.32 6.31 115.17 6.31 115.17 6.31"/>
      <polygon class="cls-4" points="144.4 6.31 144.4 18.15 119.36 18.15 119.36 6.31 144.4 6.31 144.4 6.31"/>
      <path class="cls-5" d="M84.13,205.21c-16.8-2.61-31.31-8.15-43.15-16.46-9.49-6.66-17.31-15.12-23.26-25.16-9.78-16.5-11.28-32-11.4-33.46V22.3h156.03v107.83c-.12,1.42-1.61,16.94-11.4,33.46-5.95,10.04-13.77,18.5-23.26,25.16-11.84,8.31-26.36,13.85-43.15,16.46h-.4Z"/>
      <polygon class="cls-1" points="46.13 77.14 24 66.07 24 78.19 46.13 89.25 46.13 77.14 46.13 77.14"/>
      <polygon class="cls-1" points="50.87 151.96 61.94 151.96 61.94 93.94 74.06 99.79 74.06 157.75 96.19 157.75 96.19 147.21 84.6 147.21 84.6 105.06 87.76 106.64 100.93 100.32 100.93 88.2 87.76 94.52 84.6 92.94 84.6 65.54 96.19 65.54 96.19 53.95 74.58 53.95 74.58 88.2 61.94 81.78 61.94 54.48 24 36.04 24 48.16 50.87 61.33 50.87 151.96 50.87 151.96"/>
      <polygon class="cls-1" points="106.46 54.74 106.46 152.22 117.53 152.22 117.53 61.59 144.4 48.42 144.4 36.3 106.46 54.74 106.46 54.74"/>
      <polygon class="cls-1" points="122.8 89.52 144.4 78.45 144.4 66.33 122.8 76.87 122.8 89.52 122.8 89.52"/>
      <path class="cls-1" d="M133.34,122.45c0,27.21-22.06,49.27-49.27,49.27s-49.27-22.06-49.27-49.27v-26l-10.8-5.27v32.18c0,30.58,23,55.78,52.64,59.27l-.29.15c2.82.53,7.72,4.74,7.72,4.74,0,0,4.9-4.22,7.72-4.74l-.29-.15c29.65-3.48,52.64-28.69,52.64-59.27v-31.83l-10.8,5.58v25.33h0Z"/>
    </g>
  </g>
</svg>