<?xml version="1.0" encoding="UTF-8"?>
<svg id="Capa_2" data-name="Capa 2" xmlns="http://www.w3.org/2000/svg" viewBox="0 0 175.6 231.39">
  <defs>
    <style>
      .cls-1 {
        fill: #ffd101;
      }

      .cls-2 {
        fill: #fff;
      }

      .cls-3 {
        fill: #1e175d;
      }

      .cls-4 {
        fill-rule: evenodd;
      }

      .cls-4, .cls-5 {
        fill: #009c53;
      }

      .cls-6 {
        fill: #0059ff;
      }
    </style>
  </defs>
  <g id="Capa_2-2" data-name="Capa 2">
    <g>
      <path class="cls-2" d="M167.6,71.52c-17.16-1.25-26.6-9.18-36.59-17.58l-.93-.78c-5.67-4.75-10.9-8.95-17.38-12.2-7.53-3.77-15.67-5.61-24.89-5.61h0c-5.1,0-9.79.56-14.33,1.7-12.45,3.13-20.79,10.13-28.86,16.91-10,8.39-19.44,16.32-36.59,17.57l-8.01.59,6.2,5.1c4.05,3.33,7.4,7.59,9.7,12.32,2.39,4.95,3.6,10.26,3.6,15.79v54.3c0,9.89,2.6,19.44,7.52,27.6,7.74,12.88,17.58,16.85,28,21.06,9.78,3.95,19.89,8.04,30.31,20.09l2.34,3.02,2.56-2.97c3.97-4.6,8.18-8.36,12.88-11.5,6-4.01,11.89-6.39,17.58-8.69l.34-.14c9.73-3.94,19.8-8.01,27.54-20.88,4.92-8.18,7.52-17.73,7.52-27.6v-48.79s0-1.33,0-1.33h0v-4.19c0-10.91,4.85-21.16,13.3-28.11l6.2-5.1-8-.58Z"/>
      <polygon class="cls-4" points="95.8 25 92.8 15.59 100.44 9.81 100.44 9.41 90.89 9.41 87.89 0 87.56 0 84.63 9.41 75.08 9.41 75.08 9.81 82.64 15.59 79.72 25 80.26 25 87.72 19.42 95.25 25 95.8 25 95.8 25"/>
      <polygon class="cls-4" points="59.38 34.96 56.38 25.55 64.02 19.77 64.02 19.37 54.47 19.37 51.47 9.96 51.14 9.96 48.21 19.37 38.66 19.37 38.66 19.78 46.22 25.55 43.3 34.96 43.84 34.96 51.3 29.38 58.83 34.96 59.38 34.96 59.38 34.96"/>
      <polygon class="cls-4" points="116.22 34.96 119.21 25.55 111.57 19.77 111.57 19.37 121.13 19.37 124.12 9.96 124.46 9.96 127.39 19.37 136.94 19.37 136.94 19.78 129.37 25.55 132.3 34.96 131.75 34.96 124.29 29.38 116.77 34.96 116.22 34.96 116.22 34.96"/>
      <polygon class="cls-4" points="28.97 57.26 25.97 47.86 33.61 42.07 33.61 41.67 24.06 41.67 21.06 32.27 20.73 32.27 17.8 41.67 8.25 41.67 8.25 42.08 15.82 47.86 12.89 57.26 13.43 57.26 20.89 51.68 28.42 57.26 28.97 57.26 28.97 57.26"/>
      <polygon class="cls-4" points="162.63 57.26 159.63 47.86 167.27 42.07 167.27 41.67 157.72 41.67 154.72 32.27 154.39 32.27 151.46 41.67 141.91 41.67 141.91 42.08 149.47 47.86 146.55 57.26 147.09 57.26 154.55 51.68 162.08 57.26 162.63 57.26 162.63 57.26"/>
      <path class="cls-6" d="M87.8,212.57c-10.01-8.95-19.79-12.91-27.97-16.21-9.45-3.82-16.27-6.58-21.81-15.78-3.72-6.17-5.68-13.43-5.68-20.98v-54.3c0-7.48-1.64-14.67-4.88-21.38-.5-1.04-1.04-2.06-1.62-3.06,11.48-4.06,19.59-10.87,27-17.1,10.37-8.71,18.56-15.59,34.95-15.59s24.93,7.19,34.02,14.81l.92.77c7.41,6.23,15.52,13.04,27,17.1-4.21,7.34-6.48,15.73-6.48,24.44v54.3c0,7.54-1.97,14.8-5.68,20.98-5.27,8.76-11.25,11.5-21.35,15.59l-.48.19c-8.17,3.3-17.95,7.26-27.95,16.2h0Z"/>
      <path class="cls-2" d="M128.28,97.82v53.09h-.47l-10.63-10.67c-1.49-1.49-3.51-2.33-5.62-2.33h-10.18v10.19c0,2.1.84,4.12,2.32,5.61l10.67,10.66v.47h-53.08v-.47l10.67-10.66c1.48-1.49,2.32-3.51,2.32-5.61v-10.18h-10.23c-2.11,0-4.13.84-5.62,2.33l-10.63,10.67h-.47v-53.1h.47l10.63,10.67c1.49,1.49,3.51,2.33,5.62,2.33h10.23v-10.18c0-2.1-.84-4.12-2.32-5.61l-10.67-10.66v-.47h53.08v.47l-10.67,10.66c-1.48,1.49-2.32,3.51-2.32,5.61v10.19h10.18c2.11,0,4.13-.84,5.62-2.33l10.63-10.67h.47Z"/>
      <path class="cls-3" d="M67.21,125.63c0,.84.06,1.53.17,2.07.11.54.32.96.61,1.27.3.31.71.52,1.23.64.52.12,1.19.18,2.01.18h2.44c.4,0,.87,0,1.4-.01.53,0,1.17-.02,1.91-.04l-.84,4.58c-.63.02-1.17.03-1.61.04-.44,0-.83.01-1.17.01h-2.49c-1.7,0-3.13-.15-4.31-.45-1.17-.3-2.13-.79-2.86-1.47-.74-.68-1.27-1.58-1.61-2.7-.33-1.12-.5-2.51-.5-4.17v-2.49c0-1.58.17-2.93.5-4.05.34-1.12.88-2.02,1.62-2.71.75-.69,1.7-1.19,2.87-1.51,1.16-.32,2.59-.47,4.26-.47h2.52c.42,0,.91,0,1.47.01.56,0,1.22.02,1.98.04l-.84,4.58c-.89-.04-1.65-.06-2.26-.06h-2.51c-.82,0-1.49.06-2.01.18-.52.12-.93.34-1.23.64-.3.31-.5.73-.6,1.27-.1.54-.15,1.23-.15,2.07v2.52h0Z"/>
      <path class="cls-3" d="M84.75,130.24h4.27c.86,0,1.46-.14,1.82-.41.35-.27.53-.78.53-1.52v-.36c0-.78-.18-1.31-.54-1.58-.36-.27-.99-.41-1.89-.41h-4.18v4.28h0ZM90.8,120.15c0-.6-.15-1.02-.45-1.27-.3-.25-.81-.38-1.54-.38h-4.07v3.66h3.99c.76,0,1.3-.14,1.61-.41.31-.27.46-.71.46-1.33v-.28h0ZM79.74,114.42h10.17c2.12,0,3.67.41,4.63,1.24.96.83,1.44,2.06,1.44,3.7v.36c0,1.94-.77,3.28-2.32,4.03.93.35,1.65.9,2.15,1.63.5.74.75,1.7.75,2.89v.5c0,1.96-.59,3.37-1.76,4.24-1.17.87-2.93,1.3-5.28,1.3h-9.78v-19.9h0Z"/>
      <polygon class="cls-3" points="114.01 114.42 113.2 118.78 104.23 118.78 104.23 122.64 112.72 122.64 111.94 126.86 104.23 126.86 104.23 134.32 98.98 134.32 98.98 114.42 114.01 114.42 114.01 114.42"/>
      <polygon class="cls-5" points="47.33 110.82 47.33 124.37 34.81 124.37 34.81 110.82 47.33 110.82 47.33 110.82"/>
      <polygon class="cls-5" points="128.28 137.93 128.28 124.37 140.8 124.37 140.8 137.93 128.28 137.93 128.28 137.93"/>
      <path class="cls-1" d="M140.8,159.61c0,7.1-1.84,13.92-5.33,19.71-5.11,8.49-11.28,10.98-20.62,14.76-4.08,1.65-8.66,3.5-13.5,6.09v-35.31h-13.55v44.45c-9.76-8.24-19.3-12.1-27.03-15.23-9.35-3.78-15.52-6.27-20.63-14.76-3.49-5.79-5.33-12.61-5.33-19.71v-21.68h12.52v-13.56h-12.52v-19.07c0-8.05-1.88-15.99-5.45-23.13,10.51-4.28,18.22-10.75,25.09-16.52,6.81-5.72,12.39-10.38,19.8-12.92v31.16h13.55v-33.25h0c15.49,0,22.99,6.3,33.36,15.01,6.87,5.77,14.58,12.25,25.09,16.52-3.58,7.14-5.45,15.08-5.45,23.13v5.51h-12.52v13.56h12.52v35.23h0ZM152.89,110.82h-9.64v-5.51c0-8.7,2.28-17.09,6.48-24.44-11.48-4.06-19.58-10.87-26.99-17.09-10.37-8.71-18.56-15.59-34.95-15.59h0v-9.64c-5.08,0-9.53.59-13.55,1.6v10c-8.29,2.64-14.34,7.71-21.39,13.63-7.41,6.22-15.52,13.03-27,17.09,4.21,7.35,6.48,15.74,6.48,24.44v19.07h-9.63v13.56h9.63v21.68c0,7.55,1.97,14.8,5.68,20.98,5.54,9.2,12.36,11.96,21.81,15.77,8.18,3.31,17.97,7.26,27.97,16.21v13.75s0,0,0,0c4.56-5.29,9.1-9.11,13.55-12.08v-11.27c5.13-2.84,10.01-4.82,14.42-6.61,9.45-3.81,16.28-6.57,21.81-15.77,3.72-6.18,5.68-13.43,5.68-20.98v-35.23h9.64v-13.56h0Z"/>
      <path class="cls-5" d="M101.35,52.73c-3.87-1.33-8.23-2.08-13.55-2.08h0v33.25h13.55v-31.16h0Z"/>
      <path class="cls-5" d="M74.25,200.16c4.36,2.33,8.93,5.24,13.55,9.14v-44.45h-13.55v35.31h0Z"/>
      <path class="cls-3" d="M87.8,48.19c16.39,0,24.58,6.88,34.95,15.59,7.41,6.22,15.51,13.03,26.99,17.09-4.2,7.35-6.48,15.74-6.48,24.44v5.51h9.64v-5.51c0-12.32,5.64-23.33,14.47-30.59-18.76-1.37-28.99-10.41-39.35-19.11-10.38-8.7-20.89-17.06-40.21-17.06h0v9.64h0Z"/>
      <path class="cls-3" d="M32.34,105.3c0-8.7-2.27-17.09-6.48-24.44,11.48-4.06,19.59-10.87,27-17.09,7.05-5.92,13.1-10.99,21.39-13.63v-10c-26.56,6.67-33.44,32.19-66,34.57,4.42,3.63,8.03,8.2,10.55,13.4,2.51,5.2,3.92,11.03,3.92,17.19v19.07h9.63v-19.07h0Z"/>
      <path class="cls-3" d="M59.83,196.35c-9.45-3.81-16.27-6.57-21.81-15.77-3.71-6.18-5.68-13.43-5.68-20.98v-21.68h-9.63v21.68c0,9.12,2.35,18.13,7.06,25.95,14.16,23.55,35.79,15.02,58.01,40.73v-13.74c-10-8.94-19.78-12.89-27.95-16.19h0Z"/>
      <path class="cls-3" d="M143.25,159.61c0,7.55-1.96,14.8-5.68,20.98-5.53,9.2-12.36,11.96-21.81,15.77-4.41,1.79-9.3,3.77-14.44,6.62v11.28c6.4-4.27,12.63-6.76,18.51-9.14,9.96-4.03,18.91-7.78,26-19.56,4.7-7.82,7.06-16.83,7.06-25.95v-35.24h-9.64v35.24h0Z"/>
    </g>
  </g>
</svg>