<?xml version="1.0" encoding="UTF-8"?>
<svg id="Capa_2" data-name="Capa 2" xmlns="http://www.w3.org/2000/svg" viewBox="0 0 183.59 215.12">
  <defs>
    <style>
      .cls-1 {
        fill: #fdc500;
      }

      .cls-2 {
        fill: #ed0505;
      }

      .cls-3 {
        fill: #fff;
      }

      .cls-4 {
        fill: #bb9952;
      }

      .cls-5 {
        fill: #002c6a;
      }

      .cls-6 {
        fill: #510e26;
      }
    </style>
  </defs>
  <g id="Capa_2-2" data-name="Capa 2">
    <g>
      <g>
        <path class="cls-6" d="M179.3,94.76c0,13.25-2.14,26.27-6.36,38.71-4.08,12.02-10.03,23.29-17.68,33.49-7.56,10.08-16.61,18.88-26.9,26.15-10.43,7.38-21.88,13.01-34.04,16.75l-1.27.39-1.26.39-1.26-.39-1.27-.39c-12.16-3.74-23.62-9.37-34.05-16.75-10.28-7.27-19.33-16.07-26.89-26.15-7.65-10.2-13.6-21.46-17.68-33.49-4.22-12.44-6.36-25.46-6.36-38.71,0-1.07.97-70.91.97-70.91l2.49-1.12,2.52-1.12c12.57-5.62,25.77-9.94,39.22-12.84,13.82-2.98,28.05-4.49,42.31-4.49s28.49,1.51,42.31,4.49c13.46,2.9,26.65,7.22,39.22,12.84l2.52,1.13,2.49,1.12s.97,69.94.97,70.91Z"/>
        <path class="cls-3" d="M182.62,23.8l-.04-2.73-2.5-1.12-2.49-1.12-2.52-1.13c-12.84-5.74-26.32-10.16-40.07-13.12C120.89,1.54,106.35,0,91.79,0s-29.1,1.54-43.21,4.58c-13.74,2.96-27.22,7.38-40.07,13.12l-2.51,1.12-2.49,1.12-2.5,1.11-.04,2.74c-.1,7.15-.97,69.91-.97,70.97,0,13.72,2.22,27.2,6.59,40.08,4.23,12.46,10.39,24.12,18.31,34.68,7.83,10.43,17.2,19.54,27.85,27.08,10.8,7.64,22.66,13.47,35.26,17.35l1.27.39,1.26.39,1.26.39,1.26-.39,1.26-.39,1.27-.39c12.6-3.87,24.46-9.71,35.26-17.35,10.65-7.53,20.02-16.64,27.85-27.08,7.92-10.56,14.08-22.23,18.31-34.68,4.37-12.88,6.59-26.37,6.59-40.08,0-.97-.87-63.81-.97-70.97ZM93.05,210.25l-1.26.39-1.26-.39-1.27-.39c-12.16-3.74-23.62-9.37-34.05-16.75-10.28-7.27-19.33-16.07-26.89-26.15-7.65-10.2-13.6-21.46-17.68-33.49-4.22-12.44-6.36-25.46-6.36-38.71,0-1.07.97-70.91.97-70.91l2.49-1.12,2.52-1.12c12.57-5.62,25.77-9.94,39.22-12.84,13.82-2.98,28.05-4.49,42.31-4.49s28.49,1.51,42.31,4.49c13.46,2.9,26.65,7.22,39.22,12.84l2.52,1.13,2.49,1.12s.97,69.94.97,70.91c0,13.25-2.14,26.27-6.36,38.71-4.08,12.02-10.03,23.29-17.68,33.49-7.56,10.08-16.61,18.88-26.9,26.15-10.43,7.38-21.88,13.01-34.04,16.75l-1.27.39Z"/>
      </g>
      <g>
        <g>
          <path class="cls-4" d="M91.69,12.64c27.89,0,54.39,5.95,78.3,16.64,0,0,.89,64.52.89,65.54,0,50.48-33.34,93.17-79.2,107.26-45.86-14.09-79.2-56.78-79.2-107.26,0-1.02.9-65.54.9-65.54,23.91-10.69,50.41-16.64,78.3-16.64h0ZM91.69,8.31c-14,0-27.98,1.48-41.55,4.41-13.21,2.85-26.17,7.09-38.51,12.61l-2.52,1.13s-.94,67.34-.94,68.36c0,12.82,2.07,25.43,6.16,37.47,3.95,11.64,9.71,22.54,17.11,32.41,7.32,9.76,16.08,18.27,26.04,25.32,10.09,7.14,21.18,12.59,32.95,16.21l1.27.39,1.27-.39c11.77-3.62,22.86-9.07,32.95-16.21,9.96-7.04,18.72-15.56,26.04-25.32,7.41-9.87,13.16-20.77,17.11-32.41,4.08-12.04,6.16-24.64,6.16-37.47,0-.9-.89-68.34-.89-68.34l-2.56-1.15c-12.34-5.52-25.3-9.76-38.52-12.61-13.57-2.93-27.55-4.41-41.55-4.41h0Z"/>
          <path class="cls-4" d="M55.79,118.21c2.46,7.24,6.05,14.04,10.67,20.2,4.58,6.11,10.07,11.44,16.3,15.85,2.85,2.01,5.84,3.82,8.93,5.4,3.1-1.58,6.09-3.39,8.93-5.4,6.23-4.41,11.72-9.74,16.3-15.85,4.62-6.16,8.21-12.95,10.67-20.2,2.53-7.45,3.82-15.27,3.83-23.24-.01-1.28-.14-10.34-.34-25.25-5.15-1.5-10.43-2.72-15.81-3.63.23,16.88.37,27.24.39,28.95-.02,6.23-1.03,12.32-3,18.11-1.92,5.66-4.73,10.98-8.35,15.8-3.56,4.74-7.8,8.88-12.63,12.32-4.82-3.44-9.07-7.58-12.63-12.32-3.62-4.82-6.43-10.14-8.35-15.8-1.97-5.79-2.97-11.89-3-18.12.02-1.76.16-12.11.39-28.94-5.38.91-10.66,2.12-15.81,3.63-.2,14.86-.33,23.93-.34,25.25.02,7.98,1.3,15.8,3.83,23.25Z"/>
          <path class="cls-4" d="M75.92,163.94c-7.24-5.12-13.61-11.32-18.94-18.41-5.37-7.16-9.55-15.07-12.41-23.5-2.95-8.69-4.45-17.81-4.46-27.11,0-.39.02-1.77.05-3.93.98-.45,1.97-.88,2.97-1.3,1.03-.43,2.05-.85,3.09-1.26.05-3.94.13-9.6.23-16.86-2.04.69-4.06,1.43-6.05,2.21.1-7.63.23-16.56.35-25.48,5.31-1.73,10.7-3.18,16.13-4.35,3.82-.82,7.69-1.51,11.58-2.06l.22-15.93c-5.08.65-10.13,1.51-15.12,2.58-9.68,2.09-19.2,4.99-28.41,8.65-.19,13.93-.78,57.06-.79,57.67,0,1.56.04,3.11.11,4.66.43,9.43,2.17,18.69,5.19,27.58,3.4,10.01,8.35,19.4,14.73,27.9,6.31,8.41,13.86,15.75,22.44,21.82,6.53,4.62,13.54,8.41,20.92,11.34v-17.21c-4.11-2-8.06-4.34-11.82-7Z"/>
          <path class="cls-4" d="M158.25,37.19c-9.21-3.66-18.74-6.56-28.41-8.65-4.98-1.07-10.03-1.93-15.11-2.58l.22,15.93c3.89.55,7.75,1.23,11.57,2.06,5.43,1.17,10.82,2.63,16.13,4.35.12,8.92.25,17.85.35,25.48-2-.78-4.01-1.52-6.05-2.21.1,7.26.18,12.91.23,16.86,1.03.41,2.06.82,3.09,1.26,1,.42,1.98.86,2.97,1.3.03,2.17.05,3.56.05,3.94-.01,9.29-1.51,18.41-4.46,27.1-2.86,8.43-7.04,16.34-12.41,23.5-5.32,7.1-11.7,13.29-18.94,18.41-3.76,2.66-7.71,4.99-11.82,7v17.21c7.38-2.92,14.39-6.72,20.92-11.34,8.58-6.07,16.13-13.41,22.44-21.82,6.38-8.5,11.33-17.88,14.73-27.9,3.02-8.89,4.75-18.15,5.19-27.58.07-1.55.11-3.1.11-4.66,0-.6-.63-46.61-.78-57.66Z"/>
        </g>
        <g>
          <path class="cls-5" d="M76.14,66.74c-.08,5.46-.14,10.22-.2,14.2,5.16-.65,10.41-.99,15.75-.99s10.59.34,15.75.99c-.05-3.98-.12-8.74-.19-14.2l-.35-25.76c-5.01-.46-10.07-.7-15.2-.7s-10.19.24-15.19.7l-.22,16.11-.13,9.65Z"/>
          <path class="cls-2" d="M75.95,80.95c-.11,7.97-.17,12.85-.19,14.11.02,5.34.89,10.56,2.57,15.51,1.65,4.86,4.06,9.42,7.17,13.56,1.85,2.47,3.93,4.76,6.2,6.83,2.27-2.07,4.34-4.36,6.2-6.83,3.11-4.14,5.52-8.7,7.17-13.56,1.68-4.95,2.54-10.16,2.57-15.5-.01-1.23-.08-6.12-.19-14.12-5.16-.65-10.41-.99-15.75-.99s-10.59.34-15.75.99Z"/>
          <g>
            <polygon class="cls-3" points="86.09 48.52 84.83 50.75 82.48 51.37 84.06 53.36 83.89 55.96 86.12 54.97 88.35 55.96 88.16 53.36 89.73 51.37 87.37 50.75 86.09 48.52"/>
            <polygon class="cls-3" points="74.8 49.33 73.53 51.56 71.19 52.18 72.76 54.17 72.59 56.77 74.82 55.78 77.05 56.77 76.87 54.17 78.43 52.18 76.07 51.56 74.8 49.33"/>
            <polygon class="cls-3" points="63.5 51.01 62.23 53.24 59.89 53.86 61.46 55.86 61.3 58.46 63.52 57.47 65.76 58.46 65.57 55.86 67.13 53.86 64.78 53.24 63.5 51.01"/>
            <polygon class="cls-3" points="52.2 53.51 50.94 55.74 48.59 56.36 50.16 58.36 50 60.95 52.22 59.97 54.46 60.95 54.27 58.36 55.83 56.36 53.48 55.74 52.2 53.51"/>
            <polygon class="cls-3" points="97.42 48.52 98.68 50.75 101.02 51.37 99.45 53.36 99.62 55.96 97.39 54.97 95.16 55.96 95.34 53.36 93.78 51.37 96.14 50.75 97.42 48.52"/>
            <polygon class="cls-3" points="108.71 49.33 109.98 51.56 112.32 52.18 110.75 54.17 110.92 56.77 108.69 55.78 106.45 56.77 106.64 54.17 105.08 52.18 107.43 51.56 108.71 49.33"/>
            <polygon class="cls-3" points="120.01 51.01 121.27 53.24 123.62 53.86 122.05 55.86 122.21 58.46 119.99 57.47 117.75 58.46 117.94 55.86 116.38 53.86 118.73 53.24 120.01 51.01"/>
            <polygon class="cls-3" points="131.31 53.51 132.57 55.74 134.92 56.36 133.34 58.36 133.51 60.95 131.29 59.97 129.05 60.95 129.24 58.36 127.68 56.36 130.03 55.74 131.31 53.51"/>
          </g>
          <path class="cls-1" d="M91.69,40.29c5.12,0,10.19.24,15.2.7l-.44-32.12c-4.91-.37-9.83-.55-14.76-.55s-9.85.19-14.75.55l-.44,32.12c5-.46,10.07-.7,15.19-.7Z"/>
        </g>
      </g>
    </g>
  </g>
</svg>