<?xml version="1.0" encoding="UTF-8"?>
<svg id="Capa_2" data-name="Capa 2" xmlns="http://www.w3.org/2000/svg" viewBox="0 0 210.99 210.99">
  <defs>
    <style>
      .cls-1 {
        fill: #fff;
      }

      .cls-2 {
        fill: #e6aa00;
      }

      .cls-3 {
        fill: #1a599e;
      }

      .cls-4 {
        fill: #e20714;
      }

      .cls-5 {
        fill: #fefefe;
      }
    </style>
  </defs>
  <g id="Capa_2-2" data-name="Capa 2">
    <g>
      <g>
        <path class="cls-5" d="M105.49,204.69c-26.5,0-51.41-10.32-70.14-29.05-18.74-18.74-29.05-43.65-29.05-70.14s10.32-51.41,29.05-70.14C54.09,16.62,79,6.3,105.49,6.3s51.41,10.32,70.14,29.05c18.74,18.74,29.05,43.65,29.05,70.14s-10.32,51.41-29.05,70.14c-18.74,18.74-43.65,29.05-70.14,29.05Z"/>
        <path class="cls-1" d="M105.49,12.6c51.3,0,92.89,41.59,92.89,92.89s-41.59,92.89-92.89,92.89S12.6,156.8,12.6,105.49,54.19,12.6,105.49,12.6M105.49,0c-14.24,0-28.05,2.79-41.07,8.3-12.56,5.31-23.84,12.92-33.53,22.6-9.68,9.68-17.29,20.97-22.6,33.53C2.79,77.44,0,91.26,0,105.49s2.79,28.05,8.3,41.07c5.31,12.56,12.92,23.84,22.6,33.53,9.68,9.68,20.97,17.29,33.53,22.6,13.01,5.5,26.83,8.3,41.07,8.3s28.05-2.79,41.07-8.3c12.56-5.31,23.84-12.92,33.53-22.6,9.68-9.68,17.29-20.96,22.6-33.53,5.5-13.01,8.3-26.83,8.3-41.07s-2.79-28.05-8.3-41.07c-5.31-12.56-12.92-23.84-22.6-33.53-9.68-9.68-20.96-17.29-33.53-22.6C133.55,2.79,119.73,0,105.49,0h0Z"/>
        <path class="cls-3" d="M105.49,12.6c51.3,0,92.89,41.59,92.89,92.89s-41.59,92.89-92.89,92.89S12.6,156.8,12.6,105.49,54.19,12.6,105.49,12.6M105.49,4.41c-13.64,0-26.88,2.67-39.35,7.95-12.04,5.09-22.85,12.38-32.13,21.66-9.28,9.28-16.57,20.09-21.66,32.13-5.27,12.47-7.95,25.71-7.95,39.35s2.67,26.88,7.95,39.35c5.09,12.04,12.38,22.85,21.66,32.13,9.28,9.28,20.09,16.57,32.13,21.66,12.47,5.27,25.71,7.95,39.35,7.95s26.88-2.67,39.35-7.95c12.04-5.09,22.85-12.38,32.13-21.66s16.57-20.09,21.66-32.13c5.27-12.47,7.95-25.71,7.95-39.35s-2.67-26.88-7.95-39.35c-5.09-12.04-12.38-22.85-21.66-32.13s-20.09-16.57-32.13-21.66c-12.47-5.27-25.71-7.95-39.35-7.95h0Z"/>
      </g>
      <path class="cls-1" d="M105.96,207.79c-.05,0-.11,0-.17,0h.33c-.05,0-.11,0-.17,0M206.77,105.67v-.34c0,.06,0,.11,0,.17s0,.11,0,.17"/>
      <path class="cls-1" d="M206.01,55.58h0s0,0,0,0M198.09,44.51h0,0"/>
      <polyline class="cls-4" points="105.49 95.83 94.03 87.37 105.49 78.92 116.96 87.37 105.49 95.83"/>
      <polyline class="cls-4" points="116.98 104.31 105.51 95.85 116.98 87.39 128.45 95.85 116.98 104.31"/>
      <polyline class="cls-4" points="128.47 112.78 117 104.32 128.47 95.86 139.93 104.32 128.47 112.78"/>
      <polyline class="cls-5" points="94.01 104.31 82.54 95.85 94.01 87.39 105.48 95.85 94.01 104.31"/>
      <polyline class="cls-5" points="105.49 112.78 94.03 104.32 105.49 95.86 116.96 104.32 105.49 112.78"/>
      <polyline class="cls-5" points="116.98 121.25 105.51 112.79 116.98 104.33 128.45 112.79 116.98 121.25"/>
      <g>
        <path class="cls-5" d="M185.43,138.51c-1.74,4.3-3.82,8.42-6.2,12.34,0,0,0,.01-.01.02-2.37,3.89-5.04,7.58-7.97,11.04,0,0,0,.01-.01.02-2.98,3.5-6.22,6.76-9.72,9.75l-56.02-41.32-56.02,41.32c-3.49-2.98-6.74-6.25-9.72-9.75,0,0,0,0-.01-.02-2.94-3.46-5.6-7.15-7.97-11.04,0,0,0-.01-.01-.02-2.38-3.92-4.46-8.04-6.2-12.34l45.5-33.56-44.75-33.01c1.83-4.24,3.99-8.3,6.45-12.16,0,0,0-.02.01-.02,2.45-3.84,5.2-7.47,8.21-10.86,0,0,.01,0,.02-.02,3.06-3.45,6.4-6.65,9.97-9.57l54.53,40.22,54.52-40.22c3.58,2.92,6.91,6.12,9.97,9.57,0,0,0,0,.02.02,3.01,3.39,5.75,7.02,8.21,10.86,0,0,0,.02.01.02,2.46,3.86,4.62,7.92,6.45,12.16l-44.75,33.01,45.5,33.56Z"/>
        <path class="cls-4" d="M71.05,104.94l-45.5,33.56c1.74,4.3,3.82,8.42,6.2,12.34l50.77-37.45-11.47-8.46ZM160.02,39.32l-54.52,40.22,11.47,8.46,53.03-39.12c-3.06-3.45-6.39-6.65-9.97-9.57Z"/>
        <path class="cls-5" d="M82.54,113.42l-50.77,37.45c2.37,3.89,5.04,7.58,7.97,11.04l54.27-40.03-11.47-8.46ZM170.01,48.9l-53.02,39.12,11.47,8.46,49.76-36.71c-2.45-3.84-5.2-7.47-8.21-10.86Z"/>
        <path class="cls-3" d="M94.03,121.89l-54.27,40.03c2.98,3.5,6.23,6.77,9.72,9.75l56.02-41.32-11.47-8.46ZM178.23,59.78l-49.76,36.71,11.47,8.46,44.75-33.01c-1.83-4.24-3.99-8.3-6.45-12.16Z"/>
        <path class="cls-4" d="M139.93,104.94l-11.47,8.46,50.76,37.45c2.38-3.92,4.46-8.04,6.2-12.34l-45.5-33.56ZM50.97,39.32c-3.57,2.92-6.91,6.12-9.97,9.57l53.03,39.12,11.47-8.46-54.53-40.22Z"/>
        <path class="cls-5" d="M128.45,113.42l-11.47,8.46,54.27,40.03c2.94-3.46,5.6-7.15,7.97-11.04l-50.77-37.45ZM40.98,48.9c-3.01,3.39-5.75,7.02-8.21,10.86l49.77,36.71,11.47-8.46-53.03-39.12Z"/>
        <path class="cls-3" d="M116.96,121.89l-11.47,8.46,56.02,41.32c3.49-2.99,6.74-6.25,9.72-9.75l-54.27-40.03ZM32.76,59.78c-2.46,3.86-4.62,7.92-6.45,12.16l44.75,33.01,11.47-8.46-49.76-36.71Z"/>
      </g>
      <polyline class="cls-3" points="82.52 112.78 71.05 104.32 82.52 95.86 93.99 104.32 82.52 112.78"/>
      <polyline class="cls-3" points="94.01 121.25 82.54 112.79 94.01 104.33 105.48 112.79 94.01 121.25"/>
      <polyline class="cls-3" points="105.49 129.72 94.03 121.26 105.49 112.81 116.96 121.26 105.49 129.72"/>
      <path class="cls-5" d="M144.86,103.02c0,21.54-16.99,39-37.93,39s-37.94-17.46-37.94-39,16.98-39,37.94-39,37.93,17.46,37.93,39"/>
      <polygon class="cls-2" points="106.25 72.01 113.13 93.79 135.4 93.79 117.39 107.24 124.27 129.01 106.25 115.56 88.24 129.01 95.12 107.24 77.11 93.79 99.38 93.79 106.25 72.01 106.25 72.01"/>
      <path class="cls-3" d="M67.85,166.3c.26.11.65.29,1.19.54.53.24,1.17.59,1.93,1.05.56.34,1.08.73,1.59,1.18.5.45.9.96,1.18,1.54.29.57.42,1.21.39,1.92-.03.71-.29,1.5-.78,2.36-.44.76-.92,1.33-1.43,1.7-.52.37-1.05.59-1.59.67-.54.08-1.09.03-1.64-.13-.55-.16-1.08-.39-1.58-.7-.2-.12-.4-.25-.59-.39-.19-.14-.33-.25-.4-.32l-2.16,3.76c-.3-.11-.57-.22-.8-.33-.23-.11-.44-.22-.63-.34-.37-.22-.79-.55-1.28-.97l6.62-11.53h0ZM67.43,173.41c.04.05.12.12.24.21.12.09.25.17.38.25.45.27.89.36,1.33.26.44-.1.81-.42,1.13-.97.19-.32.3-.62.33-.9.04-.27.02-.53-.06-.76-.08-.23-.21-.43-.39-.62-.18-.18-.38-.34-.61-.48-.06-.04-.14-.08-.22-.13-.08-.05-.17-.1-.26-.14l-1.87,3.26h0Z"/>
      <path class="cls-3" d="M73.04,184.22c-.28-.06-.53-.12-.75-.18-.22-.06-.44-.14-.64-.22-.2-.08-.43-.19-.69-.33-.26-.14-.54-.3-.84-.49l8.58-10.91c.31.08.59.17.86.25.26.08.53.17.79.28.21.09.44.19.69.32.25.13.53.27.84.44l-1.04,13.99c-.69-.16-1.27-.34-1.76-.53-.23-.09-.45-.19-.67-.31-.22-.11-.45-.25-.69-.4l.29-2.69c-.35-.04-.68-.09-.99-.16-.31-.07-.6-.16-.88-.28-.26-.11-.52-.23-.77-.38-.26-.15-.51-.33-.78-.53l-1.55,2.14h0ZM78.96,175.97l-2.86,4.02c.17.14.33.26.49.36.16.1.32.19.51.27.19.08.39.14.58.19.2.05.41.08.64.11l.64-4.94h0Z"/>
      <path class="cls-3" d="M85.72,174.89c.59.07,1.14.14,1.65.19.5.06,1.03.15,1.58.27.65.15,1.29.36,1.92.64.62.28,1.16.63,1.6,1.07.44.43.76.96.97,1.58.2.62.21,1.35.03,2.2-.1.45-.23.85-.41,1.18-.18.34-.38.63-.6.87-.22.24-.45.45-.69.61-.24.16-.47.3-.69.4l1.56,6.27c-.3-.02-.61-.05-.96-.1-.34-.05-.65-.11-.93-.17-.24-.05-.51-.13-.82-.23-.31-.1-.58-.2-.8-.3l-1.24-6.56.18-.06c.16-.04.34-.13.55-.26.21-.13.41-.3.61-.5.2-.2.38-.44.55-.71.16-.27.28-.56.35-.88.13-.61.06-1.09-.21-1.45-.27-.36-.65-.59-1.14-.7-.12-.03-.22-.04-.31-.05-.09,0-.14,0-.17,0l-2.26,10.47c-.65-.03-1.18-.1-1.58-.19-.44-.1-.96-.28-1.55-.53l2.82-13.07h0Z"/>
      <path class="cls-3" d="M97.58,190.75c-.28.03-.54.05-.77.06-.23.01-.46,0-.68,0-.22-.01-.47-.05-.75-.1-.28-.05-.6-.12-.95-.2l4.9-13.1c.32-.02.61-.03.89-.04.27,0,.55,0,.83.02.23.01.48.04.75.09.27.04.58.09.93.15l3.2,13.64c-.7.07-1.31.08-1.83.05-.24-.02-.49-.04-.73-.09-.24-.04-.5-.1-.78-.16l-.53-2.65c-.35.08-.68.13-.99.16-.31.03-.62.03-.92.02-.28-.02-.56-.06-.85-.12-.29-.06-.59-.15-.9-.26l-.83,2.52h0ZM100.74,181.03l-1.52,4.73c.2.08.39.14.57.19.18.05.37.08.56.09.21.01.41.01.61,0,.2-.02.41-.05.64-.1l-.87-4.9h0Z"/>
      <path class="cls-3" d="M113.88,183.69c.32-.07.61-.14.86-.18.25-.05.49-.08.71-.09.21-.02.46-.02.75-.02.29,0,.58.02.86.04l.51,6.81c-.7.33-1.39.57-2.08.71-.69.14-1.28.23-1.78.27-1.07.08-2.01-.01-2.84-.29-.83-.28-1.53-.7-2.12-1.27-.59-.57-1.04-1.27-1.37-2.09-.33-.83-.53-1.74-.61-2.74-.07-1,0-1.93.21-2.81.22-.87.56-1.65,1.05-2.31.48-.66,1.1-1.2,1.85-1.61.75-.41,1.62-.65,2.6-.73.58-.05,1.14-.05,1.67,0,.53.05,1.13.18,1.78.41.01.51-.04,1.02-.16,1.52-.12.5-.25.92-.4,1.27-.25-.07-.48-.13-.68-.17-.2-.05-.4-.08-.58-.1-.18-.02-.37-.04-.55-.04-.18,0-.38,0-.58.02-.98.08-1.71.48-2.2,1.2-.48.72-.67,1.76-.57,3.1.1,1.33.43,2.31,1,2.92.57.61,1.37.88,2.4.8.23-.02.44-.05.61-.11l-.33-4.49h0Z"/>
      <path class="cls-3" d="M125.4,189.43c-.97.19-1.8.21-2.49.07-.69-.14-1.27-.43-1.73-.87-.47-.44-.84-1-1.13-1.7-.29-.69-.51-1.5-.68-2.4l-1.41-7.53c.34-.12.63-.21.88-.28.25-.07.48-.13.71-.17.2-.04.43-.08.68-.11.25-.03.55-.06.9-.07l1.34,7.15c.11.61.24,1.13.36,1.55.13.42.28.75.46,1,.18.25.39.4.64.48.25.07.56.07.93,0,.37-.07.66-.19.87-.35.21-.16.35-.39.43-.69.07-.29.09-.66.05-1.1-.04-.44-.11-.96-.23-1.58l-1.34-7.14c.35-.12.64-.21.89-.28.24-.07.46-.12.67-.16.22-.04.45-.08.7-.11.25-.03.56-.06.91-.08l1.41,7.53c.17.91.25,1.74.23,2.49-.01.75-.16,1.42-.43,2-.27.58-.71,1.07-1.29,1.47-.59.4-1.37.69-2.33.88"/>
      <path class="cls-3" d="M135.04,186.44c-.25.15-.47.27-.68.38-.21.1-.41.2-.62.28-.21.08-.45.15-.73.22-.28.07-.59.14-.95.21l-.68-14.02c.28-.15.55-.28.8-.4.25-.12.5-.23.77-.33.22-.08.46-.16.72-.23.26-.07.57-.16.91-.25l8.3,11.14c-.61.35-1.16.62-1.66.81-.23.09-.46.16-.7.22-.24.06-.49.12-.77.17l-1.53-2.2c-.29.21-.57.4-.84.56-.27.16-.55.29-.84.4-.26.1-.54.18-.83.24-.29.06-.6.11-.92.14l.23,2.65h0ZM134.1,176.24l.48,4.96c.22-.01.41-.04.6-.07.18-.03.37-.08.55-.15.19-.07.38-.16.56-.26.18-.1.36-.22.54-.36l-2.72-4.12h0Z"/>
      <path class="cls-3" d="M143.54,167.91c.23-.17.47-.34.73-.51.26-.16.53-.32.82-.46.18-.1.43-.2.74-.33.31-.12.57-.22.79-.3l.12,9.57,2.09,4.27c-.53.4-.98.7-1.36.89-.4.21-.91.41-1.52.6l-2.09-4.27c-.58-.46-1.18-.93-1.81-1.43-.63-.49-1.26-.99-1.89-1.48-.63-.49-1.26-.99-1.88-1.48-.62-.5-1.22-.97-1.8-1.43.17-.13.4-.29.71-.48.3-.19.59-.36.88-.5.23-.12.49-.23.78-.35.29-.12.55-.21.77-.28l4.28,3.62-.35-5.65h0Z"/>
      <path class="cls-3" d="M81.01,48.62c-.59.1-1.13.19-1.62.24-.49.05-.97.08-1.43.08s-1-.03-1.6-.1c-.61-.07-1.28-.17-2.03-.3l8.66-28.38c.67-.08,1.29-.15,1.87-.2.58-.05,1.17-.08,1.76-.08.49,0,1.02.03,1.6.08.58.05,1.24.12,1.99.2l8.54,28.42c-1.47.24-2.76.36-3.87.36-.52,0-1.03-.03-1.55-.08-.52-.05-1.07-.13-1.66-.24l-1.47-5.52c-.72.21-1.41.37-2.07.48-.66.11-1.31.16-1.95.16-.59,0-1.2-.05-1.82-.14-.62-.09-1.26-.23-1.93-.42l-1.43,5.45h0ZM86.42,27.64l-2.59,10.21c.44.13.85.24,1.24.32.39.08.79.12,1.2.12.44,0,.87-.03,1.3-.1.42-.07.87-.17,1.33-.3l-2.47-10.25h0Z"/>
      <path class="cls-3" d="M100.49,20.2c.59-.08,1.5-.19,2.72-.34,1.22-.15,2.76-.22,4.62-.22,1.37,0,2.74.13,4.14.4,1.39.27,2.65.76,3.77,1.49,1.12.73,2.03,1.76,2.72,3.08.7,1.32,1.04,3.05,1.04,5.17,0,1.88-.28,3.44-.83,4.69-.55,1.25-1.29,2.24-2.2,2.98-.91.74-1.96,1.27-3.13,1.59-1.17.32-2.38.48-3.61.48-.49,0-.99-.02-1.49-.06-.5-.04-.86-.09-1.06-.14v9.26c-.67.13-1.28.23-1.82.28-.54.05-1.04.08-1.51.08-.9,0-2.02-.12-3.36-.36v-28.38h0ZM107.17,33.64c.13.05.35.09.66.12.31.03.63.04.97.04,1.11,0,2.01-.33,2.71-.99.7-.66,1.04-1.67,1.04-3.02,0-.8-.11-1.46-.33-2.01-.22-.54-.52-.98-.91-1.31-.39-.33-.84-.56-1.35-.69-.52-.13-1.06-.2-1.62-.2h-.54c-.21,0-.41.01-.62.04v8.03h0Z"/>
      <path class="cls-3" d="M121.55,20.12h16.31c.1.58.18,1.13.23,1.63.05.5.08.98.08,1.43,0,.87-.1,1.92-.31,3.14h-9.47v4.85h7.46c.23,1.19.35,2.23.35,3.1s-.12,1.95-.35,3.14h-7.46v11.17c-1.37.24-2.5.36-3.4.36-.95,0-2.1-.12-3.44-.36v-28.46h0Z"/>
    </g>
  </g>
</svg>