<?xml version="1.0" encoding="UTF-8"?>
<svg id="Capa_2" data-name="Capa 2" xmlns="http://www.w3.org/2000/svg" viewBox="0 0 144.48 234.55">
  <defs>
    <style>
      .cls-1 {
        fill: #293634;
      }

      .cls-2 {
        fill: #fff;
      }

      .cls-3 {
        fill: #43b5e5;
      }

      .cls-4 {
        fill: #d51c27;
      }

      .cls-5 {
        fill: #ebbc03;
      }
    </style>
  </defs>
  <g id="Capa_2-2" data-name="Capa 2">
    <g>
      <path class="cls-2" d="M72.24,229.14c-11.02-3.19-67.49-26.88-67.49-75.38V37.1h134.98v116.83c0,49.39-57.17,71.72-67.49,75.2h0Z"/>
      <path class="cls-5" d="M6.43,38v116.23c0,20.09,9.8,38.11,29.13,53.56,14.72,11.77,30.53,18.32,36.62,20.28,10.32-3.65,65.87-25.53,65.87-73.66V38H6.43ZM72.32,234.55l-1.01-.29c-5.52-1.6-23.43-8.62-39.87-21.75-9.25-7.39-16.58-15.54-21.81-24.24-6.39-10.63-9.63-22.08-9.63-34.05V31.84h144.48v122.56c0,54.27-63.89,77.36-71.17,79.81l-.99.33h0Z"/>
      <polyline class="cls-5" points="16.34 0 13.18 9.89 2.77 9.89 11.22 15.93 7.94 25.82 16.4 19.73 24.79 25.82 21.57 15.93 29.97 9.83 19.62 9.83 16.34 0"/>
      <polyline class="cls-5" points="53.43 0 50.27 9.89 39.86 9.89 48.32 15.93 45.04 25.82 53.49 19.73 61.89 25.82 58.67 15.93 67.06 9.83 56.71 9.83 53.43 0"/>
      <polyline class="cls-5" points="90.7 0 87.54 9.89 77.13 9.89 85.58 15.93 82.3 25.82 90.82 19.73 99.15 25.82 95.99 15.93 104.33 9.83 93.98 9.83 90.7 0"/>
      <polyline class="cls-5" points="128.08 0 124.92 9.89 114.51 9.89 122.96 15.93 119.68 25.82 128.14 19.73 136.54 25.82 133.37 15.93 141.71 9.83 131.36 9.83 128.08 0"/>
      <polyline class="cls-5" points="96.68 204.62 71.95 195.47 47.76 204.62 47.76 48.16 71.84 57.27 96.68 48.16 96.68 204.62"/>
      <path class="cls-4" d="M72.18,70.23l.08-.12.04.12s3.46,5.04,5.19,8h-10.5c1.73-2.96,5.19-8,5.19-8h0ZM80.45,85.49h7l-10.27-17.96h-9.88l-10.31,17.96h7.04s.46-1.54,1.12-3.23h14.19c.65,1.73,1.12,3.23,1.12,3.23"/>
      <path class="cls-4" d="M79.99,92.88v13.88h-15.53v-13.88h-7.27v12.73c0,2.23,3.81,5.19,6.84,5.19h16.42c3.04,0,6.84-2.92,6.84-5.19v-12.73h-7.31"/>
      <polyline class="cls-4" points="86.95 122.06 86.95 118.03 57.49 118.03 57.49 136.18 64.76 136.18 64.76 129.6 86.95 129.6 86.95 125.56 64.76 125.56 64.76 122.06 86.95 122.06"/>
      <path class="cls-5" d="M34.61,76.57s2.69-.96,2.69-3.85-2.65-5.35-2.65-5.35h-.04s-2.65,2.5-2.65,5.35,2.69,3.85,2.69,3.85h-.04"/>
      <path class="cls-5" d="M35.69,86.61s2.5,1.42,4.69-.46c2.19-1.88,2.35-5.5,2.35-5.5l-.04-.04s-3.61-.42-5.81,1.46c-2.15,1.88-1.15,4.58-1.19,4.54h0"/>
      <path class="cls-5" d="M33.73,86.46s-2.46,1.5-4.69-.27c-2.27-1.81-2.54-5.42-2.54-5.42l.04-.04s3.61-.54,5.84,1.27c2.27,1.81,1.35,4.5,1.35,4.46h0"/>
      <path class="cls-5" d="M35.65,98.45s2.5,1.42,4.69-.46c2.19-1.88,2.35-5.5,2.35-5.5l-.04-.04s-3.61-.42-5.81,1.46c-2.19,1.88-1.15,4.58-1.19,4.54h0"/>
      <path class="cls-5" d="M33.69,98.34s-2.46,1.5-4.69-.27c-2.27-1.81-2.54-5.42-2.54-5.42l.04-.04s3.61-.54,5.85,1.27c2.23,1.77,1.31,4.5,1.35,4.46h0"/>
      <path class="cls-5" d="M35.65,110.3s2.5,1.42,4.69-.46c2.19-1.88,2.35-5.5,2.35-5.5l-.04-.04s-3.61-.42-5.81,1.46c-2.19,1.88-1.15,4.58-1.19,4.54h0"/>
      <path class="cls-5" d="M33.69,110.18s-2.46,1.5-4.69-.27c-2.27-1.81-2.54-5.42-2.54-5.42l.04-.04s3.61-.54,5.85,1.27c2.23,1.77,1.31,4.5,1.35,4.46h0"/>
      <path class="cls-5" d="M35.65,122.14s2.5,1.42,4.69-.46c2.19-1.88,2.35-5.5,2.35-5.5l-.04-.04s-3.61-.42-5.81,1.46c-2.19,1.88-1.15,4.58-1.19,4.54h0"/>
      <path class="cls-5" d="M33.69,122.02s-2.46,1.5-4.69-.27c-2.27-1.81-2.54-5.42-2.54-5.42l.04-.04s3.61-.54,5.85,1.27c2.23,1.77,1.31,4.5,1.35,4.46h0"/>
      <path class="cls-5" d="M35.65,134.02s2.5,1.42,4.69-.46c2.19-1.88,2.35-5.5,2.35-5.5l-.04-.04s-3.61-.42-5.81,1.46c-2.19,1.88-1.15,4.58-1.19,4.54h0"/>
      <path class="cls-5" d="M33.69,133.91s-2.46,1.5-4.69-.27c-2.27-1.81-2.54-5.42-2.54-5.42l.04-.04s3.61-.54,5.85,1.27c2.23,1.77,1.31,4.5,1.35,4.46h0"/>
      <polygon class="cls-5" points="34.11 75.65 35.11 75.65 35.11 148.79 34.11 148.79 34.11 75.65 34.11 75.65"/>
      <path class="cls-5" d="M109.87,76.57s2.69-.96,2.69-3.85-2.65-5.35-2.65-5.35h-.04s-2.65,2.5-2.65,5.35,2.69,3.85,2.69,3.85h-.04"/>
      <path class="cls-5" d="M110.98,86.61s2.5,1.42,4.69-.46c2.19-1.88,2.35-5.5,2.35-5.5l-.04-.04s-3.61-.42-5.81,1.46c-2.19,1.88-1.19,4.58-1.19,4.54h0"/>
      <path class="cls-5" d="M109.02,86.46s-2.46,1.5-4.69-.27c-2.27-1.81-2.54-5.42-2.54-5.42l.04-.04s3.61-.54,5.84,1.27c2.23,1.81,1.31,4.5,1.35,4.46h0"/>
      <path class="cls-5" d="M110.9,98.45s2.5,1.42,4.69-.46c2.19-1.88,2.35-5.5,2.35-5.5l-.04-.04s-3.61-.42-5.81,1.46c-2.15,1.88-1.15,4.58-1.19,4.54h0"/>
      <path class="cls-5" d="M108.94,98.34s-2.46,1.5-4.69-.27c-2.27-1.81-2.54-5.42-2.54-5.42l.04-.04s3.61-.54,5.84,1.27c2.23,1.77,1.31,4.5,1.35,4.46h0"/>
      <path class="cls-5" d="M110.9,110.3s2.5,1.42,4.69-.46c2.19-1.88,2.35-5.5,2.35-5.5l-.04-.04s-3.61-.42-5.81,1.46c-2.15,1.88-1.15,4.58-1.19,4.54h0"/>
      <path class="cls-5" d="M108.94,110.18s-2.46,1.5-4.69-.27c-2.27-1.81-2.54-5.42-2.54-5.42l.04-.04s3.61-.54,5.84,1.27c2.23,1.77,1.31,4.5,1.35,4.46h0"/>
      <path class="cls-5" d="M110.9,122.14s2.5,1.42,4.69-.46c2.19-1.88,2.35-5.5,2.35-5.5l-.04-.04s-3.61-.42-5.81,1.46c-2.15,1.88-1.15,4.58-1.19,4.54h0"/>
      <path class="cls-5" d="M108.94,122.02s-2.46,1.5-4.69-.27c-2.27-1.81-2.54-5.42-2.54-5.42l.04-.04s3.61-.54,5.84,1.27c2.23,1.77,1.31,4.5,1.35,4.46h0"/>
      <path class="cls-5" d="M110.9,134.02s2.5,1.42,4.69-.46c2.19-1.88,2.35-5.5,2.35-5.5l-.04-.04s-3.61-.42-5.81,1.46c-2.15,1.88-1.15,4.58-1.19,4.54h0"/>
      <path class="cls-5" d="M108.94,133.91s-2.46,1.5-4.69-.27c-2.27-1.81-2.54-5.42-2.54-5.42l.04-.04s3.61-.54,5.84,1.27c2.23,1.77,1.31,4.5,1.35,4.46h0"/>
      <polygon class="cls-5" points="109.37 75.65 110.37 75.65 110.37 148.79 109.37 148.79 109.37 75.65 109.37 75.65"/>
      <polygon class="cls-2" points="26.46 149.21 118.02 149.21 118.02 182.59 26.46 182.59 26.46 149.21 26.46 149.21"/>
      <polygon class="cls-3" points="26.46 152.94 118.02 152.94 118.02 156.59 26.46 156.59 26.46 152.94 26.46 152.94"/>
      <polygon class="cls-3" points="26.46 160.4 118.02 160.4 118.02 164.05 26.46 164.05 26.46 160.4 26.46 160.4"/>
      <polygon class="cls-3" points="26.46 167.86 118.02 167.86 118.02 171.51 26.46 171.51 26.46 167.86 26.46 167.86"/>
      <polygon class="cls-3" points="26.46 175.28 118.02 175.28 118.02 178.94 26.46 178.94 26.46 175.28 26.46 175.28"/>
      <path class="cls-2" d="M51.07,166.05h.19-.19c0-11.57,9.38-20.92,20.96-20.96,11.57.04,20.92,9.38,20.96,20.96,0,11.57-9.38,20.92-20.96,20.96-11.57-.04-20.96-9.38-20.96-20.96"/>
      <path class="cls-1" d="M52.03,166.05c0,11,8.96,19.96,19.96,19.96,11-.04,19.96-8.96,19.96-19.96s-8.96-19.96-19.96-19.96-19.92,8.96-19.96,19.96h0ZM72.03,187.97h0c-11.77-.04-21.38-9.34-21.92-20.96h-.04v-1.96h.04c.54-11.61,10.15-20.92,21.92-20.96,12.07,0,21.92,9.84,21.92,21.92-.04,12.11-9.84,21.96-21.92,21.96"/>
      <path class="cls-1" d="M75.03,186.05l1.42-3.35c2.46-.65,4.69-1.88,6.61-3.46l3.38.92c-2.96,3.08-6.96,5.23-11.42,5.88h0ZM54.11,175.47l3.04-.38c1.15,1.88,2.69,3.54,4.46,4.85l.12,3.54c-3.23-1.92-5.88-4.69-7.61-8h0ZM82.14,148.56l-2.58,1.81c-2.31-1.15-4.92-1.77-7.65-1.77-.62,0-1.23.04-1.85.08l-2.46-2.35c1.42-.31,2.88-.5,4.42-.5,3.69,0,7.15,1,10.11,2.73h0ZM89.25,167.17c.04-.42.04-.81.04-1.23,0-1.85-.31-3.61-.81-5.27l2.58-1.42c.77,2.11,1.19,4.42,1.19,6.81,0,1.35-.15,2.65-.38,3.92l-2.61-2.81h0ZM57.53,156.17c-1.38,2-2.31,4.31-2.77,6.77l-2.85.54c.5-3.88,2.08-7.42,4.46-10.31l1.15,3h0ZM57.76,167.09l-2.35-3.58c.38-2.54,1.31-4.85,2.69-6.88l7.58-2.27,1.81,3.61-4.08,7.96-5.65,1.15h0ZM88.52,167.17l-4.58,3.54-5.08-2.54-1.12-8.27,4.08-3.38,5.88,3.96c.58,1.69.92,3.54.92,5.46-.08.42-.08.85-.12,1.23h0ZM71.91,149.29c2.77,0,5.38.69,7.69,1.88l1.81,4.73-4.08,3.42-9.07-1.42-2-3.96,3.73-4.54c.62-.08,1.27-.12,1.92-.12h0ZM57.34,174.05l.54-6.27,5.73-1.15,6.38,6-.73,4.69-7,2.23c-2-1.46-3.69-3.31-4.92-5.5h0ZM76.14,182.05l-6.15-4.73.73-4.69,7.73-3.88,5.04,2.5-.73,7.31c-1.88,1.65-4.15,2.88-6.61,3.5h0ZM72.03,145.1c-11.57,0-20.96,9.38-20.96,20.96s9.38,20.96,20.96,20.96,20.96-9.38,20.96-20.96c-.04-11.57-9.42-20.96-20.96-20.96"/>
    </g>
  </g>
</svg>