<?xml version="1.0" encoding="UTF-8"?>
<svg id="Capa_2" data-name="Capa 2" xmlns="http://www.w3.org/2000/svg" viewBox="0 0 169.1 214.02">
  <defs>
    <style>
      .cls-1 {
        fill: #ff191d;
      }

      .cls-2 {
        fill: #fff;
      }

      .cls-3 {
        fill: #ebbf75;
      }

      .cls-4 {
        fill: none;
      }

      .cls-5 {
        fill: #f2f2f2;
      }
    </style>
  </defs>
  <g id="Capa_2-2" data-name="Capa 2">
    <g>
      <path class="cls-2" d="M0,4.25v138.08s.17,12.86,15.5,25.89c15.32,13.03,48.44,29.77,48.44,29.77,0,0,16.79,9.92,20.61,16.03,3.82-6.11,20.61-16.03,20.61-16.03,0,0,33.11-16.73,48.44-29.77,15.33-13.04,15.5-25.89,15.5-25.89V4.25C144.11,1.55,115.28,0,84.55,0S24.99,1.55,0,4.25"/>
      <path class="cls-2" d="M158.61,140.6c-.06.89-.96,10-12.44,19.76-13.87,11.8-44.65,27.41-44.96,27.56l-.2.1-.19.11c-2.88,1.7-10.53,6.39-16.27,11.35-5.73-4.96-13.38-9.65-16.27-11.35l-.19-.11-.2-.1c-.31-.16-31.1-15.78-44.96-27.56-11.48-9.77-12.38-18.87-12.44-19.76V14.88c22.84-2.23,48.3-3.4,74.06-3.4s51.22,1.17,74.06,3.4v125.72"/>
      <path class="cls-3" d="M84.55,4.75c-29.36,0-56.91,1.48-80.79,4.06v131.94s.17,12.29,14.81,24.74c14.64,12.46,46.29,28.45,46.29,28.45,0,0,16.05,9.48,19.69,15.32,3.65-5.84,19.69-15.32,19.69-15.32,0,0,31.65-15.99,46.29-28.45,14.64-12.45,14.81-24.74,14.81-24.74V8.81c-23.88-2.58-51.43-4.06-80.79-4.06M158.61,140.6c-.06.89-.96,10-12.44,19.76-13.87,11.8-44.65,27.41-44.96,27.56l-.2.1-.19.11c-2.88,1.7-10.53,6.39-16.27,11.35-5.73-4.96-13.38-9.65-16.27-11.35l-.19-.11-.2-.1c-.31-.16-31.1-15.78-44.96-27.56-11.48-9.77-12.38-18.87-12.44-19.76V14.88c22.84-2.23,48.3-3.4,74.06-3.4s51.22,1.17,74.06,3.4v125.72"/>
      <path class="cls-1" d="M13.18,17.34v123.16c.09.92,1.12,8.99,11.49,17.82,8.41,7.15,23.4,15.86,33.62,21.46V14.6c-15.64.49-30.89,1.41-45.11,2.74h0"/>
      <path class="cls-1" d="M110.81,179.79c10.22-5.61,25.21-14.31,33.62-21.46,10.38-8.83,11.41-16.9,11.49-17.82V17.34c-14.21-1.33-29.47-2.25-45.11-2.74v165.19"/>
      <polygon class="cls-2" points="28.91 107.01 28.91 74.1 51.47 74.1 51.47 79.67 35.55 79.67 35.55 87.46 49.29 87.46 49.29 93.03 35.55 93.03 35.55 107.01 28.91 107.01 28.91 107.01"/>
      <path class="cls-1" d="M74.32,107v-32.91h10.66c4.04,0,6.67.17,7.9.49,1.88.49,3.46,1.57,4.74,3.22,1.27,1.65,1.91,3.79,1.91,6.41,0,2.02-.37,3.72-1.1,5.1-.73,1.38-1.66,2.46-2.79,3.24-1.13.79-2.28,1.31-3.45,1.56-1.59.31-3.88.47-6.89.47h-4.33v12.41h-6.64ZM80.97,79.66v9.34h3.64c2.62,0,4.37-.17,5.25-.52.88-.34,1.58-.88,2.08-1.62.5-.73.75-1.59.75-2.56,0-1.2-.35-2.19-1.05-2.96-.7-.78-1.59-1.26-2.67-1.46-.79-.15-2.39-.22-4.78-.22h-3.21Z"/>
      <polyline class="cls-5" points="58.29 179.79 58.28 179.78 58.28 102.9 58.29 102.9 58.29 179.79"/>
      <path class="cls-4" d="M13.18,17.34v123.16c.09.92,1.12,8.99,11.49,17.82,8.41,7.15,23.4,15.86,33.62,21.46V14.6c-15.64.49-30.89,1.41-45.11,2.74h0M110.81,179.79c10.22-5.61,25.21-14.31,33.62-21.46,10.38-8.83,11.41-16.9,11.49-17.82V17.34c-14.21-1.33-29.47-2.25-45.11-2.74v165.19M68.28,188.15l-.19-.11-.2-.1c-.31-.16-31.1-15.78-44.96-27.56-11.48-9.77-12.38-18.87-12.44-19.76V14.89c22.84-2.23,48.3-3.4,74.06-3.4s51.22,1.17,74.06,3.4v125.72c-.06.89-.96,10-12.44,19.76-13.87,11.8-44.65,27.41-44.96,27.56l-.2.1-.19.11c-2.89,1.7-10.53,6.39-16.27,11.35-5.73-4.97-13.38-9.65-16.27-11.35M3.76,8.81v131.94s.17,12.29,14.81,24.74c14.64,12.45,46.29,28.45,46.29,28.45,0,0,16.05,9.48,19.69,15.32,3.65-5.84,19.69-15.32,19.69-15.32,0,0,31.64-15.99,46.29-28.45,14.64-12.46,14.81-24.74,14.81-24.74V8.81c-23.88-2.58-51.43-4.06-80.79-4.06S27.64,6.23,3.76,8.81"/>
      <path class="cls-4" d="M13.18,17.34v123.16c.09.92,1.12,8.99,11.49,17.82,8.41,7.15,23.4,15.86,33.62,21.46V14.6c-15.64.49-30.89,1.41-45.11,2.74h0M110.81,179.79c10.22-5.61,25.21-14.31,33.62-21.46,10.38-8.83,11.41-16.9,11.49-17.82V17.34c-14.21-1.33-29.47-2.25-45.11-2.74v165.19M68.28,188.15l-.19-.11-.2-.1c-.31-.16-31.1-15.78-44.96-27.56-11.48-9.77-12.38-18.87-12.44-19.76V14.89c22.84-2.23,48.3-3.4,74.06-3.4s51.22,1.17,74.06,3.4v125.72c-.06.89-.96,10-12.44,19.76-13.87,11.8-44.65,27.41-44.96,27.56l-.2.1-.19.11c-2.89,1.7-10.53,6.39-16.27,11.35-5.73-4.97-13.38-9.65-16.27-11.35M3.76,8.81v131.94s.17,12.29,14.81,24.74c14.64,12.45,46.29,28.45,46.29,28.45,0,0,16.05,9.48,19.69,15.32,3.65-5.84,19.69-15.32,19.69-15.32,0,0,31.64-15.99,46.29-28.45,14.64-12.46,14.81-24.74,14.81-24.74V8.81c-23.88-2.58-51.43-4.06-80.79-4.06S27.64,6.23,3.76,8.81"/>
      <path class="cls-4" d="M13.18,17.34v123.16c.09.92,1.12,8.99,11.49,17.82,8.41,7.15,23.4,15.86,33.62,21.46V14.6c-15.64.49-30.89,1.41-45.11,2.74h0M110.81,179.79c10.22-5.61,25.21-14.31,33.62-21.46,10.38-8.83,11.41-16.9,11.49-17.82V17.34c-14.21-1.33-29.47-2.25-45.11-2.74v165.19M68.28,188.15l-.19-.11-.2-.1c-.31-.16-31.1-15.78-44.96-27.56-11.48-9.77-12.38-18.87-12.44-19.76V14.89c22.84-2.23,48.3-3.4,74.06-3.4s51.22,1.17,74.06,3.4v125.72c-.06.89-.96,10-12.44,19.76-13.87,11.8-44.65,27.41-44.96,27.56l-.2.1-.19.11c-2.89,1.7-10.53,6.39-16.27,11.35-5.73-4.97-13.38-9.65-16.27-11.35M3.76,8.81v131.94s.17,12.29,14.81,24.74c14.64,12.45,46.29,28.45,46.29,28.45,0,0,16.05,9.48,19.69,15.32,3.65-5.84,19.69-15.32,19.69-15.32,0,0,31.64-15.99,46.29-28.45,14.64-12.46,14.81-24.74,14.81-24.74V8.81c-23.88-2.58-51.43-4.06-80.79-4.06S27.64,6.23,3.76,8.81"/>
      <path class="cls-4" d="M68.28,188.15l-.19-.11-.2-.1c-.31-.16-31.1-15.78-44.96-27.56-11.48-9.77-12.38-18.87-12.44-19.76V14.89c22.84-2.23,48.3-3.4,74.06-3.4s51.22,1.17,74.06,3.4v125.72c-.06.89-.96,10-12.44,19.76-13.87,11.8-44.65,27.41-44.96,27.56l-.2.1-.19.11c-2.89,1.7-10.53,6.39-16.27,11.35-5.73-4.97-13.38-9.65-16.27-11.35"/>
      <polygon class="cls-2" points="121.58 107.01 121.58 74.1 144.14 74.1 144.14 79.67 128.22 79.67 128.22 87.46 141.96 87.46 141.96 93.03 128.22 93.03 128.22 107.01 121.58 107.01 121.58 107.01"/>
    </g>
  </g>
</svg>